<svg xmlns="http://www.w3.org/2000/svg" xmlns:xlink="http://www.w3.org/1999/xlink" width="500" zoomAndPan="magnify" viewBox="0 0 375 374.999991" height="500" preserveAspectRatio="xMidYMid meet" version="1.0"><defs><clipPath id="id1"><path d="M 72 272 L 302.953125 272 L 302.953125 356.425781 L 72 356.425781 Z M 72 272 " clip-rule="nonzero"/></clipPath><clipPath id="id2"><path d="M 72 18.929688 L 302.953125 18.929688 L 302.953125 347 L 72 347 Z M 72 18.929688 " clip-rule="nonzero"/></clipPath><clipPath id="id3"><path d="M 72 18.929688 L 102 18.929688 L 102 347 L 72 347 Z M 72 18.929688 " clip-rule="nonzero"/></clipPath><clipPath id="id4"><path d="M 222 18.929688 L 265 18.929688 L 265 69 L 222 69 Z M 222 18.929688 " clip-rule="nonzero"/></clipPath></defs><g clip-path="url(#id1)"><path fill="rgb(99.609375%, 41.958618%, 1.179504%)" d="M 72.460938 272.464844 L 302.613281 272.464844 L 302.613281 348.117188 C 302.613281 352.710938 298.902344 356.425781 294.316406 356.425781 L 99.335938 356.425781 C 84.488281 356.425781 72.460938 344.382812 72.460938 329.53125 L 72.460938 272.464844 " fill-opacity="1" fill-rule="nonzero"/></g><g clip-path="url(#id2)"><path fill="rgb(97.648621%, 38.819885%, 1.179504%)" d="M 296.265625 18.925781 L 93.175781 18.925781 C 81.734375 18.925781 72.460938 28.214844 72.460938 39.65625 L 72.460938 325.8125 C 72.460938 337.257812 81.734375 346.558594 93.175781 346.558594 L 297.824219 346.558594 L 295.070312 338.027344 L 293.308594 332.546875 L 284.53125 305.390625 L 296.265625 305.390625 C 299.773438 305.390625 302.613281 302.546875 302.613281 299.050781 L 302.613281 25.265625 C 302.613281 21.773438 299.773438 18.925781 296.265625 18.925781 " fill-opacity="1" fill-rule="nonzero"/></g><g clip-path="url(#id3)"><path fill="rgb(99.609375%, 41.958618%, 1.179504%)" d="M 101.011719 18.925781 L 93.175781 18.925781 C 81.734375 18.925781 72.460938 28.214844 72.460938 39.65625 L 72.460938 325.8125 C 72.460938 337.257812 81.734375 346.558594 93.175781 346.558594 L 101.011719 346.558594 L 101.011719 18.925781 " fill-opacity="1" fill-rule="nonzero"/></g><path fill="rgb(96.469116%, 96.469116%, 96.469116%)" d="M 297.824219 305.390625 L 98.496094 305.390625 C 87.804688 305.390625 79.046875 314.164062 79.046875 324.886719 L 79.046875 327.0625 C 79.046875 337.769531 87.804688 346.558594 98.496094 346.558594 L 297.824219 346.558594 L 297.824219 305.390625 " fill-opacity="1" fill-rule="nonzero"/><g clip-path="url(#id4)"><path fill="rgb(15.289307%, 17.248535%, 28.62854%)" d="M 264.808594 68.320312 L 243.425781 55.144531 L 222.058594 68.320312 L 222.058594 18.925781 L 264.808594 18.925781 L 264.808594 68.320312 " fill-opacity="1" fill-rule="nonzero"/></g></svg>