<svg xmlns="http://www.w3.org/2000/svg" xmlns:xlink="http://www.w3.org/1999/xlink" width="500" zoomAndPan="magnify" viewBox="0 0 375 374.999991" height="500" preserveAspectRatio="xMidYMid meet" version="1.0"><defs><clipPath id="id1"><path d="M 0 71.238281 L 374 71.238281 L 374 277.488281 L 0 277.488281 Z M 0 71.238281 " clip-rule="nonzero"/></clipPath></defs><g clip-path="url(#id1)"><path fill="rgb(97.648621%, 38.819885%, 1.179504%)" d="M 291.789062 112.613281 C 277.875 112.613281 264.410156 116.097656 252.460938 122.636719 C 237.914062 91.921875 206.558594 71.238281 171.433594 71.238281 C 123.503906 71.238281 84.242188 109.128906 81.921875 156.570312 C 59.910156 159.195312 41.035156 173.832031 32.875 194.265625 C 14.585938 198.84375 0.996094 215.445312 0.996094 235.164062 C 0.996094 258.40625 19.875 277.316406 43.082031 277.316406 L 166.074219 277.316406 L 166.074219 211.015625 L 145.679688 211.015625 C 141.730469 211.015625 140.40625 206.503906 142.6875 203.769531 C 154.988281 188.964844 172.199219 174.15625 184.5 159.351562 C 185.402344 158.265625 186.46875 157.871094 187.496094 157.941406 C 188.523438 157.871094 189.589844 158.265625 190.492188 159.351562 C 202.792969 174.15625 220.007812 188.964844 232.304688 203.769531 C 234.582031 206.503906 233.261719 211.015625 229.308594 211.015625 L 208.914062 211.015625 L 208.914062 277.316406 L 291.78125 277.316406 C 337.117188 277.316406 373.996094 240.375 373.996094 194.964844 C 373.996094 149.554688 337.117188 112.613281 291.789062 112.613281 Z M 291.789062 112.613281 " fill-opacity="1" fill-rule="nonzero"/></g></svg>