<svg xmlns="http://www.w3.org/2000/svg" xmlns:xlink="http://www.w3.org/1999/xlink" width="1920" zoomAndPan="magnify" viewBox="0 0 1440 1349.999938" height="1800" preserveAspectRatio="xMidYMid meet" version="1.0"><defs><g/><clipPath id="id1"><path d="M 886 214.140625 L 924 214.140625 L 924 289 L 886 289 Z M 886 214.140625 " clip-rule="nonzero"/></clipPath><clipPath id="id2"><path d="M 107 948 L 1334 948 L 1334 956.640625 L 107 956.640625 Z M 107 948 " clip-rule="nonzero"/></clipPath></defs><rect x="-144" width="1728" fill="rgb(100%, 100%, 100%)" y="-134.999994" height="1619.999926" fill-opacity="1"/><rect x="-144" width="1728" fill="rgb(15.289307%, 17.248535%, 28.62854%)" y="-134.999994" height="1619.999926" fill-opacity="1"/><rect x="-144" width="1728" fill="rgb(100%, 100%, 100%)" y="-134.999994" height="1619.999926" fill-opacity="1"/><rect x="-144" width="1728" fill="rgb(15.289307%, 17.248535%, 28.62854%)" y="-134.999994" height="1619.999926" fill-opacity="1"/><g clip-path="url(#id1)"><path fill="rgb(96.469116%, 96.469116%, 96.469116%)" d="M 900.386719 227.179688 C 898.21875 236.65625 894.984375 245.757812 890.691406 254.480469 C 889.765625 256.296875 888.996094 258.179688 888.394531 260.128906 C 887.789062 262.074219 887.351562 264.058594 887.085938 266.082031 C 886.820312 268.105469 886.730469 270.132812 886.808594 272.171875 C 886.890625 274.210938 887.144531 276.226562 887.570312 278.21875 L 890.691406 288.25 L 898.15625 277.773438 C 900.308594 275.386719 902.105469 272.753906 903.542969 269.878906 C 904.980469 267.003906 906.007812 263.988281 906.625 260.835938 C 906.625 257.15625 908.855469 254.480469 911.082031 254.480469 C 917.210938 254.480469 916.429688 260.386719 908.855469 270.863281 C 898.601562 285.019531 901.277344 289.140625 913.3125 277.214844 C 925.34375 265.292969 927.460938 246.679688 917.65625 227.179688 C 909.300781 209.792969 903.949219 209.792969 900.386719 227.179688 Z M 900.386719 227.179688 " fill-opacity="1" fill-rule="evenodd"/></g><path fill="rgb(96.469116%, 96.469116%, 96.469116%)" d="M 719.875 232.640625 C 703.160156 274.542969 700.484375 285.464844 703.160156 295.492188 C 705.832031 305.523438 706.167969 305.96875 715.972656 287.246094 C 721.320312 276.101562 727.117188 268.191406 728.339844 269.527344 C 729.566406 270.863281 727.449219 278.664062 723.550781 286.800781 C 714.191406 305.523438 717.308594 309.089844 729.234375 292.707031 C 731.933594 288.796875 734.078125 284.601562 735.664062 280.121094 C 737.253906 275.644531 738.230469 271.035156 738.59375 266.296875 C 738.59375 249.914062 723.550781 223.054688 719.875 232.640625 Z M 719.875 232.640625 " fill-opacity="1" fill-rule="evenodd"/><path fill="rgb(96.469116%, 96.469116%, 96.469116%)" d="M 797.09375 250.804688 C 795.675781 252.230469 794.367188 253.75 793.167969 255.363281 C 791.964844 256.972656 790.878906 258.660156 789.910156 260.421875 C 788.945312 262.183594 788.101562 264.003906 787.390625 265.882812 C 786.675781 267.761719 786.097656 269.683594 785.648438 271.644531 C 785.203125 273.601562 784.898438 275.585938 784.726562 277.589844 C 784.558594 279.589844 784.527344 281.597656 784.636719 283.605469 C 784.746094 285.609375 784.996094 287.601562 785.382812 289.574219 C 785.773438 291.546875 786.292969 293.480469 786.953125 295.382812 C 790.851562 305.859375 791.296875 305.410156 791.742188 288.582031 C 792.1875 271.753906 792.636719 270.753906 795.753906 284.015625 C 797.527344 291.769531 800.203125 299.199219 803.777344 306.304688 C 807.789062 314.105469 808.679688 313.214844 813.027344 300.398438 C 817.371094 287.582031 815.253906 240.664062 809.570312 240.664062 C 804.792969 243.28125 800.632812 246.660156 797.09375 250.804688 Z M 797.09375 250.804688 " fill-opacity="1" fill-rule="evenodd"/><path fill="rgb(96.469116%, 96.469116%, 96.469116%)" d="M 618.027344 264.511719 C 606.886719 282.789062 604.65625 294.601562 612.234375 309.089844 C 621.484375 327.699219 623.378906 326.363281 621.148438 303.183594 C 619.367188 287.136719 619.8125 286.242188 622.820312 298.167969 C 627.277344 316.78125 631.734375 323.6875 637.082031 320.457031 C 642.429688 317.226562 641.539062 287.023438 632.625 270.308594 L 624.15625 254.371094 Z M 618.027344 264.511719 " fill-opacity="1" fill-rule="evenodd"/><path fill="rgb(96.469116%, 96.469116%, 96.469116%)" d="M 549.277344 266.742188 C 550.613281 271.308594 552.84375 285.019531 554.625 297.722656 C 555.238281 303.265625 556.394531 308.695312 558.101562 314.003906 C 559.808594 319.3125 562.03125 324.398438 564.765625 329.261719 C 571.898438 336.949219 572.34375 336.503906 575.015625 313.324219 L 577.246094 288.695312 L 581.144531 309.203125 C 584.710938 329.261719 585.15625 329.707031 588.277344 316 C 594.964844 291.371094 585.601562 274.097656 559.863281 264.066406 C 548.832031 259.496094 547.496094 259.941406 549.277344 266.742188 Z M 549.277344 266.742188 " fill-opacity="1" fill-rule="evenodd"/><path fill="rgb(96.469116%, 96.469116%, 96.469116%)" d="M 840.550781 279.109375 C 838.53125 284.335938 836.035156 289.320312 833.054688 294.066406 C 830.074219 298.808594 826.664062 303.222656 822.832031 307.304688 C 805.113281 329.59375 791.742188 361.132812 797.984375 367.039062 C 799.320312 368.824219 810.019531 361.132812 820.269531 350.210938 C 842.554688 327.367188 847.347656 332.382812 826.507812 356.566406 L 812.691406 372.949219 L 826.507812 367.933594 C 841.996094 362.472656 857.929688 337.398438 857.929688 317.78125 C 857.929688 304.1875 846.789062 273.203125 842.890625 273.203125 C 841.441406 272.757812 840.550781 275.433594 840.550781 279.109375 Z M 840.550781 279.109375 " fill-opacity="1" fill-rule="evenodd"/><path fill="rgb(96.469116%, 96.469116%, 96.469116%)" d="M 664.160156 304.1875 C 654.464844 328.257812 652.238281 358.792969 659.367188 372.949219 C 664.09375 380.183594 670 386.277344 677.085938 391.222656 L 690.34375 400.808594 L 679.203125 376.625 C 674.285156 367.039062 670.570312 357.011719 668.058594 346.535156 C 668.058594 336.058594 676.082031 345.199219 679.203125 358.792969 C 680.675781 363.644531 682.722656 368.238281 685.34375 372.578125 C 687.964844 376.917969 691.082031 380.867188 694.691406 384.425781 L 707.949219 397.578125 L 707.949219 371.164062 C 708.34375 367.585938 708.398438 364 708.113281 360.410156 C 707.828125 356.820312 707.207031 353.289062 706.253906 349.816406 C 705.300781 346.34375 704.027344 342.992188 702.441406 339.761719 C 700.851562 336.527344 698.972656 333.476562 696.808594 330.597656 C 690.152344 320.644531 684.84375 310.019531 680.875 298.726562 C 679.570312 292.714844 677.34375 287.066406 674.1875 281.785156 C 670.363281 289.035156 667.019531 296.503906 664.160156 304.1875 Z M 664.160156 304.1875 " fill-opacity="1" fill-rule="evenodd"/><path fill="rgb(96.469116%, 96.469116%, 96.469116%)" d="M 749.179688 320.121094 C 745.3125 324.851562 741.996094 329.941406 739.234375 335.390625 C 736.472656 340.84375 734.328125 346.527344 732.796875 352.441406 C 729.679688 371.609375 736.363281 397.019531 746.171875 405.378906 C 752.746094 410.839844 753.191406 410.839844 749.625 402.59375 C 744.832031 390.332031 741.265625 351.550781 745.722656 356.121094 C 748.386719 360.4375 749.984375 365.117188 750.515625 370.160156 C 752.746094 384.761719 761.660156 405.265625 765.667969 405.265625 C 767.453125 405.265625 771.796875 397.019531 774.472656 386.988281 C 775.589844 383.980469 776.398438 380.886719 776.890625 377.714844 C 777.382812 374.539062 777.550781 371.347656 777.398438 368.140625 C 777.246094 364.933594 776.773438 361.773438 775.980469 358.660156 C 775.1875 355.546875 774.089844 352.546875 772.691406 349.65625 C 768.851562 338.773438 766.066406 327.628906 764.332031 316.222656 L 762.996094 302.515625 Z M 749.179688 320.121094 " fill-opacity="1" fill-rule="evenodd"/><path fill="rgb(96.469116%, 96.469116%, 96.469116%)" d="M 938.9375 310.539062 C 927.015625 317.335938 910.191406 343.972656 913.3125 351.996094 C 914.648438 355.671875 915.539062 355.226562 915.539062 351.996094 C 915.539062 345.199219 947.851562 327.8125 958.996094 328.257812 C 964.234375 328.257812 962.003906 331.042969 953.203125 334.722656 C 938.160156 341.519531 919.773438 361.582031 919.773438 371.609375 C 919.773438 381.640625 947.742188 379.855469 963.230469 371.609375 C 970.648438 367.4375 977.296875 362.273438 983.175781 356.121094 C 991.078125 348.984375 999.882812 343.226562 1009.585938 338.84375 C 1019.390625 334.277344 1027.300781 329.261719 1027.300781 327.699219 C 1024.097656 324.742188 1020.613281 322.15625 1016.859375 319.9375 C 1013.101562 317.722656 1009.15625 315.925781 1005.015625 314.550781 C 980.277344 303.292969 953.871094 301.847656 938.9375 310.539062 Z M 938.9375 310.539062 " fill-opacity="1" fill-rule="evenodd"/><path fill="rgb(96.469116%, 96.469116%, 96.469116%)" d="M 464.148438 353.777344 C 464.257812 354.851562 464.417969 355.914062 464.625 356.96875 C 464.832031 358.027344 465.085938 359.074219 465.382812 360.105469 C 465.683594 361.140625 466.03125 362.160156 466.421875 363.164062 C 466.8125 364.167969 467.246094 365.152344 467.722656 366.117188 C 468.203125 367.078125 468.722656 368.019531 469.285156 368.941406 C 469.847656 369.859375 470.449219 370.75 471.089844 371.613281 C 471.734375 372.476562 472.414062 373.3125 473.128906 374.117188 C 473.84375 374.921875 474.59375 375.691406 475.378906 376.425781 C 476.164062 377.164062 476.980469 377.863281 477.828125 378.527344 C 478.675781 379.195312 479.550781 379.820312 480.453125 380.40625 C 481.359375 380.992188 482.285156 381.535156 483.238281 382.039062 C 484.1875 382.542969 485.160156 383.003906 486.152344 383.417969 C 487.148438 383.835938 488.15625 384.207031 489.183594 384.535156 C 490.207031 384.859375 491.246094 385.140625 492.296875 385.375 C 493.347656 385.609375 494.40625 385.796875 495.476562 385.933594 C 496.542969 386.074219 497.613281 386.164062 498.691406 386.210938 C 508.941406 386.210938 509.832031 386.210938 501.363281 382.085938 C 498.320312 380.789062 495.484375 379.128906 492.859375 377.109375 C 490.238281 375.089844 487.910156 372.773438 485.875 370.160156 C 479.636719 362.804688 480.082031 362.804688 488.996094 367.375 C 491.910156 369.027344 494.976562 370.3125 498.199219 371.238281 C 501.417969 372.160156 504.703125 372.691406 508.050781 372.835938 C 515.960938 372.835938 516.40625 371.5 512.507812 363.699219 C 508.605469 355.898438 490.222656 344.195312 472.171875 339.179688 C 460.582031 336.726562 460.136719 336.726562 464.148438 353.777344 Z M 464.148438 353.777344 " fill-opacity="1" fill-rule="evenodd"/><path fill="rgb(96.469116%, 96.469116%, 96.469116%)" d="M 540.363281 348.875 C 539.144531 353.9375 538.285156 359.0625 537.78125 364.242188 C 537.28125 369.425781 537.140625 374.621094 537.367188 379.824219 C 537.59375 385.023438 538.183594 390.1875 539.132812 395.304688 C 540.082031 400.425781 541.382812 405.457031 543.039062 410.394531 C 549.277344 422.207031 569.222656 434.910156 574.125 429.894531 C 575.464844 428.113281 571.453125 422.207031 564.765625 416.300781 C 561.929688 414.171875 559.480469 411.660156 557.429688 408.769531 C 555.375 405.875 553.808594 402.742188 552.730469 399.359375 C 552.730469 395.347656 554.515625 395.347656 558.414062 400.363281 C 562.550781 405.257812 567.210938 409.585938 572.390625 413.355469 C 577.574219 417.125 583.128906 420.222656 589.058594 422.652344 C 594.40625 422.652344 593.515625 405.378906 587.71875 393.898438 C 580.222656 382.800781 571.941406 372.324219 562.871094 362.472656 C 546.605469 345.199219 542.59375 342.410156 540.363281 348.875 Z M 540.363281 348.875 " fill-opacity="1" fill-rule="evenodd"/><path fill="rgb(96.469116%, 96.469116%, 96.469116%)" d="M 867.179688 346.535156 C 867.179688 356.121094 831.746094 400.363281 814.363281 412.175781 C 782.496094 433.574219 740.820312 507.015625 729.234375 561.175781 C 726.222656 575.777344 722.660156 585.808594 720.875 583.464844 C 716.386719 568.925781 713.5625 554.066406 712.40625 538.886719 C 711.347656 528.261719 709.441406 517.789062 706.695312 507.46875 C 703.949219 497.152344 700.390625 487.117188 696.027344 477.371094 C 689.34375 465.113281 685.777344 460.988281 687.558594 467.785156 C 701.375 528.859375 701.375 553.488281 687.558594 527.074219 C 682.3125 517.3125 676.222656 508.101562 669.296875 499.449219 C 662.367188 490.796875 654.710938 482.84375 646.332031 475.589844 C 643.210938 473.695312 645.441406 479.152344 651.679688 488.738281 C 657.078125 496.109375 661.917969 503.832031 666.199219 511.902344 C 670.480469 519.972656 674.15625 528.3125 677.230469 536.914062 C 680.308594 545.519531 682.746094 554.300781 684.550781 563.257812 C 686.355469 572.210938 687.507812 581.253906 688.003906 590.375 C 689.625 602.710938 689.625 615.042969 688.003906 627.375 C 676.800781 623.320312 665.878906 618.601562 655.246094 613.222656 C 638.417969 605.421875 619.367188 597.285156 611.789062 594.945312 C 599.421875 591.265625 598.972656 591.824219 607.332031 597.730469 C 612.8125 601.578125 617.976562 605.8125 622.820312 610.4375 C 627.71875 614.796875 633.066406 618.511719 638.867188 621.582031 C 642.886719 624.777344 646.503906 628.378906 649.71875 632.386719 C 652.933594 636.390625 655.667969 640.703125 657.917969 645.316406 C 666.277344 662.144531 665.386719 669.054688 655.691406 659.027344 C 645.914062 654.785156 635.699219 652.484375 625.046875 652.117188 C 610.453125 650.777344 601.539062 651.226562 605.101562 653.121094 C 617.078125 660.355469 628.417969 668.476562 639.121094 677.484375 C 649.828125 686.492188 659.773438 696.277344 668.949219 706.835938 C 677.421875 719.796875 683.625 733.761719 687.558594 748.738281 C 689.035156 752.980469 690.1875 757.304688 691.011719 761.71875 C 691.832031 766.132812 692.320312 770.585938 692.472656 775.070312 C 692.621094 779.558594 692.4375 784.03125 691.910156 788.492188 C 691.386719 792.949219 690.53125 797.34375 689.34375 801.675781 C 688.273438 808.035156 686.621094 814.242188 684.394531 820.292969 C 682.164062 826.34375 679.394531 832.136719 676.082031 837.671875 C 668.503906 847.703125 668.503906 848.816406 675.191406 856.839844 C 681.875 864.863281 682.769531 865.421875 670.734375 856.839844 C 664.046875 852.269531 658.363281 846.808594 658.363281 844.914062 C 658.363281 843.019531 611.34375 813.933594 576.800781 796.660156 C 519.082031 767.90625 430.386719 759.773438 365.089844 777.046875 C 334.890625 785.292969 246.195312 824.855469 246.195312 830.429688 C 246.195312 831.765625 247.53125 831.765625 249.761719 830.429688 C 251.988281 829.089844 264.804688 822.625 279.511719 815.828125 C 359.292969 778.382812 412.445312 767.460938 474.957031 776.601562 C 540.585938 786.183594 617.359375 822.625 659.925781 864.53125 C 672.738281 877.347656 678.980469 884.589844 674.078125 881.46875 C 669.308594 878.171875 664.886719 874.457031 660.816406 870.324219 C 630.175781 836.890625 555.296875 805.128906 489.21875 797.328125 C 442.195312 791.867188 371.21875 807.804688 280.402344 843.800781 C 270.363281 846.90625 261.039062 851.472656 252.4375 857.507812 C 264.238281 855.132812 275.605469 851.417969 286.53125 846.363281 C 358.847656 817.164062 404.089844 807.136719 459.023438 807.136719 C 474.160156 806.199219 489.238281 806.8125 504.25 808.96875 C 519.261719 811.128906 533.902344 814.789062 548.164062 819.953125 C 565.597656 825.34375 582.609375 831.84375 599.199219 839.453125 C 621.339844 852.695312 641.136719 868.816406 658.589844 887.820312 C 662.152344 892.835938 653.683594 887.820312 640.425781 876.675781 C 588.5 833.324219 534.902344 819.617188 445.761719 827.863281 C 408.546875 831.097656 394.726562 834.664062 346.816406 855.167969 C 327.949219 862.175781 309.785156 870.679688 292.328125 880.6875 C 308.09375 876.363281 323.324219 870.605469 338.011719 863.414062 C 359.578125 853.839844 381.601562 845.484375 404.089844 838.339844 C 434.171875 829.648438 521.976562 830.203125 548.945312 838.339844 C 571.230469 845.25 622.929688 872.554688 622.929688 877.570312 C 628.007812 883.730469 633.949219 888.894531 640.757812 893.058594 C 663.046875 908.550781 661.597656 911.78125 638.085938 900.304688 C 578.25 870.769531 548.945312 863.414062 498.800781 863.859375 L 461.140625 864.753906 L 498.800781 867.984375 C 516.152344 868.980469 533.261719 871.585938 550.125 875.800781 C 566.984375 880.019531 583.304688 885.769531 599.085938 893.058594 C 604.519531 896.152344 610.273438 898.417969 616.355469 899.859375 C 622.769531 902.269531 628.527344 905.761719 633.628906 910.332031 L 646.441406 921.476562 L 589.28125 924.152344 C 557.746094 925.9375 456.683594 927.382812 364.976562 927.382812 C 273.273438 927.382812 197.277344 930.839844 196.164062 932.621094 C 195.050781 934.40625 316.285156 938.195312 465.707031 939.53125 C 766.5625 943.097656 1275.339844 938.640625 1275.339844 932.621094 C 1275.339844 930.839844 1197.339844 928.609375 1101.511719 928.609375 C 1005.683594 928.609375 900.941406 926.714844 869.632812 924.933594 L 811.914062 922.148438 L 824.835938 913.121094 C 857.152344 890.832031 908.632812 874.335938 960.445312 869.769531 L 998.441406 866.535156 L 962.894531 866.535156 C 953.550781 866.242188 944.214844 866.453125 934.894531 867.171875 C 925.570312 867.890625 916.316406 869.113281 907.125 870.835938 C 897.933594 872.5625 888.863281 874.777344 879.914062 877.484375 C 870.964844 880.195312 862.191406 883.378906 853.585938 887.042969 C 845.886719 891.441406 837.75 894.78125 829.183594 897.070312 C 822.011719 899.738281 815.660156 903.714844 810.128906 908.996094 C 802.550781 915.792969 795.421875 920.140625 794.082031 919.027344 C 789.738281 914.011719 856.148438 863.304688 884.5625 850.152344 C 912.976562 837.003906 919.550781 836 969.246094 834.21875 C 1028.636719 831.988281 1056.605469 836 1100.0625 854.277344 C 1108.980469 858.566406 1118.304688 861.609375 1128.03125 863.414062 C 1117.34375 856.460938 1105.941406 851 1093.824219 847.03125 C 1080.996094 842.558594 1067.964844 838.808594 1054.722656 835.78125 C 1041.480469 832.757812 1028.109375 830.476562 1014.613281 828.941406 C 1001.117188 827.402344 987.578125 826.617188 973.996094 826.585938 C 960.414062 826.558594 946.871094 827.28125 933.367188 828.757812 C 927.992188 829.1875 922.648438 829.839844 917.328125 830.71875 C 912.007812 831.59375 906.734375 832.691406 901.503906 834.007812 C 896.277344 835.324219 891.113281 836.859375 886.011719 838.609375 C 880.914062 840.355469 875.894531 842.316406 870.957031 844.484375 C 866.023438 846.652344 861.183594 849.023438 856.445312 851.59375 C 851.707031 854.164062 847.085938 856.929688 842.578125 859.890625 C 838.070312 862.847656 833.691406 865.988281 829.445312 869.3125 C 825.203125 872.636719 821.101562 876.132812 817.148438 879.796875 C 810.640625 886.507812 803.210938 891.96875 794.863281 896.179688 C 791.742188 893.503906 845.007812 849.707031 861.71875 840.457031 C 869.296875 836.890625 891.917969 828.199219 912.753906 820.953125 C 927.128906 816.730469 941.722656 813.5 956.539062 811.265625 C 971.355469 809.035156 986.253906 807.820312 1001.234375 807.621094 C 1016.214844 807.425781 1031.140625 808.246094 1046.007812 810.085938 C 1060.878906 811.925781 1075.554688 814.769531 1090.035156 818.613281 C 1141.515625 834.550781 1149.980469 834.550781 1106.082031 818.613281 C 1097.925781 815.484375 1089.648438 812.707031 1081.257812 810.289062 C 1072.863281 807.867188 1064.378906 805.816406 1055.808594 804.128906 C 1047.238281 802.4375 1038.609375 801.121094 1029.925781 800.175781 C 1021.238281 799.234375 1012.53125 798.664062 1003.796875 798.46875 C 995.0625 798.273438 986.335938 798.457031 977.621094 799.015625 C 968.902344 799.570312 960.222656 800.503906 951.585938 801.808594 C 942.949219 803.113281 934.382812 804.789062 925.890625 806.832031 C 917.394531 808.875 909.007812 811.277344 900.71875 814.046875 C 886.570312 819.507812 869.742188 825.191406 863.503906 827.753906 C 842.664062 834.105469 816.480469 854.164062 781.492188 890.164062 C 762.4375 909.777344 750.851562 919.359375 756.199219 912.449219 C 775.585938 882.808594 822.386719 843.355469 864.730469 820.0625 C 926.347656 786.628906 963.117188 776.824219 1026.519531 776.824219 C 1071.761719 776.824219 1082.234375 778.605469 1118.335938 791.421875 C 1140.140625 798.796875 1161.421875 807.453125 1182.183594 817.390625 C 1185.851562 819.902344 1189.742188 822.003906 1193.855469 823.695312 C 1197.96875 825.382812 1202.210938 826.625 1206.585938 827.417969 C 1210.597656 823.296875 1128.589844 787.296875 1095.160156 778.605469 C 1027.300781 760.886719 936.488281 769.023438 880.550781 798.21875 C 829.183594 825.078125 813.695312 834.664062 793.191406 852.492188 C 781.269531 862.96875 775.921875 866.089844 782.050781 859.292969 L 793.191406 847.03125 L 777.703125 830.539062 L 762.660156 814.601562 L 764.445312 767.238281 C 765.78125 695.246094 788.847656 609.097656 816.703125 571.652344 C 826.539062 560.644531 837.375 550.734375 849.214844 541.914062 C 861.050781 533.09375 873.652344 525.546875 887.015625 519.273438 C 898.15625 514.707031 897.152344 514.707031 873.753906 516.601562 C 845.785156 519.273438 796.980469 543.011719 781.9375 561.175781 C 774.472656 570.761719 774.472656 570.761719 774.472656 548.472656 C 774.472656 506.011719 805.113281 434.910156 831.746094 416.300781 C 836.25 412.039062 840.457031 407.503906 844.367188 402.695312 C 848.277344 397.882812 851.863281 392.839844 855.117188 387.5625 C 858.371094 382.285156 861.265625 376.820312 863.808594 371.167969 C 866.351562 365.511719 868.515625 359.714844 870.300781 353.777344 C 871.636719 346.980469 871.636719 341.074219 870.300781 341.074219 C 868.960938 341.074219 867.179688 343.304688 867.179688 346.535156 Z M 676.972656 905.097656 C 682.769531 912.339844 682.320312 912.785156 675.636719 906.878906 C 668.949219 900.972656 665.832031 897.292969 669.398438 897.292969 C 672.433594 899.398438 674.957031 902 676.972656 905.097656 Z M 707.058594 917.355469 C 705.832031 918.804688 702.269531 915.125 699.148438 909.664062 C 693.351562 900.082031 693.800781 900.082031 701.375 907.324219 C 705.832031 911.671875 708.730469 916.238281 707.058594 917.132812 Z M 780.710938 915.570312 C 776.253906 920.585938 771.796875 923.820312 770.460938 922.371094 C 769.125 920.921875 771.796875 916.015625 776.253906 911.226562 C 780.710938 906.433594 785.167969 903.089844 786.507812 904.425781 C 787.84375 905.765625 785.167969 910.332031 780.710938 915.347656 Z M 780.710938 915.570312 " fill-opacity="1" fill-rule="evenodd"/><path fill="rgb(96.469116%, 96.469116%, 96.469116%)" d="M 623.265625 387.992188 C 622.9375 391.085938 622.871094 394.1875 623.070312 397.292969 C 623.269531 400.398438 623.730469 403.46875 624.453125 406.496094 C 625.171875 409.523438 626.144531 412.46875 627.367188 415.328125 C 628.589844 418.191406 630.046875 420.929688 631.734375 423.542969 L 639.757812 434.019531 L 642.765625 423.988281 C 643.542969 420.765625 643.933594 417.496094 643.933594 414.183594 C 643.933594 410.867188 643.542969 407.597656 642.765625 404.375 C 640.648438 397.578125 641.09375 395.792969 644.546875 397.578125 C 646.328125 399.761719 647.675781 402.183594 648.59375 404.847656 C 649.515625 407.511719 649.949219 410.25 649.898438 413.066406 C 649.898438 424.878906 649.898438 424.878906 653.90625 415.40625 C 654.210938 414.375 654.46875 413.328125 654.683594 412.273438 C 654.898438 411.21875 655.070312 410.15625 655.195312 409.085938 C 655.324219 408.019531 655.40625 406.945312 655.445312 405.867188 C 655.484375 404.792969 655.476562 403.714844 655.425781 402.640625 C 655.375 401.566406 655.28125 400.492188 655.140625 399.425781 C 655 398.355469 654.816406 397.296875 654.589844 396.242188 C 654.363281 395.191406 654.09375 394.148438 653.777344 393.121094 C 653.464844 392.089844 653.109375 391.074219 652.710938 390.074219 C 652.3125 389.070312 651.875 388.089844 651.394531 387.125 C 650.917969 386.160156 650.398438 385.21875 649.839844 384.296875 C 649.285156 383.375 648.691406 382.476562 648.058594 381.605469 C 647.425781 380.734375 646.761719 379.886719 646.058594 379.070312 C 645.355469 378.253906 644.625 377.46875 643.855469 376.710938 C 643.089844 375.953125 642.292969 375.230469 641.46875 374.542969 C 640.640625 373.851562 639.785156 373.195312 638.90625 372.578125 C 638.023438 371.957031 637.121094 371.375 636.191406 370.832031 L 622.820312 363.027344 Z M 623.265625 387.992188 " fill-opacity="1" fill-rule="evenodd"/><path fill="rgb(96.469116%, 96.469116%, 96.469116%)" d="M 872.527344 398.46875 C 868.070312 407.160156 870.746094 423.097656 876.429688 423.097656 C 881.972656 419.847656 886.96875 415.902344 891.417969 411.265625 C 895.863281 406.625 899.597656 401.46875 902.613281 395.792969 C 902.613281 387.992188 876.875 390.777344 872.527344 398.46875 Z M 872.527344 398.46875 " fill-opacity="1" fill-rule="evenodd"/><path fill="rgb(96.469116%, 96.469116%, 96.469116%)" d="M 968.691406 409.945312 C 933.257812 418.527344 931.027344 419.976562 922.558594 437.25 L 915.539062 450.511719 L 932.8125 450.511719 C 937.332031 450.523438 941.773438 449.941406 946.140625 448.769531 C 950.503906 447.597656 954.640625 445.875 958.550781 443.601562 C 973.148438 432.457031 976.714844 436.359375 962.449219 448.171875 C 959.171875 451.15625 955.53125 453.601562 951.527344 455.5 C 947.519531 457.398438 943.324219 458.671875 938.9375 459.316406 C 933.257812 459.316406 930.136719 461.210938 931.472656 463.886719 C 935.039062 470.238281 957.214844 469.792969 970.917969 462.996094 C 984.625 456.195312 1001.5625 423.320312 999.332031 410.617188 C 998.441406 403.59375 996.660156 403.59375 968.691406 409.945312 Z M 968.691406 409.945312 " fill-opacity="1" fill-rule="evenodd"/><path fill="rgb(96.469116%, 96.469116%, 96.469116%)" d="M 408.769531 408.050781 C 405.203125 411.730469 405.203125 447.28125 408.769531 457.3125 C 410.765625 460.324219 413.113281 463.027344 415.8125 465.425781 C 418.511719 467.824219 421.476562 469.839844 424.703125 471.464844 C 437.070312 478.261719 437.515625 478.261719 433.058594 469.125 C 430.792969 464.546875 427.710938 460.609375 423.8125 457.3125 C 423.144531 456.894531 422.542969 456.40625 421.996094 455.839844 C 421.453125 455.277344 420.988281 454.652344 420.597656 453.972656 C 420.210938 453.292969 419.910156 452.574219 419.699219 451.820312 C 419.488281 451.0625 419.375 450.292969 419.355469 449.511719 C 419.355469 446.390625 425.148438 449.511719 431.722656 456.417969 C 447.769531 472.355469 452.113281 471.910156 448.660156 454.523438 C 444.203125 430.898438 417.125 399.359375 408.769531 408.050781 Z M 408.769531 408.050781 " fill-opacity="1" fill-rule="evenodd"/><path fill="rgb(96.469116%, 96.469116%, 96.469116%)" d="M 476.960938 414.738281 C 479.257812 423.988281 482.226562 433.015625 485.875 441.820312 C 492.5625 457.3125 498.691406 465 505.820312 466.894531 C 523.984375 471.464844 528.105469 466.003906 512.953125 457.757812 C 493.789062 447.726562 496.460938 444.496094 517.742188 451.40625 C 539.027344 458.3125 543.039062 453.1875 528.886719 438.144531 C 516.40625 425.882812 476.960938 407.605469 476.960938 414.738281 Z M 476.960938 414.738281 " fill-opacity="1" fill-rule="evenodd"/><path fill="rgb(96.469116%, 96.469116%, 96.469116%)" d="M 723.996094 427.222656 C 715.082031 443.15625 714.191406 465.445312 722.214844 472.800781 C 727.003906 476.480469 727.894531 474.585938 726.671875 462.773438 L 724.886719 448.171875 L 731.90625 463.664062 C 741.265625 484.613281 744.832031 478.707031 741.265625 449.511719 C 737.253906 416.300781 733.246094 411.285156 723.996094 427.222656 Z M 723.996094 427.222656 " fill-opacity="1" fill-rule="evenodd"/><path fill="rgb(96.469116%, 96.469116%, 96.469116%)" d="M 858.265625 451.851562 C 818.820312 465.445312 802.550781 486.0625 835.980469 480.492188 C 856.371094 477.371094 859.046875 480.492188 841.773438 487.847656 C 830.632812 492.417969 830.632812 493.308594 838.65625 494.644531 C 860.941406 498.769531 887.90625 472.355469 883.894531 451.40625 C 882.667969 444.050781 880.886719 444.050781 858.265625 451.851562 Z M 858.265625 451.851562 " fill-opacity="1" fill-rule="evenodd"/><path fill="rgb(96.469116%, 96.469116%, 96.469116%)" d="M 1060.507812 449.511719 C 1057.695312 451.488281 1054.671875 453.0625 1051.441406 454.234375 C 1048.207031 455.40625 1044.878906 456.136719 1041.453125 456.417969 C 1021.953125 459.984375 1003.234375 471.910156 1007.242188 478.707031 C 1009.027344 481.496094 1016.605469 481.941406 1025.40625 480.046875 C 1036.550781 478.261719 1040.113281 478.707031 1037.886719 481.941406 C 1037.203125 482.746094 1036.4375 483.464844 1035.59375 484.097656 C 1034.746094 484.734375 1033.84375 485.269531 1032.878906 485.703125 C 1031.914062 486.136719 1030.917969 486.457031 1029.882812 486.667969 C 1028.847656 486.882812 1027.800781 486.976562 1026.742188 486.957031 C 1022.398438 486.957031 1018.386719 488.738281 1018.386719 491.523438 C 1018.386719 499.214844 1038.777344 496.539062 1050.699219 486.957031 C 1054.148438 483.839844 1057.085938 480.304688 1059.515625 476.339844 C 1061.941406 472.375 1063.757812 468.152344 1064.964844 463.664062 C 1067.527344 449.511719 1065.296875 441.820312 1060.507812 449.511719 Z M 1060.507812 449.511719 " fill-opacity="1" fill-rule="evenodd"/><path fill="rgb(96.469116%, 96.469116%, 96.469116%)" d="M 564.765625 463.21875 L 552.730469 471.464844 L 573.570312 481.496094 C 583.503906 486.53125 593.976562 489.875 604.992188 491.523438 C 615.242188 491.523438 616.132812 491.523438 607.664062 482.386719 C 605.710938 480.054688 603.449219 478.070312 600.882812 476.433594 C 598.316406 474.800781 595.5625 473.589844 592.625 472.800781 C 588.167969 472.800781 587.71875 471.464844 590.839844 470.460938 C 593.535156 469.992188 596.21875 470.035156 598.894531 470.59375 C 601.570312 471.152344 604.046875 472.183594 606.328125 473.695312 L 616.578125 479.152344 L 605.4375 466.894531 C 593.179688 453.1875 581.59375 451.851562 564.765625 463.21875 Z M 564.765625 463.21875 " fill-opacity="1" fill-rule="evenodd"/><path fill="rgb(96.469116%, 96.469116%, 96.469116%)" d="M 938.160156 499.214844 C 923.003906 506.570312 923.003906 507.015625 933.703125 508.351562 C 955.988281 511.585938 978.273438 519.496094 978.273438 523.84375 C 978.273438 526.519531 974.261719 527.074219 968.46875 525.179688 C 961.347656 523.289062 954.105469 522.339844 946.738281 522.339844 C 939.371094 522.339844 932.128906 523.289062 925.011719 525.179688 C 917.546875 527.519531 917.097656 529.304688 921.890625 537.105469 C 929.023438 549.363281 952.535156 559.394531 984.847656 563.964844 C 996.800781 565.140625 1008.503906 567.554688 1019.945312 571.207031 C 1026.964844 573.992188 1027.414062 573.101562 1024.738281 563.964844 C 1020.644531 553.308594 1015.59375 543.132812 1009.585938 533.429688 C 989.082031 497.878906 965.011719 486.0625 938.160156 499.214844 Z M 938.160156 499.214844 " fill-opacity="1" fill-rule="evenodd"/><path fill="rgb(96.469116%, 96.469116%, 96.469116%)" d="M 445.09375 499.214844 C 433.949219 502 434.84375 505.566406 449.550781 519.273438 C 456.171875 526.042969 462.375 533.175781 468.160156 540.671875 C 469.769531 542.375 471.507812 543.9375 473.375 545.355469 C 475.242188 546.773438 477.214844 548.023438 479.292969 549.117188 C 481.367188 550.207031 483.519531 551.117188 485.746094 551.851562 C 487.972656 552.585938 490.246094 553.128906 492.5625 553.488281 C 509.832031 556.609375 510.277344 556.164062 502.703125 547.582031 C 500.773438 545.609375 499.128906 543.425781 497.769531 541.027344 C 496.410156 538.628906 495.378906 536.09375 494.679688 533.429688 C 494.679688 530.640625 490.332031 525.179688 484.984375 521.613281 C 479.636719 518.046875 477.40625 514.257812 480.527344 514.257812 C 484.191406 515.871094 487.601562 517.914062 490.75 520.386719 C 493.902344 522.859375 496.695312 525.683594 499.136719 528.859375 L 512.507812 543.902344 L 508.160156 530.195312 C 497.019531 500.550781 476.960938 490.523438 445.09375 499.214844 Z M 445.09375 499.214844 " fill-opacity="1" fill-rule="evenodd"/><path fill="rgb(96.469116%, 96.469116%, 96.469116%)" d="M 525.765625 508.351562 C 525.765625 536.101562 540.808594 559.394531 559.195312 559.394531 C 567.21875 559.394531 566.773438 559.394531 557.078125 553.042969 L 545.933594 546.132812 L 560.53125 548.917969 C 570.785156 551.148438 574.792969 550.257812 574.792969 545.6875 C 574.792969 536.101562 569.445312 529.304688 552.507812 517.9375 C 526.210938 499.660156 525.765625 499.660156 525.765625 508.351562 Z M 525.765625 508.351562 " fill-opacity="1" fill-rule="evenodd"/><path fill="rgb(96.469116%, 96.469116%, 96.469116%)" d="M 598.082031 517.046875 L 586.941406 529.304688 L 608.222656 537.550781 C 628.613281 545.242188 650.34375 545.242188 650.34375 537.550781 C 650.34375 535.210938 643.210938 531.085938 635.300781 527.96875 C 627.386719 524.847656 620.703125 520.613281 621.929688 518.828125 C 623.152344 517.046875 629.503906 517.046875 636.191406 518.828125 L 648.113281 523.398438 L 636.972656 514.257812 C 623.265625 502 611.789062 502.890625 598.082031 517.046875 Z M 598.082031 517.046875 " fill-opacity="1" fill-rule="evenodd"/><path fill="rgb(96.469116%, 96.469116%, 96.469116%)" d="M 875.871094 560.285156 C 875.871094 568.980469 893.699219 595.835938 903.839844 603.191406 C 909.1875 606.757812 910.972656 609.992188 907.40625 609.992188 C 903.3125 608.15625 899.46875 605.890625 895.878906 603.203125 C 892.289062 600.515625 889.035156 597.464844 886.121094 594.054688 L 870.632812 578.117188 L 873.753906 590.375 C 874.980469 594.921875 876.753906 599.242188 879.074219 603.335938 C 881.394531 607.429688 884.191406 611.171875 887.460938 614.558594 C 896.707031 624.144531 902.058594 625.703125 922.894531 625.703125 C 953.980469 624.8125 960.109375 619.351562 944.175781 606.089844 C 936.1875 599.058594 929.429688 590.996094 923.894531 581.90625 C 913.3125 563.964844 875.871094 547.136719 875.871094 560.285156 Z M 875.871094 560.285156 " fill-opacity="1" fill-rule="evenodd"/><path fill="rgb(96.469116%, 96.469116%, 96.469116%)" d="M 431.277344 568.085938 C 423.363281 577.113281 408.992188 609.992188 411.777344 612.664062 C 420.699219 611.941406 429.28125 609.820312 437.515625 606.3125 C 440.441406 605.609375 443.285156 604.65625 446.039062 603.449219 C 448.796875 602.242188 451.425781 600.804688 453.925781 599.128906 C 456.425781 597.457031 458.757812 595.574219 460.925781 593.488281 C 463.089844 591.398438 465.058594 589.136719 466.820312 586.699219 C 471.722656 577.113281 471.277344 575.554688 463.703125 574.441406 C 460.5625 574.183594 457.449219 574.371094 454.359375 574.996094 C 451.273438 575.621094 448.332031 576.660156 445.539062 578.117188 C 437.960938 582.128906 436.625 582.128906 437.960938 578.117188 C 439.300781 574.105469 446.875 569.871094 455.234375 566.972656 L 470.386719 561.511719 L 454.34375 561.511719 C 452.296875 561.210938 450.242188 561.128906 448.179688 561.265625 C 446.117188 561.402344 444.089844 561.753906 442.101562 562.320312 C 440.113281 562.886719 438.207031 563.65625 436.382812 564.628906 C 434.558594 565.601562 432.855469 566.753906 431.277344 568.085938 Z M 431.277344 568.085938 " fill-opacity="1" fill-rule="evenodd"/><path fill="rgb(96.469116%, 96.469116%, 96.469116%)" d="M 489.886719 596.726562 C 484.542969 601.921875 480.234375 607.863281 476.960938 614.558594 C 476.960938 619.574219 530.667969 625.035156 540.363281 620.910156 C 553.289062 615.898438 546.605469 608.207031 525.765625 602.636719 C 511.617188 599.070312 508.496094 597.175781 514.625 594.945312 C 517.824219 594.148438 521.074219 593.753906 524.375 593.753906 C 527.671875 593.753906 530.921875 594.148438 534.125 594.945312 L 546.046875 597.175781 L 534.902344 590.375 C 517.296875 579.007812 504.039062 581.238281 489.886719 596.726562 Z M 489.886719 596.726562 " fill-opacity="1" fill-rule="evenodd"/><path fill="rgb(96.469116%, 96.469116%, 96.469116%)" d="M 827.289062 605.421875 C 828.449219 608.503906 829.972656 611.394531 831.855469 614.089844 C 833.742188 616.789062 835.933594 619.210938 838.433594 621.359375 C 845.117188 627.710938 848.238281 632.503906 846.007812 632.503906 C 843.957031 632.003906 842.046875 631.171875 840.285156 630.003906 C 838.523438 628.835938 837.015625 627.402344 835.757812 625.703125 C 834.519531 624.007812 833.03125 622.578125 831.289062 621.410156 C 829.542969 620.242188 827.65625 619.40625 825.617188 618.90625 C 822.941406 618.90625 826.507812 624.8125 833.527344 632.503906 C 846.898438 647.101562 861.496094 649.886719 875.203125 640.75 C 883.226562 635.734375 882.335938 633.949219 861.050781 618.460938 C 839.769531 602.96875 827.289062 596.726562 827.289062 605.421875 Z M 827.289062 605.421875 " fill-opacity="1" fill-rule="evenodd"/><path fill="rgb(96.469116%, 96.469116%, 96.469116%)" d="M 498.691406 635.957031 C 494.550781 638.339844 490.722656 641.148438 487.207031 644.382812 C 483.691406 647.617188 480.574219 651.199219 477.851562 655.125 L 464.148438 672.84375 L 476.070312 675.183594 C 492.5625 678.304688 512.0625 666.9375 512.507812 653.789062 C 512.507812 651.449219 508.496094 653.230469 503.59375 657.800781 C 492.449219 667.828125 492.449219 663.816406 501.808594 648.214844 C 509.832031 635.957031 509.386719 633.726562 498.691406 635.957031 Z M 498.691406 635.957031 " fill-opacity="1" fill-rule="evenodd"/><path fill="rgb(96.469116%, 96.469116%, 96.469116%)" d="M 543.484375 651 L 529.777344 668.722656 L 539.917969 671.507812 C 554.179688 675.183594 574.570312 666.9375 574.570312 657.355469 C 574.570312 651 573.234375 651 567.886719 655.570312 C 562.539062 660.140625 559.863281 660.140625 558.082031 658.246094 C 556.296875 656.351562 557.300781 655.570312 559.863281 655.570312 C 562.425781 655.570312 566.550781 650.554688 569.222656 644.425781 C 577.691406 625.035156 559.863281 629.605469 543.484375 651 Z M 543.484375 651 " fill-opacity="1" fill-rule="evenodd"/><path fill="rgb(96.469116%, 96.469116%, 96.469116%)" d="M 910.191406 658.804688 C 898.15625 661.921875 903.058594 669.949219 920.332031 676.078125 C 928.800781 679.308594 933.257812 682.429688 930.582031 684.324219 C 929.238281 684.75 927.863281 685.039062 926.460938 685.191406 C 925.058594 685.347656 923.652344 685.359375 922.246094 685.238281 C 920.84375 685.113281 919.460938 684.851562 918.109375 684.453125 C 916.753906 684.054688 915.453125 683.53125 914.203125 682.875 C 896.820312 676.523438 900.386719 682.875 918.101562 689.785156 C 920.058594 690.949219 922.121094 691.878906 924.285156 692.574219 C 926.453125 693.273438 928.671875 693.71875 930.9375 693.910156 C 933.207031 694.101562 935.46875 694.039062 937.722656 693.71875 C 939.972656 693.398438 942.164062 692.832031 944.289062 692.011719 C 957.660156 687 967.796875 669.726562 959.441406 667.382812 C 956.320312 666.492188 946.960938 663.261719 938.605469 660.585938 C 932.789062 658.566406 926.847656 657.042969 920.777344 656.015625 C 919.4375 656.460938 914.648438 657.355469 910.191406 658.804688 Z M 910.191406 658.804688 " fill-opacity="1" fill-rule="evenodd"/><path fill="rgb(96.469116%, 96.469116%, 96.469116%)" d="M 832.636719 676.96875 C 828.179688 678.75 828.179688 680.644531 832.636719 685.660156 C 837.09375 690.675781 836.089844 692.011719 834.308594 692.011719 C 832.527344 692.011719 833.417969 695.246094 836.539062 698.8125 C 837.773438 699.796875 839.078125 700.6875 840.453125 701.476562 C 841.824219 702.261719 843.25 702.945312 844.722656 703.515625 C 846.199219 704.085938 847.710938 704.542969 849.257812 704.886719 C 850.800781 705.226562 852.363281 705.449219 853.945312 705.554688 C 855.523438 705.660156 857.101562 705.640625 858.675781 705.507812 C 860.253906 705.371094 861.8125 705.113281 863.351562 704.742188 C 864.886719 704.367188 866.390625 703.882812 867.851562 703.277344 C 869.316406 702.675781 870.726562 701.96875 872.082031 701.152344 C 875.648438 698.8125 877.320312 696.136719 876.429688 695.246094 C 865 687.355469 853.039062 680.371094 840.550781 674.292969 C 837.808594 674.882812 835.171875 675.773438 832.636719 676.96875 Z M 832.636719 676.96875 " fill-opacity="1" fill-rule="evenodd"/><path fill="rgb(96.469116%, 96.469116%, 96.469116%)" d="M 1236.894531 840.125 C 1245.84375 844.40625 1255.167969 847.601562 1264.863281 849.707031 C 1267.09375 847.480469 1223.636719 828.757812 1216.503906 828.757812 C 1213.496094 828.757812 1222.746094 833.769531 1236.894531 840.125 Z M 1236.894531 840.125 " fill-opacity="1" fill-rule="evenodd"/><path fill="rgb(96.469116%, 96.469116%, 96.469116%)" d="M 1146.972656 835.109375 C 1170.546875 846.703125 1194.914062 856.289062 1220.070312 863.859375 C 1209.972656 857.261719 1199.238281 851.953125 1187.867188 847.925781 C 1155.332031 834.664062 1142.070312 830.09375 1146.972656 835.109375 Z M 1146.972656 835.109375 " fill-opacity="1" fill-rule="evenodd"/><path fill="rgb(96.469116%, 96.469116%, 96.469116%)" d="M 210.984375 842.464844 C 206.972656 845.136719 206.527344 847.03125 209.648438 847.03125 C 211.253906 846.886719 212.753906 846.414062 214.15625 845.617188 C 215.554688 844.820312 216.726562 843.769531 217.671875 842.464844 C 221.125 837.003906 219.339844 837.003906 210.984375 842.464844 Z M 210.984375 842.464844 " fill-opacity="1" fill-rule="evenodd"/><path fill="rgb(96.469116%, 96.469116%, 96.469116%)" d="M 191.039062 851.492188 C 189.703125 854.277344 191.039062 854.722656 195.050781 853.386719 C 202.960938 850.152344 204.300781 847.03125 198.058594 847.03125 C 197.332031 847.070312 196.621094 847.199219 195.925781 847.421875 C 195.234375 847.644531 194.578125 847.949219 193.964844 848.339844 C 193.347656 848.730469 192.792969 849.191406 192.296875 849.726562 C 191.804688 850.261719 191.382812 850.847656 191.039062 851.492188 Z M 191.039062 851.492188 " fill-opacity="1" fill-rule="evenodd"/><path fill="rgb(96.469116%, 96.469116%, 96.469116%)" d="M 1142.070312 871.664062 C 1146.875 874.652344 1152.039062 876.769531 1157.558594 878.015625 C 1160.234375 878.015625 1157.558594 875.230469 1150.875 871.664062 C 1146.125 868.519531 1140.960938 866.363281 1135.386719 865.199219 C 1133.15625 865.644531 1135.832031 868.429688 1142.070312 871.664062 Z M 1142.070312 871.664062 " fill-opacity="1" fill-rule="evenodd"/><path fill="rgb(96.469116%, 96.469116%, 96.469116%)" d="M 442.863281 873 C 447.285156 873.894531 451.703125 873.894531 456.125 873 C 458.800781 871.550781 456.125 870.660156 448.214844 870.660156 C 440.300781 870.660156 438.40625 871.664062 442.863281 873 Z M 442.863281 873 " fill-opacity="1" fill-rule="evenodd"/><path fill="rgb(96.469116%, 96.469116%, 96.469116%)" d="M 1003.679688 873 C 1007.394531 873.90625 1011.105469 873.90625 1014.820312 873 C 1017.496094 871.550781 1014.820312 870.660156 1009.027344 870.660156 C 1003.234375 870.660156 1000.667969 871.664062 1003.679688 873 Z M 1003.679688 873 " fill-opacity="1" fill-rule="evenodd"/><g clip-path="url(#id2)"><path fill="rgb(96.469116%, 96.469116%, 96.469116%)" d="M 350.824219 949.671875 L 107.023438 952.792969 L 244.523438 956.804688 C 407.652344 962.378906 1156 960.929688 1279.796875 955.914062 C 1363.144531 952.347656 1360.023438 951.789062 1199.457031 951.34375 C 1107.75 951.34375 934.371094 949.5625 813.804688 949.117188 C 693.242188 948.671875 485.207031 948.671875 350.824219 949.671875 Z M 350.824219 949.671875 " fill-opacity="1" fill-rule="evenodd"/></g><g fill="rgb(96.469116%, 96.469116%, 96.469116%)" fill-opacity="1"><g transform="translate(537.314426, 1090.910388)"><g><path d="M 0 -94.019531 L 0.386719 -57.652344 C 0.515625 -45.527344 0.644531 -33.273438 0.773438 -21.152344 C 0.902344 -14.316406 1.03125 -7.480469 1.03125 -0.644531 C 1.03125 0.773438 1.675781 2.191406 2.578125 3.09375 C 3.609375 4.128906 5.03125 4.773438 6.449219 4.644531 C 9.285156 4.515625 11.738281 2.320312 11.738281 -0.644531 C 11.609375 -12.769531 11.480469 -24.890625 11.347656 -37.015625 C 11.21875 -43.722656 11.21875 -50.429688 11.089844 -57.132812 C 19.347656 -40.496094 27.34375 -23.601562 34.304688 -6.320312 C 34.695312 -5.546875 35.082031 -4.644531 35.46875 -3.871094 C 35.597656 -3.09375 35.855469 -2.578125 36.371094 -2.0625 C 36.757812 -1.417969 37.273438 -0.902344 37.917969 -0.644531 C 39.078125 0 40.753906 0.386719 42.046875 -0.128906 C 43.335938 -0.515625 44.496094 -1.289062 45.269531 -2.578125 C 45.785156 -3.738281 46.300781 -5.417969 45.785156 -6.707031 C 37.144531 -26.828125 28.246094 -46.6875 18.441406 -66.292969 C 21.796875 -70.546875 24.632812 -75.191406 27.859375 -79.574219 C 29.792969 -81.898438 31.726562 -84.089844 34.046875 -85.894531 C 34.953125 -86.796875 35.597656 -88.476562 35.597656 -89.765625 C 35.597656 -91.054688 34.953125 -92.601562 34.046875 -93.503906 C 33.015625 -94.40625 31.597656 -95.179688 30.179688 -95.050781 C 28.761719 -95.050781 27.601562 -94.40625 26.4375 -93.503906 C 19.992188 -88.089844 15.863281 -80.738281 10.960938 -74.03125 L 10.703125 -94.019531 C 10.703125 -95.4375 10.1875 -96.859375 9.15625 -97.761719 C 8.253906 -98.792969 6.707031 -99.4375 5.417969 -99.4375 C 2.449219 -99.308594 0 -96.988281 0 -94.019531 Z M 0 -94.019531 "/></g></g></g><g fill="rgb(96.469116%, 96.469116%, 96.469116%)" fill-opacity="1"><g transform="translate(601.800919, 1090.910388)"><g><path d="M 0 -5.160156 C 0 -3.871094 0.644531 -2.320312 1.546875 -1.417969 C 2.449219 -0.515625 4 0.257812 5.417969 0.128906 C 8.253906 0 10.703125 -2.191406 10.703125 -5.160156 L 10.703125 -70.160156 C 10.703125 -71.578125 10.058594 -73 9.15625 -74.03125 C 8.253906 -74.933594 6.707031 -75.578125 5.417969 -75.578125 C 2.449219 -75.449219 0 -73.257812 0 -70.160156 Z M 0 -87.183594 C 0.128906 -84.347656 2.320312 -81.898438 5.417969 -81.898438 C 6.707031 -81.898438 8.125 -82.414062 9.15625 -83.445312 C 10.058594 -84.347656 10.832031 -85.894531 10.703125 -87.183594 C 10.574219 -90.152344 8.382812 -92.601562 5.417969 -92.601562 C 4 -92.601562 2.578125 -91.957031 1.546875 -91.054688 C 0.644531 -90.023438 0 -88.605469 0 -87.183594 Z M 0 -87.183594 "/></g></g></g><g fill="rgb(96.469116%, 96.469116%, 96.469116%)" fill-opacity="1"><g transform="translate(630.94957, 1090.910388)"><g><path d="M 0 -91.699219 C 0.128906 -90.28125 0.515625 -88.863281 1.546875 -87.960938 C 2.578125 -86.925781 3.871094 -86.28125 5.417969 -86.410156 C 8.511719 -86.410156 11.609375 -86.539062 14.703125 -86.410156 L 14.703125 -4.773438 C 14.703125 -3.480469 15.347656 -1.933594 16.25 -1.03125 C 17.28125 -0.128906 18.699219 0.644531 20.121094 0.515625 C 22.957031 0.386719 25.40625 -1.804688 25.40625 -4.773438 L 25.40625 -86.023438 C 28.890625 -85.765625 32.371094 -85.507812 35.855469 -85.121094 C 37.144531 -84.992188 38.820312 -85.765625 39.722656 -86.667969 C 40.625 -87.570312 41.269531 -89.121094 41.269531 -90.410156 C 41.140625 -91.828125 40.753906 -93.246094 39.722656 -94.277344 L 38.5625 -95.050781 C 37.789062 -95.570312 36.886719 -95.828125 35.855469 -95.828125 C 31.984375 -96.214844 28.117188 -96.601562 24.246094 -96.859375 C 23.085938 -98.019531 21.796875 -98.792969 20.121094 -98.792969 C 18.570312 -98.664062 17.28125 -98.148438 16.25 -97.117188 C 12.640625 -97.246094 9.027344 -97.246094 5.417969 -97.117188 C 2.449219 -96.859375 0 -94.792969 0 -91.699219 Z M 0 -91.699219 "/></g></g></g><g fill="rgb(96.469116%, 96.469116%, 96.469116%)" fill-opacity="1"><g transform="translate(690.664156, 1090.910388)"><g><path d="M 1.160156 -15.21875 C 4.386719 -5.933594 13.414062 1.546875 23.472656 1.546875 C 26.179688 1.546875 31.082031 0.902344 32.5 -1.804688 C 32.757812 -2.191406 33.015625 -2.835938 33.144531 -3.351562 C 33.660156 -4.257812 33.917969 -5.160156 33.917969 -6.320312 C 34.953125 -19.21875 35.339844 -32.113281 35.082031 -45.011719 C 34.953125 -51.460938 34.824219 -57.910156 34.175781 -64.226562 C 33.660156 -68.097656 33.015625 -71.320312 31.597656 -74.933594 C 27.988281 -82.414062 21.925781 -84.605469 14.058594 -84.605469 C 9.671875 -84.476562 1.546875 -82.800781 1.546875 -76.996094 C 1.546875 -75.707031 2.191406 -74.160156 3.09375 -73.257812 C 4.257812 -72.222656 5.675781 -71.707031 7.09375 -71.707031 C 8.382812 -71.707031 9.671875 -72.222656 10.832031 -73.386719 C 10.960938 -73.386719 10.960938 -73.386719 11.089844 -73.515625 C 11.480469 -73.644531 11.867188 -73.773438 12.382812 -73.773438 C 14.058594 -73.902344 15.734375 -73.902344 17.410156 -73.773438 C 17.925781 -73.644531 18.441406 -73.515625 18.957031 -73.386719 C 19.347656 -73.257812 19.605469 -73 19.992188 -72.871094 C 20.378906 -72.480469 20.765625 -72.09375 21.023438 -71.707031 C 21.539062 -71.0625 21.925781 -70.417969 22.183594 -69.644531 C 22.828125 -68.226562 23.085938 -66.679688 23.34375 -65.132812 C 23.730469 -61.648438 23.859375 -58.039062 24.117188 -54.425781 C 24.117188 -52.621094 24.246094 -50.816406 24.246094 -49.007812 C 13.542969 -48.105469 4.902344 -41.011719 1.417969 -31.082031 C -0.386719 -26.050781 -0.515625 -20.25 1.160156 -15.21875 Z M 10.832031 -24.761719 C 11.347656 -27.859375 12.253906 -29.664062 13.929688 -32.242188 C 16.894531 -35.726562 20.121094 -37.53125 24.503906 -38.304688 C 24.503906 -28.632812 24.246094 -18.828125 23.472656 -9.15625 C 23.085938 -9.15625 22.570312 -9.15625 22.183594 -9.285156 C 21.152344 -9.414062 20.121094 -9.671875 19.085938 -10.058594 C 15.476562 -11.867188 13.414062 -13.929688 11.738281 -17.410156 C 11.347656 -18.570312 11.089844 -19.734375 10.832031 -20.894531 C 10.703125 -22.183594 10.703125 -23.472656 10.832031 -24.761719 Z M 10.832031 -24.761719 "/></g></g></g><g fill="rgb(96.469116%, 96.469116%, 96.469116%)" fill-opacity="1"><g transform="translate(744.317138, 1090.910388)"><g><path d="M 0 -1.160156 C 0 0.257812 0.644531 1.675781 1.546875 2.578125 C 2.449219 3.609375 4 4.257812 5.417969 4.257812 C 5.546875 4.128906 5.675781 4.128906 5.804688 4.128906 C 7.09375 5.160156 8.769531 5.546875 10.445312 5.03125 C 22.699219 1.417969 33.660156 -7.351562 37.917969 -19.734375 C 40.238281 -26.179688 40.496094 -33.402344 38.820312 -40.109375 C 36.371094 -49.785156 30.179688 -57.523438 21.539062 -62.421875 C 25.664062 -66.035156 29.148438 -70.417969 30.308594 -75.964844 C 32.113281 -84.089844 29.277344 -93.246094 21.796875 -97.503906 C 19.347656 -98.792969 16.894531 -99.4375 14.058594 -99.695312 C 12.898438 -99.824219 11.738281 -99.695312 10.574219 -99.566406 C 9.542969 -99.4375 8.511719 -99.179688 7.609375 -98.921875 C 6.835938 -99.179688 6.0625 -99.4375 5.417969 -99.4375 C 2.449219 -99.308594 0 -96.988281 0 -94.019531 Z M 10.703125 -6.320312 L 10.703125 -55.199219 C 11.738281 -54.941406 12.898438 -54.554688 13.929688 -54.167969 C 18.054688 -52.363281 21.410156 -49.785156 24.246094 -46.300781 C 25.40625 -44.625 26.4375 -42.949219 27.34375 -41.011719 C 28.117188 -38.949219 28.632812 -36.886719 29.019531 -34.824219 C 29.277344 -32.5 29.277344 -30.179688 29.019531 -27.859375 C 28.632812 -25.792969 28.117188 -23.730469 27.34375 -21.667969 C 26.4375 -19.734375 25.277344 -17.925781 24.117188 -16.25 C 20.636719 -11.996094 16.25 -8.769531 11.21875 -6.578125 C 11.089844 -6.449219 10.832031 -6.449219 10.703125 -6.320312 Z M 10.703125 -67.96875 L 10.703125 -88.734375 C 11.21875 -88.863281 11.609375 -88.992188 12.125 -88.992188 C 12.769531 -89.121094 13.414062 -89.121094 14.058594 -88.992188 C 14.574219 -88.863281 15.21875 -88.734375 15.863281 -88.476562 C 16.378906 -88.21875 16.765625 -87.960938 17.28125 -87.699219 C 17.667969 -87.3125 18.054688 -86.925781 18.441406 -86.539062 C 18.828125 -86.023438 19.21875 -85.378906 19.476562 -84.734375 C 19.734375 -83.960938 19.992188 -83.058594 20.121094 -82.285156 C 20.25 -81.253906 20.25 -80.351562 20.121094 -79.445312 C 19.992188 -78.414062 19.734375 -77.511719 19.347656 -76.609375 C 18.828125 -75.578125 18.183594 -74.546875 17.539062 -73.515625 C 16.507812 -72.351562 15.347656 -71.191406 14.1875 -70.160156 C 13.027344 -69.386719 11.867188 -68.613281 10.703125 -67.96875 Z M 10.703125 -67.96875 "/></g></g></g><g fill="rgb(96.469116%, 96.469116%, 96.469116%)" fill-opacity="1"><g transform="translate(802.613071, 1090.910388)"><g><path d="M 0.644531 4.128906 C 1.289062 5.160156 2.578125 6.191406 3.871094 6.449219 C 5.289062 6.707031 6.835938 6.707031 7.996094 5.933594 C 9.15625 5.289062 10.1875 4.128906 10.445312 2.835938 C 12.125 -6.578125 13.800781 -16.121094 15.347656 -25.535156 L 23.472656 -25.921875 C 24.890625 -16.636719 26.828125 -7.351562 28.890625 1.804688 C 29.148438 2.964844 30.179688 4.257812 31.339844 4.902344 C 32.5 5.546875 34.175781 5.804688 35.46875 5.417969 C 38.304688 4.515625 39.851562 1.933594 39.207031 -0.902344 C 33.402344 -27.085938 29.535156 -53.652344 27.601562 -80.480469 C 27.34375 -84.089844 27.085938 -87.699219 26.957031 -91.3125 C 26.957031 -91.441406 26.957031 -91.570312 26.957031 -91.699219 L 27.085938 -92.472656 C 27.34375 -93.890625 27.214844 -95.050781 26.4375 -96.34375 C 25.792969 -97.375 24.632812 -98.40625 23.34375 -98.664062 C 21.925781 -99.050781 20.378906 -98.921875 19.21875 -98.148438 C 18.054688 -97.503906 16.894531 -96.472656 16.765625 -95.179688 C 14.574219 -82.671875 12.382812 -70.289062 10.1875 -57.910156 L 0.128906 0.128906 C -0.128906 1.546875 -0.128906 2.835938 0.644531 4.128906 Z M 17.152344 -35.855469 C 18.054688 -40.753906 18.957031 -45.785156 19.734375 -50.6875 C 20.378906 -45.785156 21.023438 -40.882812 21.796875 -35.984375 C 20.25 -35.984375 18.699219 -35.855469 17.152344 -35.855469 Z M 17.152344 -35.855469 "/></g></g></g><g fill="rgb(96.469116%, 96.469116%, 96.469116%)" fill-opacity="1"><g transform="translate(860.393089, 1090.910388)"><g><path d="M 0.644531 -33.660156 C 2.449219 -22.3125 6.449219 -11.609375 16.507812 -5.160156 C 20.121094 -3.09375 24.375 -1.804688 28.503906 -1.804688 C 29.921875 -1.804688 31.339844 -2.449219 32.371094 -3.351562 C 33.273438 -4.257812 33.917969 -5.804688 33.917969 -7.222656 C 33.789062 -10.058594 31.597656 -12.511719 28.503906 -12.511719 C 27.988281 -12.511719 27.472656 -12.511719 26.957031 -12.640625 C 25.921875 -12.769531 24.890625 -13.027344 23.859375 -13.414062 C 15.089844 -18.3125 12.640625 -26.308594 11.089844 -35.597656 C 10.832031 -37.917969 10.703125 -40.238281 10.703125 -42.5625 C 11.347656 -42.433594 12.125 -42.433594 12.769531 -42.691406 C 22.3125 -44.238281 32.5 -51.460938 36.113281 -60.746094 C 37.015625 -62.808594 37.917969 -65.003906 38.304688 -67.195312 C 38.820312 -69.386719 39.078125 -71.707031 39.078125 -73.902344 C 39.078125 -79.832031 36.5 -85.378906 30.308594 -86.925781 C 30.050781 -87.054688 29.921875 -87.183594 29.664062 -87.3125 C 28.503906 -87.960938 26.828125 -88.347656 25.535156 -87.832031 C 9.15625 -81.898438 0.644531 -61.648438 0.128906 -45.140625 C -0.128906 -41.269531 0.128906 -37.402344 0.644531 -33.660156 Z M 11.867188 -53.394531 C 13.542969 -61.261719 17.539062 -69.902344 24.117188 -75.0625 C 24.246094 -75.191406 24.503906 -75.320312 24.761719 -75.449219 C 25.921875 -75.320312 27.085938 -75.449219 27.988281 -76.09375 C 28.117188 -75.707031 28.246094 -75.449219 28.246094 -75.0625 C 28.375 -73.773438 28.375 -72.480469 28.246094 -71.191406 C 27.859375 -69.257812 27.34375 -67.453125 26.695312 -65.777344 C 25.921875 -64.097656 25.019531 -62.421875 23.988281 -61.003906 C 22.828125 -59.585938 21.667969 -58.425781 20.25 -57.261719 C 18.699219 -56.230469 17.152344 -55.199219 15.476562 -54.425781 C 14.316406 -54.039062 13.15625 -53.652344 11.867188 -53.394531 Z M 11.867188 -53.394531 "/></g></g></g></svg>