<svg xmlns="http://www.w3.org/2000/svg" xmlns:xlink="http://www.w3.org/1999/xlink" width="1920" zoomAndPan="magnify" viewBox="0 0 1440 1349.999938" height="1800" preserveAspectRatio="xMidYMid meet" version="1.0"><defs><g/><clipPath id="id1"><path d="M 870 476.757812 L 898 476.757812 L 898 532 L 870 532 Z M 870 476.757812 " clip-rule="nonzero"/></clipPath><clipPath id="id2"><path d="M 293 1020 L 1192.601562 1020 L 1192.601562 1026.207031 L 293 1026.207031 Z M 293 1020 " clip-rule="nonzero"/></clipPath></defs><g clip-path="url(#id1)"><path fill="rgb(100%, 100%, 100%)" d="M 880.582031 486.402344 C 878.980469 493.417969 876.585938 500.148438 873.414062 506.601562 C 872.027344 509.316406 871.144531 512.179688 870.75 515.1875 C 870.355469 518.203125 870.46875 521.199219 871.101562 524.175781 L 873.414062 531.597656 L 878.9375 523.84375 C 882.1875 520.242188 884.277344 516.058594 885.203125 511.304688 C 885.203125 508.589844 886.859375 506.601562 888.503906 506.601562 C 893.039062 506.601562 892.457031 510.980469 886.859375 518.722656 C 879.273438 529.203125 881.25 532.253906 890.15625 523.429688 C 899.054688 514.601562 900.625 500.835938 893.371094 486.402344 C 887.179688 473.539062 883.226562 473.539062 880.582031 486.402344 Z M 880.582031 486.402344 " fill-opacity="1" fill-rule="evenodd"/></g><path fill="rgb(100%, 100%, 100%)" d="M 747.007812 490.441406 C 734.636719 521.449219 732.660156 529.535156 734.636719 536.957031 C 736.625 544.375 736.863281 544.707031 744.125 530.847656 C 748.082031 522.605469 752.367188 516.746094 753.273438 517.734375 C 754.179688 518.722656 752.617188 524.5 749.726562 530.523438 C 742.804688 544.375 745.113281 547.019531 753.9375 534.894531 C 758.007812 529.003906 760.308594 522.492188 760.859375 515.351562 C 760.859375 503.230469 749.726562 483.351562 747.007812 490.441406 Z M 747.007812 490.441406 " fill-opacity="1" fill-rule="evenodd"/><path fill="rgb(100%, 100%, 100%)" d="M 804.148438 503.886719 C 802.046875 506.007812 800.277344 508.378906 798.832031 511.003906 C 797.394531 513.625 796.34375 516.394531 795.679688 519.308594 C 795.023438 522.222656 794.773438 525.175781 794.929688 528.152344 C 795.097656 531.140625 795.667969 534.042969 796.644531 536.871094 C 799.527344 544.625 799.863281 544.292969 800.195312 531.847656 C 800.515625 519.390625 800.851562 518.652344 803.160156 528.464844 C 804.472656 534.199219 806.449219 539.691406 809.101562 544.957031 C 812.070312 550.722656 812.722656 550.066406 815.941406 540.585938 C 819.15625 531.097656 817.59375 496.382812 813.390625 496.382812 C 809.851562 498.316406 806.773438 500.816406 804.148438 503.886719 Z M 804.148438 503.886719 " fill-opacity="1" fill-rule="evenodd"/><path fill="rgb(100%, 100%, 100%)" d="M 671.648438 514.03125 C 663.394531 527.550781 661.75 536.289062 667.359375 547.019531 C 674.195312 560.785156 675.601562 559.796875 673.957031 542.648438 C 672.636719 530.773438 672.957031 530.109375 675.183594 538.933594 C 678.484375 552.710938 681.78125 557.820312 685.746094 555.425781 C 689.703125 553.035156 689.046875 530.691406 682.449219 518.320312 L 676.183594 506.527344 Z M 671.648438 514.03125 " fill-opacity="1" fill-rule="evenodd"/><path fill="rgb(100%, 100%, 100%)" d="M 620.769531 515.675781 C 621.757812 519.058594 623.402344 529.203125 624.726562 538.601562 C 625.640625 546.894531 628.136719 554.679688 632.226562 561.941406 C 637.503906 567.632812 637.835938 567.300781 639.8125 550.152344 L 641.46875 531.917969 L 644.351562 547.101562 C 646.992188 561.941406 647.316406 562.273438 649.625 552.128906 C 654.570312 533.90625 647.648438 521.117188 628.605469 513.699219 C 620.4375 510.316406 619.449219 510.648438 620.769531 515.675781 Z M 620.769531 515.675781 " fill-opacity="1" fill-rule="evenodd"/><path fill="rgb(100%, 100%, 100%)" d="M 836.304688 524.832031 C 833.296875 532.636719 828.925781 539.597656 823.191406 545.699219 C 810.089844 562.191406 800.195312 585.53125 804.816406 589.902344 C 805.804688 591.214844 813.710938 585.53125 821.296875 577.445312 C 837.792969 560.535156 841.339844 564.25 825.917969 582.152344 L 815.691406 594.273438 L 825.917969 590.558594 C 837.375 586.519531 849.167969 567.964844 849.167969 553.449219 C 849.167969 543.386719 840.925781 520.460938 838.042969 520.460938 C 836.96875 520.128906 836.304688 522.105469 836.304688 524.832031 Z M 836.304688 524.832031 " fill-opacity="1" fill-rule="evenodd"/><path fill="rgb(100%, 100%, 100%)" d="M 705.777344 543.386719 C 698.609375 561.203125 696.953125 583.792969 702.230469 594.273438 C 705.726562 599.621094 710.097656 604.140625 715.34375 607.792969 L 725.15625 614.886719 L 716.914062 596.988281 C 713.273438 589.902344 710.523438 582.472656 708.660156 574.730469 C 708.660156 566.976562 714.605469 573.730469 716.914062 583.792969 C 719.128906 591.089844 722.949219 597.417969 728.371094 602.765625 L 738.183594 612.496094 L 738.183594 592.953125 C 738.777344 587.601562 738.351562 582.335938 736.925781 577.15625 C 735.507812 571.972656 733.179688 567.226562 729.941406 562.929688 C 725.019531 555.5625 721.085938 547.707031 718.152344 539.347656 C 717.183594 534.894531 715.539062 530.722656 713.199219 526.808594 C 710.367188 532.179688 707.902344 537.707031 705.777344 543.386719 Z M 705.777344 543.386719 " fill-opacity="1" fill-rule="evenodd"/><path fill="rgb(100%, 100%, 100%)" d="M 768.695312 555.175781 C 762.898438 562.265625 758.859375 570.234375 756.570312 579.101562 C 754.261719 593.285156 759.214844 612.089844 766.46875 618.269531 C 771.328125 622.308594 771.660156 622.308594 769.027344 616.210938 C 765.480469 607.136719 762.835938 578.433594 766.136719 581.816406 C 768.113281 585.011719 769.289062 588.476562 769.683594 592.214844 C 771.328125 603.015625 777.925781 618.1875 780.902344 618.1875 C 782.214844 618.1875 785.429688 612.089844 787.417969 604.660156 C 789.082031 600.164062 789.808594 595.511719 789.582031 590.714844 C 789.351562 585.917969 788.1875 581.359375 786.09375 577.03125 C 783.253906 568.988281 781.191406 560.734375 779.914062 552.292969 L 778.914062 542.148438 Z M 768.695312 555.175781 " fill-opacity="1" fill-rule="evenodd"/><path fill="rgb(100%, 100%, 100%)" d="M 909.117188 548.089844 C 900.292969 553.117188 887.847656 572.828125 890.15625 578.769531 C 891.144531 581.484375 891.800781 581.160156 891.800781 578.769531 C 891.800781 573.730469 915.714844 560.871094 923.957031 561.203125 C 927.839844 561.203125 926.183594 563.261719 919.667969 565.980469 C 908.542969 571.015625 894.933594 585.855469 894.933594 593.285156 C 894.933594 600.703125 915.632812 599.382812 927.089844 593.285156 C 932.582031 590.195312 937.503906 586.375 941.855469 581.816406 C 947.703125 576.542969 954.21875 572.273438 961.398438 569.039062 C 968.652344 565.65625 974.511719 561.941406 974.511719 560.785156 C 969.703125 556.363281 964.207031 553.117188 958.015625 551.054688 C 939.710938 542.730469 920.167969 541.660156 909.117188 548.089844 Z M 909.117188 548.089844 " fill-opacity="1" fill-rule="evenodd"/><path fill="rgb(100%, 100%, 100%)" d="M 557.769531 580.089844 C 557.9375 581.671875 558.238281 583.234375 558.6875 584.773438 C 559.132812 586.300781 559.707031 587.78125 560.414062 589.214844 C 561.132812 590.640625 561.953125 592.003906 562.910156 593.285156 C 563.859375 594.566406 564.921875 595.75 566.085938 596.84375 C 567.25 597.9375 568.5 598.914062 569.84375 599.789062 C 571.175781 600.664062 572.578125 601.402344 574.058594 602.015625 C 575.523438 602.640625 577.042969 603.117188 578.605469 603.460938 C 580.164062 603.816406 581.738281 604.023438 583.328125 604.085938 C 590.914062 604.085938 591.582031 604.085938 585.316406 601.039062 C 580.726562 599.082031 576.90625 596.136719 573.847656 592.214844 C 569.226562 586.769531 569.5625 586.769531 576.160156 590.140625 C 580.539062 592.628906 585.234375 593.972656 590.257812 594.191406 C 596.117188 594.191406 596.441406 593.203125 593.558594 587.425781 C 590.675781 581.652344 577.0625 572.992188 563.714844 569.277344 C 555.128906 567.46875 554.804688 567.46875 557.769531 580.089844 Z M 557.769531 580.089844 " fill-opacity="1" fill-rule="evenodd"/><path fill="rgb(100%, 100%, 100%)" d="M 614.171875 576.457031 C 612.363281 583.980469 611.625 591.621094 611.957031 599.363281 C 612.289062 607.09375 613.695312 614.640625 616.148438 621.984375 C 620.769531 630.726562 635.527344 640.125 639.160156 636.410156 C 640.148438 635.097656 637.179688 630.726562 632.226562 626.355469 C 627.917969 623.121094 624.953125 618.945312 623.320312 613.816406 C 623.320312 610.851562 624.640625 610.851562 627.535156 614.554688 C 633.746094 621.902344 641.300781 627.40625 650.210938 631.050781 C 654.164062 631.050781 653.496094 618.269531 649.210938 609.777344 C 643.664062 601.558594 637.535156 593.804688 630.824219 586.519531 C 618.792969 573.730469 615.816406 571.671875 614.171875 576.457031 Z M 614.171875 576.457031 " fill-opacity="1" fill-rule="evenodd"/><path fill="rgb(100%, 100%, 100%)" d="M 856.015625 574.730469 C 856.015625 581.816406 829.789062 614.554688 816.929688 623.296875 C 793.347656 639.136719 762.515625 693.476562 753.9375 733.5625 C 751.710938 744.363281 749.070312 751.78125 747.746094 750.054688 C 744.429688 739.296875 742.335938 728.296875 741.484375 717.066406 C 739.902344 701.238281 735.863281 686.066406 729.359375 671.539062 C 724.417969 662.476562 721.773438 659.417969 723.09375 664.453125 C 733.324219 709.648438 733.324219 727.867188 723.09375 708.328125 C 715.269531 693.746094 705.09375 681.050781 692.582031 670.230469 C 690.273438 668.824219 691.929688 672.863281 696.546875 679.957031 C 704.570312 690.925781 710.878906 702.8125 715.457031 715.609375 C 720.023438 728.410156 722.6875 741.59375 723.429688 755.164062 C 724.625 764.289062 724.625 773.417969 723.429688 782.542969 C 715.132812 779.546875 707.046875 776.058594 699.179688 772.074219 C 686.734375 766.300781 672.636719 760.285156 667.027344 758.546875 C 657.867188 755.832031 657.546875 756.238281 663.726562 760.605469 C 667.785156 763.457031 671.605469 766.589844 675.183594 770.015625 C 678.816406 773.242188 682.769531 775.988281 687.058594 778.257812 C 693.082031 783.054688 697.785156 788.902344 701.160156 795.820312 C 707.351562 808.277344 706.683594 813.386719 699.515625 805.96875 C 692.28125 802.835938 684.714844 801.128906 676.839844 800.859375 C 666.039062 799.871094 659.441406 800.191406 662.082031 801.597656 C 679.910156 812.378906 695.652344 825.625 709.328125 841.347656 C 715.59375 850.933594 720.179688 861.277344 723.09375 872.359375 C 725.289062 878.667969 726.507812 885.160156 726.726562 891.839844 C 726.957031 898.519531 726.1875 905.085938 724.417969 911.527344 C 722.8125 921.03125 719.546875 929.90625 714.605469 938.167969 C 708.996094 945.589844 708.996094 946.410156 713.949219 952.351562 C 718.890625 958.285156 719.546875 958.699219 710.648438 952.351562 C 705.695312 948.96875 701.492188 944.933594 701.492188 943.527344 C 701.492188 942.125 666.691406 920.601562 641.136719 907.8125 C 598.417969 886.542969 532.785156 880.519531 484.46875 893.308594 C 462.128906 899.40625 396.484375 928.679688 396.484375 932.808594 C 396.484375 933.796875 397.472656 933.796875 399.128906 932.808594 C 400.773438 931.820312 410.261719 927.035156 421.136719 921.996094 C 480.183594 894.296875 519.507812 886.210938 565.773438 892.976562 C 614.339844 900.0625 671.148438 927.035156 702.648438 958.046875 C 712.125 967.523438 716.746094 972.882812 713.117188 970.574219 C 709.585938 968.140625 706.320312 965.390625 703.300781 962.332031 C 680.628906 937.585938 625.222656 914.089844 576.324219 908.3125 C 541.527344 904.277344 489.007812 916.066406 421.804688 942.707031 C 414.371094 944.996094 407.472656 948.378906 401.105469 952.84375 C 409.835938 951.082031 418.253906 948.335938 426.339844 944.601562 C 479.847656 922.996094 513.324219 915.566406 553.984375 915.566406 C 576.628906 914.171875 598.617188 917.335938 619.949219 925.058594 C 632.839844 929.042969 645.433594 933.851562 657.710938 939.492188 C 674.09375 949.28125 688.742188 961.21875 701.65625 975.277344 C 704.289062 978.992188 698.027344 975.277344 688.214844 967.035156 C 649.792969 934.953125 610.136719 924.808594 544.171875 930.90625 C 516.625 933.300781 506.40625 935.941406 470.941406 951.113281 C 456.988281 956.296875 443.542969 962.59375 430.628906 970 C 442.292969 966.796875 453.5625 962.539062 464.425781 957.210938 C 480.390625 950.136719 496.6875 943.945312 513.324219 938.65625 C 535.59375 932.226562 600.5625 932.644531 620.519531 938.65625 C 637.015625 943.777344 675.269531 963.976562 675.269531 967.691406 C 679.023438 972.25 683.425781 976.070312 688.464844 979.148438 C 704.957031 990.617188 703.886719 993.011719 686.484375 984.519531 C 642.207031 962.65625 620.519531 957.210938 583.410156 957.546875 L 555.542969 958.210938 L 583.410156 960.59375 C 609.324219 962.082031 634.058594 968.273438 657.628906 979.148438 C 661.644531 981.4375 665.902344 983.113281 670.40625 984.183594 C 675.152344 985.964844 679.410156 988.554688 683.1875 991.9375 L 692.667969 1000.179688 L 650.367188 1002.167969 C 627.035156 1003.480469 552.246094 1004.550781 484.386719 1004.550781 C 416.527344 1004.550781 360.292969 1007.109375 359.460938 1008.433594 C 358.636719 1009.753906 448.347656 1012.554688 558.925781 1013.542969 C 781.558594 1016.183594 1158.054688 1012.886719 1158.054688 1008.433594 C 1158.054688 1007.109375 1100.332031 1005.464844 1029.421875 1005.464844 C 958.503906 1005.464844 881 1004.0625 857.824219 1002.738281 L 815.117188 1000.679688 L 824.679688 994 C 848.59375 977.503906 886.691406 965.296875 925.027344 961.917969 L 953.144531 959.523438 L 926.847656 959.523438 C 912.976562 959.085938 899.222656 960.148438 885.578125 962.707031 C 871.9375 965.265625 858.730469 969.261719 845.953125 974.707031 C 840.257812 977.953125 834.234375 980.429688 827.894531 982.125 C 822.589844 984.089844 817.894531 987.035156 813.796875 990.949219 C 808.1875 995.976562 802.910156 999.191406 801.921875 998.371094 C 798.707031 994.652344 847.855469 957.140625 868.875 947.398438 C 889.90625 937.667969 894.765625 936.929688 931.542969 935.609375 C 975.5 933.964844 996.1875 936.929688 1028.351562 950.457031 C 1034.949219 953.632812 1041.847656 955.878906 1049.050781 957.210938 C 1041.140625 952.070312 1032.703125 948.035156 1023.730469 945.089844 C 1004.6875 938.449219 985.15625 933.984375 965.113281 931.707031 C 945.082031 929.417969 925.039062 929.375 904.996094 931.570312 C 897.023438 932.207031 889.167969 933.507812 881.414062 935.453125 C 873.664062 937.410156 866.128906 939.988281 858.8125 943.207031 C 851.496094 946.421875 844.496094 950.21875 837.8125 954.609375 C 831.121094 958.992188 824.859375 963.902344 818.988281 969.335938 C 814.171875 974.308594 808.675781 978.347656 802.503906 981.460938 C 800.195312 979.480469 839.601562 947.078125 851.976562 940.230469 C 857.585938 937.585938 874.320312 931.15625 889.742188 925.796875 C 900.375 922.675781 911.175781 920.28125 922.144531 918.625 C 933.105469 916.972656 944.132812 916.078125 955.21875 915.929688 C 966.300781 915.785156 977.351562 916.390625 988.351562 917.75 C 999.351562 919.113281 1010.214844 921.21875 1020.933594 924.070312 C 1059.019531 935.859375 1065.292969 935.859375 1032.804688 924.070312 C 1020.714844 919.417969 1008.308594 915.847656 995.601562 913.339844 C 982.886719 910.84375 970.066406 909.449219 957.109375 909.15625 C 944.164062 908.863281 931.28125 909.6875 918.472656 911.621094 C 905.671875 913.558594 893.121094 916.585938 880.832031 920.6875 C 870.363281 924.722656 857.90625 928.929688 853.296875 930.820312 C 837.875 935.527344 818.5 950.375 792.609375 977.003906 C 778.507812 991.523438 769.933594 998.617188 773.886719 993.5 C 788.238281 971.5625 822.871094 942.375 854.203125 925.140625 C 899.804688 900.394531 927.003906 893.140625 973.925781 893.140625 C 1007.402344 893.140625 1015.15625 894.460938 1041.871094 903.941406 C 1058.007812 909.394531 1073.753906 915.804688 1089.113281 923.152344 C 1094.609375 926.917969 1100.632812 929.398438 1107.179688 930.582031 C 1110.144531 927.523438 1049.457031 900.894531 1024.71875 894.460938 C 974.511719 881.339844 907.304688 887.367188 865.910156 908.96875 C 827.894531 928.84375 816.4375 935.941406 801.265625 949.136719 C 792.441406 956.890625 788.488281 959.199219 793.015625 954.164062 L 801.265625 945.089844 L 789.800781 932.894531 L 778.675781 921.09375 L 779.984375 886.042969 C 780.984375 832.773438 798.050781 769.027344 818.664062 741.3125 C 833.371094 724.851562 850.71875 711.9375 870.695312 702.550781 C 878.9375 699.167969 878.199219 699.167969 860.882812 700.574219 C 840.1875 702.550781 804.066406 720.117188 792.929688 733.5625 C 787.417969 740.660156 787.417969 740.660156 787.417969 724.164062 C 787.417969 692.738281 810.089844 640.125 829.789062 626.355469 C 836.492188 620.019531 842.246094 612.933594 847.085938 605.085938 C 851.925781 597.238281 855.671875 588.914062 858.324219 580.089844 C 859.3125 575.054688 859.3125 570.683594 858.324219 570.683594 C 857.335938 570.683594 856.015625 572.335938 856.015625 574.730469 Z M 715.257812 988.054688 C 719.546875 993.414062 719.222656 993.75 714.269531 989.378906 C 709.328125 985.007812 707.015625 982.292969 709.660156 982.292969 C 711.898438 983.84375 713.769531 985.765625 715.257812 988.054688 Z M 737.527344 997.128906 C 736.625 998.203125 733.980469 995.488281 731.667969 991.4375 C 727.382812 984.351562 727.714844 984.351562 733.324219 989.710938 C 736.625 992.925781 738.765625 996.308594 737.527344 996.964844 Z M 792.027344 995.808594 C 788.726562 999.523438 785.429688 1001.917969 784.441406 1000.847656 C 783.453125 999.773438 785.429688 996.140625 788.726562 992.59375 C 792.027344 989.046875 795.324219 986.578125 796.3125 987.566406 C 797.300781 988.554688 795.324219 991.9375 792.027344 995.644531 Z M 792.027344 995.808594 " fill-opacity="1" fill-rule="evenodd"/><path fill="rgb(100%, 100%, 100%)" d="M 675.519531 605.410156 C 675.027344 610.019531 675.320312 614.585938 676.390625 619.09375 C 677.472656 623.609375 679.265625 627.8125 681.78125 631.714844 L 687.722656 639.46875 L 689.949219 632.039062 C 691.117188 627.199219 691.117188 622.359375 689.949219 617.53125 C 688.378906 612.496094 688.710938 611.171875 691.273438 612.496094 C 693.988281 615.835938 695.300781 619.65625 695.226562 623.960938 C 695.226562 632.703125 695.226562 632.703125 698.191406 625.691406 C 698.640625 624.160156 698.964844 622.597656 699.148438 621.019531 C 699.335938 619.425781 699.390625 617.832031 699.316406 616.242188 C 699.242188 614.648438 699.035156 613.066406 698.703125 611.507812 C 698.359375 609.945312 697.902344 608.425781 697.308594 606.949219 C 696.714844 605.460938 696.007812 604.035156 695.183594 602.671875 C 694.363281 601.296875 693.425781 600.019531 692.386719 598.800781 C 691.34375 597.59375 690.210938 596.46875 688.984375 595.449219 C 687.765625 594.429688 686.464844 593.515625 685.082031 592.703125 L 675.183594 586.925781 Z M 675.519531 605.410156 " fill-opacity="1" fill-rule="evenodd"/><path fill="rgb(100%, 100%, 100%)" d="M 859.96875 613.160156 C 856.679688 619.59375 858.65625 631.382812 862.863281 631.382812 C 871.226562 626.480469 877.679688 619.738281 882.238281 611.171875 C 882.238281 605.410156 863.183594 607.46875 859.96875 613.160156 Z M 859.96875 613.160156 " fill-opacity="1" fill-rule="evenodd"/><path fill="rgb(100%, 100%, 100%)" d="M 931.136719 621.652344 C 904.914062 628 903.257812 629.070312 896.992188 641.851562 L 891.800781 651.664062 L 904.578125 651.664062 C 911.394531 651.683594 917.742188 649.976562 923.632812 646.554688 C 934.433594 638.3125 937.066406 641.195312 926.515625 649.9375 C 921.550781 654.453125 915.757812 657.199219 909.117188 658.1875 C 904.914062 658.1875 902.601562 659.582031 903.589844 661.558594 C 906.234375 666.265625 922.636719 665.941406 932.78125 660.90625 C 942.925781 655.878906 955.457031 631.550781 953.8125 622.140625 C 953.144531 616.949219 951.824219 616.949219 931.136719 621.652344 Z M 931.136719 621.652344 " fill-opacity="1" fill-rule="evenodd"/><path fill="rgb(100%, 100%, 100%)" d="M 516.792969 620.246094 C 514.148438 622.972656 514.148438 649.28125 516.792969 656.699219 C 519.796875 661.238281 523.722656 664.722656 528.582031 667.167969 C 537.738281 672.207031 538.0625 672.207031 534.761719 665.441406 C 533.085938 662.050781 530.808594 659.136719 527.925781 656.699219 C 526.925781 656.078125 526.125 655.253906 525.542969 654.234375 C 524.960938 653.203125 524.660156 652.101562 524.628906 650.925781 C 524.628906 648.613281 528.914062 650.925781 533.773438 656.046875 C 545.648438 667.835938 548.863281 667.503906 546.3125 654.640625 C 543.015625 637.15625 522.972656 613.816406 516.792969 620.246094 Z M 516.792969 620.246094 " fill-opacity="1" fill-rule="evenodd"/><path fill="rgb(100%, 100%, 100%)" d="M 567.25 625.199219 C 568.949219 632.039062 571.152344 638.71875 573.847656 645.234375 C 578.800781 656.699219 583.328125 662.394531 588.613281 663.789062 C 602.050781 667.167969 605.097656 663.132812 593.890625 657.035156 C 579.707031 649.605469 581.683594 647.21875 597.429688 652.332031 C 613.183594 657.441406 616.148438 653.652344 605.679688 642.515625 C 596.441406 633.441406 567.25 619.914062 567.25 625.199219 Z M 567.25 625.199219 " fill-opacity="1" fill-rule="evenodd"/><path fill="rgb(100%, 100%, 100%)" d="M 750.058594 634.429688 C 743.460938 646.222656 742.804688 662.714844 748.734375 668.15625 C 752.285156 670.882812 752.941406 669.480469 752.035156 660.738281 L 750.722656 649.9375 L 755.917969 661.40625 C 762.835938 676.910156 765.480469 672.527344 762.835938 650.925781 C 759.871094 626.355469 756.90625 622.640625 750.058594 634.429688 Z M 750.058594 634.429688 " fill-opacity="1" fill-rule="evenodd"/><path fill="rgb(100%, 100%, 100%)" d="M 849.417969 652.664062 C 820.226562 662.714844 808.1875 677.980469 832.921875 673.851562 C 848.023438 671.539062 850 673.851562 837.21875 679.292969 C 828.96875 682.675781 828.96875 683.339844 834.910156 684.328125 C 851.394531 687.378906 871.351562 667.835938 868.386719 652.332031 C 867.480469 646.886719 866.160156 646.886719 849.417969 652.664062 Z M 849.417969 652.664062 " fill-opacity="1" fill-rule="evenodd"/><path fill="rgb(100%, 100%, 100%)" d="M 999.078125 650.925781 C 994.84375 653.910156 990.140625 655.609375 984.980469 656.046875 C 970.546875 658.679688 956.695312 667.503906 959.660156 672.527344 C 960.980469 674.597656 966.589844 674.921875 973.105469 673.527344 C 981.347656 672.207031 983.988281 672.527344 982.335938 674.921875 C 981.316406 676.128906 980.078125 677.054688 978.632812 677.710938 C 977.183594 678.355469 975.675781 678.667969 974.09375 678.636719 C 970.878906 678.636719 967.914062 679.957031 967.914062 682.019531 C 967.914062 687.710938 983 685.722656 991.816406 678.636719 C 997.027344 673.933594 1000.558594 668.1875 1002.378906 661.40625 C 1004.273438 650.925781 1002.628906 645.234375 999.078125 650.925781 Z M 999.078125 650.925781 " fill-opacity="1" fill-rule="evenodd"/><path fill="rgb(100%, 100%, 100%)" d="M 632.226562 661.070312 L 623.320312 667.167969 L 638.742188 674.597656 C 646.097656 678.324219 653.839844 680.800781 662 682.019531 C 669.585938 682.019531 670.242188 682.019531 663.976562 675.253906 C 661.011719 671.71875 657.296875 669.355469 652.84375 668.15625 C 649.542969 668.15625 649.210938 667.167969 651.519531 666.429688 C 653.519531 666.085938 655.507812 666.117188 657.484375 666.523438 C 659.460938 666.941406 661.300781 667.710938 662.988281 668.824219 L 670.574219 672.863281 L 662.324219 663.789062 C 653.257812 653.652344 644.683594 652.664062 632.226562 661.070312 Z M 632.226562 661.070312 " fill-opacity="1" fill-rule="evenodd"/><path fill="rgb(100%, 100%, 100%)" d="M 908.542969 687.710938 C 897.328125 693.152344 897.328125 693.476562 905.246094 694.476562 C 921.730469 696.859375 938.222656 702.71875 938.222656 705.933594 C 938.222656 707.910156 935.257812 708.328125 930.96875 706.921875 C 920.25 704.070312 909.535156 704.070312 898.816406 706.921875 C 893.289062 708.660156 892.957031 709.96875 896.503906 715.746094 C 901.78125 724.820312 919.179688 732.238281 943.09375 735.621094 C 951.9375 736.496094 960.597656 738.285156 969.066406 740.980469 C 974.261719 743.042969 974.582031 742.386719 972.605469 735.621094 C 969.578125 727.734375 965.839844 720.210938 961.398438 713.03125 C 946.226562 686.722656 928.410156 677.980469 908.542969 687.710938 Z M 908.542969 687.710938 " fill-opacity="1" fill-rule="evenodd"/><path fill="rgb(100%, 100%, 100%)" d="M 543.671875 687.710938 C 535.429688 689.773438 536.085938 692.40625 546.96875 702.550781 C 551.871094 707.554688 556.460938 712.84375 560.738281 718.390625 C 563.140625 720.929688 565.886719 723.007812 568.976562 724.632812 C 572.070312 726.257812 575.347656 727.339844 578.800781 727.867188 C 591.582031 730.179688 591.902344 729.847656 586.304688 723.5 C 583.402344 720.53125 581.414062 717.046875 580.363281 713.03125 C 580.363281 710.96875 577.148438 706.921875 573.191406 704.289062 C 569.226562 701.644531 567.585938 698.847656 569.894531 698.847656 C 575.398438 701.269531 580 704.871094 583.660156 709.648438 L 593.558594 720.78125 L 590.34375 710.636719 C 582.101562 688.699219 567.25 681.28125 543.671875 687.710938 Z M 543.671875 687.710938 " fill-opacity="1" fill-rule="evenodd"/><path fill="rgb(100%, 100%, 100%)" d="M 603.371094 694.476562 C 603.371094 715.007812 614.503906 732.238281 628.105469 732.238281 C 634.039062 732.238281 633.714844 732.238281 626.535156 727.535156 L 618.292969 722.425781 L 629.09375 724.488281 C 636.679688 726.140625 639.648438 725.476562 639.648438 722.09375 C 639.648438 715.007812 635.691406 709.96875 623.164062 701.5625 C 603.703125 688.035156 603.371094 688.035156 603.371094 694.476562 Z M 603.371094 694.476562 " fill-opacity="1" fill-rule="evenodd"/><path fill="rgb(100%, 100%, 100%)" d="M 656.878906 700.90625 L 648.636719 709.96875 L 664.382812 716.078125 C 679.472656 721.769531 695.558594 721.769531 695.558594 716.078125 C 695.558594 714.339844 690.273438 711.292969 684.425781 708.980469 C 678.566406 706.671875 673.625 703.539062 674.527344 702.21875 C 675.433594 700.90625 680.136719 700.90625 685.082031 702.21875 L 693.90625 705.601562 L 685.664062 698.847656 C 675.519531 689.773438 667.027344 690.425781 656.878906 700.90625 Z M 656.878906 700.90625 " fill-opacity="1" fill-rule="evenodd"/><path fill="rgb(100%, 100%, 100%)" d="M 862.445312 732.90625 C 862.445312 739.335938 875.640625 759.210938 883.144531 764.65625 C 887.097656 767.289062 888.417969 769.679688 885.785156 769.679688 C 879.648438 766.933594 874.402344 763 870.03125 757.890625 L 858.574219 746.101562 L 860.882812 755.164062 C 862.726562 762 866.109375 767.964844 871.019531 773.0625 C 877.867188 780.160156 881.820312 781.316406 897.242188 781.316406 C 920.25 780.648438 924.789062 776.613281 912.988281 766.800781 C 907.078125 761.597656 902.082031 755.621094 897.984375 748.898438 C 890.15625 735.621094 862.445312 723.164062 862.445312 732.90625 Z M 862.445312 732.90625 " fill-opacity="1" fill-rule="evenodd"/><path fill="rgb(100%, 100%, 100%)" d="M 533.453125 738.671875 C 527.59375 745.351562 516.957031 769.679688 519.019531 771.660156 C 525.617188 771.128906 531.972656 769.554688 538.0625 766.964844 C 542.433594 765.914062 546.480469 764.144531 550.207031 761.648438 C 553.941406 759.148438 557.117188 756.082031 559.75 752.449219 C 563.378906 745.351562 563.046875 744.195312 557.4375 743.375 C 552.703125 742.988281 548.21875 743.894531 544.003906 746.101562 C 538.394531 749.066406 537.40625 749.066406 538.394531 746.101562 C 539.382812 743.125 544.992188 739.992188 551.171875 737.847656 L 562.390625 733.8125 L 550.519531 733.8125 C 547.457031 733.363281 544.429688 733.5625 541.453125 734.402344 C 538.476562 735.257812 535.8125 736.671875 533.453125 738.671875 Z M 533.453125 738.671875 " fill-opacity="1" fill-rule="evenodd"/><path fill="rgb(100%, 100%, 100%)" d="M 576.8125 759.867188 C 572.859375 763.707031 569.675781 768.109375 567.25 773.0625 C 567.25 776.777344 607.003906 780.816406 614.171875 777.765625 C 623.734375 774.050781 618.792969 768.359375 603.371094 764.238281 C 592.902344 761.597656 590.59375 760.203125 595.117188 758.546875 C 599.9375 757.351562 604.746094 757.351562 609.550781 758.546875 L 618.375 760.203125 L 610.136719 755.164062 C 597.105469 746.757812 587.292969 748.402344 576.8125 759.867188 Z M 576.8125 759.867188 " fill-opacity="1" fill-rule="evenodd"/><path fill="rgb(100%, 100%, 100%)" d="M 826.492188 766.300781 C 828.238281 770.941406 830.988281 774.863281 834.742188 778.089844 C 839.6875 782.792969 841.996094 786.34375 840.351562 786.34375 C 837.210938 785.582031 834.679688 783.90625 832.765625 781.316406 C 830.871094 778.722656 828.375 777.050781 825.261719 776.277344 C 823.277344 776.277344 825.917969 780.648438 831.113281 786.34375 C 841.007812 797.144531 851.808594 799.203125 861.957031 792.441406 C 867.886719 788.734375 867.230469 787.414062 851.476562 775.945312 C 835.730469 764.488281 826.492188 759.867188 826.492188 766.300781 Z M 826.492188 766.300781 " fill-opacity="1" fill-rule="evenodd"/><path fill="rgb(100%, 100%, 100%)" d="M 583.328125 788.902344 C 577.125 792.472656 571.984375 797.195312 567.917969 803.085938 L 557.769531 816.199219 L 566.59375 817.925781 C 578.800781 820.234375 593.226562 811.828125 593.558594 802.097656 C 593.558594 800.359375 590.59375 801.679688 586.960938 805.0625 C 578.71875 812.480469 578.71875 809.515625 585.640625 797.964844 C 591.582031 788.902344 591.246094 787.246094 583.328125 788.902344 Z M 583.328125 788.902344 " fill-opacity="1" fill-rule="evenodd"/><path fill="rgb(100%, 100%, 100%)" d="M 616.484375 800.027344 L 606.335938 813.148438 L 613.839844 815.207031 C 624.390625 817.925781 639.480469 811.828125 639.480469 804.730469 C 639.480469 800.027344 638.492188 800.027344 634.539062 803.40625 C 630.582031 806.789062 628.605469 806.789062 627.285156 805.394531 C 625.964844 803.992188 626.703125 803.40625 628.605469 803.40625 C 630.5 803.40625 633.550781 799.703125 635.527344 795.167969 C 641.789062 780.816406 628.605469 784.199219 616.484375 800.027344 Z M 616.484375 800.027344 " fill-opacity="1" fill-rule="evenodd"/><path fill="rgb(100%, 100%, 100%)" d="M 887.847656 805.800781 C 878.9375 808.113281 882.570312 814.054688 895.351562 818.589844 C 901.613281 820.972656 904.914062 823.285156 902.9375 824.6875 C 900.917969 825.324219 898.867188 825.550781 896.765625 825.367188 C 894.664062 825.179688 892.675781 824.59375 890.8125 823.617188 C 877.949219 818.914062 880.582031 823.617188 893.695312 828.726562 C 896.628906 830.476562 899.792969 831.496094 903.195312 831.785156 C 906.597656 832.078125 909.886719 831.609375 913.070312 830.382812 C 922.96875 826.667969 930.472656 813.886719 924.289062 812.148438 C 921.980469 811.492188 915.058594 809.101562 908.867188 807.125 C 904.570312 805.625 900.167969 804.5 895.671875 803.742188 C 894.683594 804.074219 891.144531 804.730469 887.847656 805.800781 Z M 887.847656 805.800781 " fill-opacity="1" fill-rule="evenodd"/><path fill="rgb(100%, 100%, 100%)" d="M 830.457031 819.246094 C 827.15625 820.566406 827.15625 821.972656 830.457031 825.675781 C 833.753906 829.390625 833.003906 830.382812 831.695312 830.382812 C 830.371094 830.382812 831.027344 832.773438 833.339844 835.40625 C 835.179688 836.875 837.199219 838.039062 839.394531 838.894531 C 841.589844 839.746094 843.871094 840.246094 846.222656 840.402344 C 848.574219 840.558594 850.894531 840.351562 853.183594 839.796875 C 855.472656 839.246094 857.628906 838.351562 859.644531 837.144531 C 862.277344 835.40625 863.515625 833.429688 862.863281 832.773438 C 854.402344 826.9375 845.554688 821.765625 836.304688 817.269531 C 834.285156 817.707031 832.328125 818.363281 830.457031 819.246094 Z M 830.457031 819.246094 " fill-opacity="1" fill-rule="evenodd"/><path fill="rgb(100%, 100%, 100%)" d="M 1129.605469 939.980469 C 1136.222656 943.152344 1143.121094 945.515625 1150.304688 947.078125 C 1151.945312 945.421875 1119.792969 931.570312 1114.515625 931.570312 C 1112.289062 931.570312 1119.136719 935.277344 1129.605469 939.980469 Z M 1129.605469 939.980469 " fill-opacity="1" fill-rule="evenodd"/><path fill="rgb(100%, 100%, 100%)" d="M 1063.066406 936.265625 C 1080.507812 944.851562 1098.542969 951.945312 1117.160156 957.546875 C 1109.675781 952.664062 1101.738281 948.730469 1093.328125 945.753906 C 1069.25 935.941406 1059.433594 932.558594 1063.066406 936.265625 Z M 1063.066406 936.265625 " fill-opacity="1" fill-rule="evenodd"/><path fill="rgb(100%, 100%, 100%)" d="M 370.425781 941.71875 C 367.460938 943.695312 367.128906 945.089844 369.4375 945.089844 C 371.9375 944.871094 373.914062 943.734375 375.378906 941.71875 C 377.929688 937.667969 376.617188 937.667969 370.425781 941.71875 Z M 370.425781 941.71875 " fill-opacity="1" fill-rule="evenodd"/><path fill="rgb(100%, 100%, 100%)" d="M 355.671875 948.386719 C 354.683594 950.457031 355.671875 950.78125 358.636719 949.792969 C 364.496094 947.398438 365.484375 945.089844 360.863281 945.089844 C 359.769531 945.152344 358.761719 945.472656 357.835938 946.058594 C 356.910156 946.648438 356.191406 947.429688 355.671875 948.386719 Z M 355.671875 948.386719 " fill-opacity="1" fill-rule="evenodd"/><path fill="rgb(100%, 100%, 100%)" d="M 1059.433594 963.320312 C 1062.996094 965.527344 1066.8125 967.097656 1070.894531 968.023438 C 1072.878906 968.023438 1070.894531 965.953125 1065.949219 963.320312 C 1062.433594 960.988281 1058.613281 959.398438 1054.492188 958.535156 C 1052.835938 958.867188 1054.816406 960.925781 1059.433594 963.320312 Z M 1059.433594 963.320312 " fill-opacity="1" fill-rule="evenodd"/><path fill="rgb(100%, 100%, 100%)" d="M 542.027344 964.308594 C 545.292969 964.976562 548.5625 964.976562 551.839844 964.308594 C 553.816406 963.238281 551.839844 962.582031 545.980469 962.582031 C 540.121094 962.582031 538.726562 963.320312 542.027344 964.308594 Z M 542.027344 964.308594 " fill-opacity="1" fill-rule="evenodd"/><path fill="rgb(100%, 100%, 100%)" d="M 957.027344 964.308594 C 959.773438 964.976562 962.523438 964.976562 965.269531 964.308594 C 967.246094 963.238281 965.269531 962.582031 960.980469 962.582031 C 956.695312 962.582031 954.800781 963.320312 957.027344 964.308594 Z M 957.027344 964.308594 " fill-opacity="1" fill-rule="evenodd"/><g clip-path="url(#id2)"><path fill="rgb(100%, 100%, 100%)" d="M 473.917969 1021.042969 L 293.503906 1023.355469 L 395.246094 1026.332031 C 515.96875 1030.453125 1069.738281 1029.378906 1161.355469 1025.664062 C 1223.03125 1023.03125 1220.722656 1022.617188 1101.902344 1022.28125 C 1034.035156 1022.28125 905.734375 1020.960938 816.523438 1020.636719 C 727.300781 1020.304688 573.359375 1020.304688 473.917969 1021.042969 Z M 473.917969 1021.042969 " fill-opacity="1" fill-rule="evenodd"/></g><g fill="rgb(100%, 100%, 100%)" fill-opacity="1"><g transform="translate(589.42194, 1095.024224)"><g><path d="M 20.710938 -51.960938 C 19.882812 -55.125 16.566406 -57.082031 13.101562 -57.082031 C 10.316406 -57.082031 7.457031 -55.804688 5.875 -52.789062 C 2.9375 -47.066406 1.429688 -25.453125 1.429688 -5.796875 C 1.429688 9.5625 2.335938 23.648438 4.21875 28.015625 C 5.195312 30.347656 8.660156 32.15625 11.445312 32.15625 C 13.101562 32.15625 14.460938 31.554688 14.984375 30.199219 C 16.792969 25.679688 17.621094 11.898438 17.695312 8.359375 C 17.695312 8.359375 21.460938 7.984375 24.476562 4.820312 C 28.992188 12.351562 30.875 21.238281 31.628906 25.378906 C 32.15625 28.242188 34.566406 29.597656 37.277344 29.597656 C 41.191406 29.597656 45.710938 26.808594 45.785156 22.066406 L 45.785156 21.765625 C 45.785156 15.964844 41.871094 4.96875 33.8125 -3.3125 C 42.097656 -12.878906 48.195312 -32.683594 48.195312 -48.648438 L 48.195312 -50.605469 C 48.121094 -52.867188 46.238281 -53.996094 44.429688 -53.996094 C 42.773438 -53.996094 41.269531 -53.015625 41.269531 -51.132812 L 41.269531 -50.90625 C 40.742188 -47.820312 38.40625 -5.648438 18.601562 2.863281 C 18.601562 2.785156 21.539062 -24.097656 21.539062 -40.96875 C 21.539062 -45.710938 21.3125 -49.703125 20.710938 -51.960938 Z M 20.710938 -51.960938 "/></g></g></g><g fill="rgb(100%, 100%, 100%)" fill-opacity="1"><g transform="translate(647.699805, 1095.024224)"><g><path d="M 15.289062 20.105469 C 16.117188 18.828125 18.675781 -18.074219 18.675781 -38.933594 C 18.675781 -43.679688 18.527344 -47.59375 18.222656 -50.078125 C 17.773438 -53.167969 13.78125 -55.652344 9.941406 -55.652344 C 6.851562 -55.652344 3.914062 -54.070312 3.011719 -49.777344 C 2.410156 -45.335938 2.183594 -39.234375 2.183594 -32.457031 C 2.183594 -10.242188 4.746094 19.054688 5.875 20.632812 C 7.230469 22.367188 8.8125 23.121094 10.316406 23.121094 C 12.273438 23.121094 14.15625 21.914062 15.289062 20.105469 Z M 15.289062 20.105469 "/></g></g></g><g fill="rgb(100%, 100%, 100%)" fill-opacity="1"><g transform="translate(677.443494, 1095.024224)"><g><path d="M 23.34375 23.421875 C 39.460938 23.421875 42.171875 7.304688 42.171875 1.65625 C 42.171875 1.203125 42.097656 0.828125 42.097656 0.527344 C 41.871094 -1.429688 39.613281 -2.710938 37.277344 -2.710938 C 34.867188 -2.710938 32.382812 -1.28125 32.382812 2.183594 L 32.382812 2.863281 C 32.382812 8.507812 29.820312 18.300781 24.171875 18.375 L 24.097656 18.375 C 20.484375 18.375 19.429688 8.660156 19.429688 -1.957031 C 19.429688 -14.460938 20.933594 -28.089844 21.386719 -28.089844 C 24.476562 -28.164062 31.78125 -29.070312 33.136719 -29.972656 C 33.664062 -30.347656 33.886719 -30.800781 33.886719 -31.253906 C 33.886719 -32.308594 32.683594 -33.285156 31.855469 -33.585938 C 30.800781 -33.886719 23.796875 -34.414062 22.367188 -34.640625 C 21.613281 -34.640625 21.3125 -34.792969 21.3125 -35.46875 L 21.3125 -35.769531 C 21.765625 -39.085938 22.742188 -44.207031 22.742188 -48.421875 C 22.742188 -50.078125 22.59375 -51.585938 22.214844 -52.789062 C 21.765625 -54.070312 19.277344 -54.824219 16.945312 -54.824219 C 14.609375 -54.824219 12.425781 -54.144531 12.199219 -52.640625 C 11.671875 -51.660156 10.46875 -36.902344 10.167969 -34.492188 C 5.875 -34.492188 2.035156 -32.457031 2.035156 -31.101562 L 2.035156 -31.027344 C 2.484375 -28.765625 6.023438 -28.242188 9.488281 -27.863281 C 9.113281 -17.921875 8.660156 -9.261719 8.660156 -2.109375 C 8.660156 14.535156 11.144531 23.421875 22.96875 23.421875 Z M 23.34375 23.421875 "/></g></g></g><g fill="rgb(100%, 100%, 100%)" fill-opacity="1"><g transform="translate(729.924187, 1095.024224)"><g><path d="M 29.671875 24.25 C 29.898438 24.25 30.199219 24.324219 30.425781 24.324219 C 34.414062 24.324219 36.523438 21.011719 37.578125 16.945312 C 38.332031 13.78125 41.117188 2.9375 41.117188 -7.90625 C 41.117188 -20.859375 37.203125 -33.886719 21.3125 -33.886719 L 20.03125 -33.886719 C 7.984375 -33.886719 1.808594 -26.882812 1.808594 -16.644531 C 1.808594 -16.117188 1.882812 -15.511719 1.882812 -14.984375 C 2.035156 -12.425781 4.292969 -10.996094 6.402344 -10.996094 C 8.285156 -10.996094 10.015625 -12.125 10.015625 -14.683594 C 10.167969 -26.359375 15.964844 -30.046875 19.578125 -30.199219 C 29.445312 -29.898438 28.089844 -15.890625 28.316406 -7.53125 L 28.316406 -7.230469 C 28.316406 -6.777344 28.242188 -6.550781 28.015625 -6.550781 C 27.261719 -6.550781 24.777344 -9.488281 18.675781 -9.488281 C 7.984375 -9.488281 2.183594 0.152344 2.183594 7.832031 C 2.183594 9.261719 2.410156 10.542969 2.785156 11.746094 C 4.667969 17.695312 8.285156 22.96875 17.171875 22.96875 L 18.222656 22.96875 C 25.003906 22.59375 26.507812 17.847656 26.960938 17.847656 C 26.960938 17.847656 27.035156 17.847656 27.035156 17.921875 C 27.1875 18.375 27.261719 18.828125 27.261719 19.277344 C 27.261719 20.484375 26.808594 21.539062 26.808594 22.441406 C 26.808594 23.421875 27.335938 24.023438 29.671875 24.25 Z M 18.976562 18.675781 C 13.328125 18.527344 12.199219 12.800781 12.199219 8.207031 C 12.199219 5.648438 12.578125 3.390625 12.652344 2.863281 C 13.179688 -0.0742188 14.984375 -5.046875 21.765625 -5.121094 C 24.625 -5.121094 28.542969 -2.710938 28.542969 -1.808594 L 28.542969 1.957031 C 28.542969 3.613281 28.464844 6.175781 27.863281 11.671875 C 27.714844 13.328125 24.25 18.675781 19.054688 18.675781 Z M 18.976562 18.675781 "/></g></g></g><g fill="rgb(100%, 100%, 100%)" fill-opacity="1"><g transform="translate(781.350858, 1095.024224)"><g><path d="M 14.683594 26.359375 C 14.910156 25.226562 15.136719 24.777344 15.511719 24.777344 C 16.417969 24.777344 18.222656 27.035156 23.496094 27.035156 L 23.648438 27.035156 C 35.167969 27.035156 41.496094 15.210938 42.097656 5.496094 C 42.171875 4.746094 42.171875 3.691406 42.171875 2.558594 C 42.171875 -4.96875 40.289062 -18.976562 25.453125 -18.976562 L 24.925781 -18.976562 C 19.277344 -18.828125 17.546875 -15.4375 17.171875 -15.4375 C 17.09375 -15.4375 17.09375 -15.589844 17.09375 -15.816406 C 17.171875 -21.160156 18.074219 -32.15625 18.074219 -43.679688 C 18.074219 -46.390625 18.074219 -49.101562 17.921875 -51.8125 C 17.773438 -55.351562 14.910156 -57.382812 11.972656 -57.382812 C 9.339844 -57.382812 6.550781 -55.652344 5.875 -51.8125 C 4.21875 -43.074219 2.484375 -28.542969 2.484375 -11.824219 C 2.484375 0.0742188 3.390625 13.101562 5.875 25.980469 C 6.324219 28.316406 8.207031 29.292969 10.089844 29.292969 C 12.199219 29.292969 14.308594 28.164062 14.683594 26.359375 Z M 16.792969 -9.5625 C 16.867188 -10.996094 20.183594 -13.328125 23.570312 -13.328125 C 25.003906 -13.328125 26.433594 -12.878906 27.636719 -11.898438 C 29.371094 -10.390625 30.5 -4.519531 30.5 1.957031 C 30.5 11.222656 28.242188 21.6875 22.289062 22.066406 L 21.839844 22.066406 C 19.578125 22.066406 17.695312 21.011719 15.816406 19.882812 C 15.511719 19.65625 15.4375 19.429688 15.4375 19.203125 C 15.4375 18.902344 15.511719 18.601562 15.511719 18.375 L 15.511719 17.171875 C 15.511719 15.738281 15.664062 13.933594 16.792969 -9.5625 Z M 16.792969 -9.5625 "/></g></g></g><g fill="rgb(100%, 100%, 100%)" fill-opacity="1"><g transform="translate(833.003381, 1095.024224)"><g><path d="M 29.671875 24.25 C 29.898438 24.25 30.199219 24.324219 30.425781 24.324219 C 34.414062 24.324219 36.523438 21.011719 37.578125 16.945312 C 38.332031 13.78125 41.117188 2.9375 41.117188 -7.90625 C 41.117188 -20.859375 37.203125 -33.886719 21.3125 -33.886719 L 20.03125 -33.886719 C 7.984375 -33.886719 1.808594 -26.882812 1.808594 -16.644531 C 1.808594 -16.117188 1.882812 -15.511719 1.882812 -14.984375 C 2.035156 -12.425781 4.292969 -10.996094 6.402344 -10.996094 C 8.285156 -10.996094 10.015625 -12.125 10.015625 -14.683594 C 10.167969 -26.359375 15.964844 -30.046875 19.578125 -30.199219 C 29.445312 -29.898438 28.089844 -15.890625 28.316406 -7.53125 L 28.316406 -7.230469 C 28.316406 -6.777344 28.242188 -6.550781 28.015625 -6.550781 C 27.261719 -6.550781 24.777344 -9.488281 18.675781 -9.488281 C 7.984375 -9.488281 2.183594 0.152344 2.183594 7.832031 C 2.183594 9.261719 2.410156 10.542969 2.785156 11.746094 C 4.667969 17.695312 8.285156 22.96875 17.171875 22.96875 L 18.222656 22.96875 C 25.003906 22.59375 26.507812 17.847656 26.960938 17.847656 C 26.960938 17.847656 27.035156 17.847656 27.035156 17.921875 C 27.1875 18.375 27.261719 18.828125 27.261719 19.277344 C 27.261719 20.484375 26.808594 21.539062 26.808594 22.441406 C 26.808594 23.421875 27.335938 24.023438 29.671875 24.25 Z M 18.976562 18.675781 C 13.328125 18.527344 12.199219 12.800781 12.199219 8.207031 C 12.199219 5.648438 12.578125 3.390625 12.652344 2.863281 C 13.179688 -0.0742188 14.984375 -5.046875 21.765625 -5.121094 C 24.625 -5.121094 28.542969 -2.710938 28.542969 -1.808594 L 28.542969 1.957031 C 28.542969 3.613281 28.464844 6.175781 27.863281 11.671875 C 27.714844 13.328125 24.25 18.675781 19.054688 18.675781 Z M 18.976562 18.675781 "/></g></g></g><g fill="rgb(100%, 100%, 100%)" fill-opacity="1"><g transform="translate(884.43004, 1095.024224)"><g><path d="M 30.726562 -16.039062 C 31.027344 -17.09375 31.253906 -18.527344 31.253906 -20.183594 C 31.253906 -25.453125 29.070312 -32.683594 21.539062 -34.792969 C 19.730469 -35.320312 18 -35.546875 16.492188 -35.546875 C 4.441406 -35.546875 1.808594 -20.257812 1.507812 -6.324219 L 1.507812 -4.894531 C 1.507812 5.421875 5.949219 21.988281 16.867188 22.367188 L 17.246094 22.367188 C 25.832031 22.367188 31.929688 10.84375 31.929688 4.820312 C 31.929688 2.636719 31.175781 1.203125 29.445312 1.203125 C 27.410156 1.28125 27.335938 3.011719 27.109375 4.667969 C 26.28125 10.089844 24.699219 15.964844 18.902344 15.964844 C 18.675781 15.964844 18.375 15.890625 18.074219 15.890625 C 14.535156 15.511719 12.878906 12.5 12.878906 0.828125 C 12.878906 -1.730469 12.953125 -4.746094 13.101562 -8.207031 C 16.566406 -8.734375 28.917969 -9.035156 30.726562 -16.039062 Z M 21.011719 -29.671875 C 23.722656 -28.992188 25.980469 -24.324219 25.980469 -20.558594 C 25.980469 -18.300781 25.152344 -16.417969 23.195312 -15.816406 C 20.933594 -15.136719 19.128906 -14.835938 17.695312 -14.835938 C 15.136719 -14.835938 13.855469 -15.664062 13.855469 -16.792969 L 13.855469 -17.171875 C 13.855469 -19.503906 14.835938 -29.820312 19.882812 -29.820312 C 20.257812 -29.820312 20.632812 -29.746094 21.011719 -29.671875 Z M 21.011719 -29.671875 "/></g></g></g></svg>