<svg xmlns="http://www.w3.org/2000/svg" xmlns:xlink="http://www.w3.org/1999/xlink" width="500" zoomAndPan="magnify" viewBox="0 0 375 374.999991" height="500" preserveAspectRatio="xMidYMid meet" version="1.0"><defs><g/><clipPath id="id1"><path d="M 0 0 L 375 0 L 375 268.078125 L 0 268.078125 Z M 0 0 " clip-rule="nonzero"/></clipPath><clipPath id="id2"><path d="M 234 59.570312 L 245 59.570312 L 245 81 L 234 81 Z M 234 59.570312 " clip-rule="nonzero"/></clipPath><clipPath id="id3"><path d="M 17.023438 263.378906 L 359 263.378906 L 359 266.117188 L 17.023438 266.117188 Z M 17.023438 263.378906 " clip-rule="nonzero"/></clipPath></defs><g clip-path="url(#id1)"><rect x="-37.5" width="450" fill="rgb(15.289307%, 17.248535%, 28.62854%)" y="-37.499999" height="449.999989" fill-opacity="1"/><rect x="-37.5" width="450" fill="rgb(15.289307%, 17.248535%, 28.62854%)" y="-37.499999" height="449.999989" fill-opacity="1"/><rect x="-37.5" width="450" fill="rgb(15.289307%, 17.248535%, 28.62854%)" y="-37.499999" height="449.999989" fill-opacity="1"/><rect x="-37.5" width="450" fill="rgb(15.289307%, 17.248535%, 28.62854%)" y="-37.499999" height="449.999989" fill-opacity="1"/></g><g clip-path="url(#id2)"><path fill="rgb(96.469116%, 96.469116%, 96.469116%)" d="M 237.945312 63.195312 C 237.34375 65.832031 236.445312 68.363281 235.25 70.789062 C 234.730469 71.808594 234.398438 72.886719 234.25 74.015625 C 234.101562 75.152344 234.144531 76.277344 234.382812 77.394531 L 235.25 80.183594 L 237.328125 77.269531 C 238.550781 75.917969 239.335938 74.34375 239.683594 72.558594 C 239.683594 71.535156 240.304688 70.789062 240.921875 70.789062 C 242.628906 70.789062 242.410156 72.4375 240.304688 75.347656 C 237.453125 79.285156 238.195312 80.433594 241.546875 77.113281 C 244.890625 73.796875 245.480469 68.621094 242.753906 63.195312 C 240.425781 58.359375 238.941406 58.359375 237.945312 63.195312 Z M 237.945312 63.195312 " fill-opacity="1" fill-rule="evenodd"/></g><path fill="rgb(96.469116%, 96.469116%, 96.469116%)" d="M 187.734375 64.714844 C 183.082031 76.371094 182.339844 79.410156 183.082031 82.199219 C 183.828125 84.988281 183.917969 85.113281 186.648438 79.902344 C 188.136719 76.804688 189.75 74.601562 190.089844 74.976562 C 190.429688 75.347656 189.84375 77.515625 188.753906 79.78125 C 186.152344 84.988281 187.023438 85.984375 190.339844 81.425781 C 191.867188 79.210938 192.734375 76.761719 192.941406 74.078125 C 192.941406 69.523438 188.753906 62.050781 187.734375 64.714844 Z M 187.734375 64.714844 " fill-opacity="1" fill-rule="evenodd"/><path fill="rgb(96.469116%, 96.469116%, 96.469116%)" d="M 209.214844 69.769531 C 208.421875 70.566406 207.757812 71.457031 207.214844 72.445312 C 206.675781 73.429688 206.28125 74.46875 206.03125 75.566406 C 205.785156 76.660156 205.6875 77.773438 205.746094 78.890625 C 205.8125 80.011719 206.027344 81.105469 206.394531 82.167969 C 207.476562 85.082031 207.601562 84.957031 207.726562 80.277344 C 207.847656 75.597656 207.972656 75.320312 208.84375 79.007812 C 209.335938 81.164062 210.078125 83.230469 211.074219 85.207031 C 212.191406 87.375 212.4375 87.128906 213.644531 83.566406 C 214.855469 79.996094 214.269531 66.949219 212.6875 66.949219 C 211.359375 67.675781 210.199219 68.613281 209.214844 69.769531 Z M 209.214844 69.769531 " fill-opacity="1" fill-rule="evenodd"/><path fill="rgb(96.469116%, 96.469116%, 96.469116%)" d="M 159.402344 73.582031 C 156.300781 78.664062 155.683594 81.949219 157.792969 85.984375 C 160.363281 91.15625 160.890625 90.785156 160.273438 84.339844 C 159.777344 79.875 159.898438 79.625 160.734375 82.941406 C 161.972656 88.121094 163.214844 90.042969 164.703125 89.144531 C 166.191406 88.242188 165.945312 79.84375 163.464844 75.195312 L 161.109375 70.761719 Z M 159.402344 73.582031 " fill-opacity="1" fill-rule="evenodd"/><path fill="rgb(96.469116%, 96.469116%, 96.469116%)" d="M 140.277344 74.199219 C 140.652344 75.472656 141.269531 79.285156 141.765625 82.816406 C 142.109375 85.9375 143.046875 88.863281 144.585938 91.59375 C 146.570312 93.730469 146.695312 93.605469 147.4375 87.160156 L 148.058594 80.304688 L 149.144531 86.015625 C 150.136719 91.59375 150.257812 91.71875 151.125 87.902344 C 152.984375 81.054688 150.382812 76.246094 143.226562 73.457031 C 140.152344 72.183594 139.78125 72.3125 140.277344 74.199219 Z M 140.277344 74.199219 " fill-opacity="1" fill-rule="evenodd"/><path fill="rgb(96.469116%, 96.469116%, 96.469116%)" d="M 221.300781 77.640625 C 220.171875 80.578125 218.527344 83.195312 216.371094 85.484375 C 211.449219 91.6875 207.726562 100.460938 209.464844 102.101562 C 209.835938 102.597656 212.808594 100.460938 215.660156 97.421875 C 221.859375 91.0625 223.195312 92.460938 217.398438 99.1875 L 213.550781 103.746094 L 217.398438 102.351562 C 221.703125 100.832031 226.136719 93.855469 226.136719 88.398438 C 226.136719 84.617188 223.039062 76 221.953125 76 C 221.550781 75.875 221.300781 76.617188 221.300781 77.640625 Z M 221.300781 77.640625 " fill-opacity="1" fill-rule="evenodd"/><path fill="rgb(96.469116%, 96.469116%, 96.469116%)" d="M 172.234375 84.617188 C 169.539062 91.316406 168.917969 99.808594 170.902344 103.746094 C 172.214844 105.757812 173.859375 107.453125 175.832031 108.828125 L 179.519531 111.496094 L 176.421875 104.765625 C 175.050781 102.101562 174.019531 99.308594 173.320312 96.398438 C 173.320312 93.484375 175.550781 96.023438 176.421875 99.808594 C 177.253906 102.550781 178.691406 104.925781 180.726562 106.9375 L 184.417969 110.597656 L 184.417969 103.25 C 184.640625 101.238281 184.480469 99.257812 183.941406 97.3125 C 183.410156 95.363281 182.535156 93.578125 181.320312 91.964844 C 179.46875 89.195312 177.988281 86.242188 176.886719 83.097656 C 176.523438 81.425781 175.90625 79.855469 175.023438 78.386719 C 173.960938 80.402344 173.03125 82.480469 172.234375 84.617188 Z M 172.234375 84.617188 " fill-opacity="1" fill-rule="evenodd"/><path fill="rgb(96.469116%, 96.469116%, 96.469116%)" d="M 195.886719 89.050781 C 193.707031 91.714844 192.191406 94.710938 191.328125 98.042969 C 190.460938 103.375 192.324219 110.445312 195.050781 112.765625 C 196.875 114.285156 197 114.285156 196.011719 111.992188 C 194.675781 108.582031 193.683594 97.792969 194.925781 99.0625 C 195.667969 100.265625 196.109375 101.566406 196.257812 102.972656 C 196.875 107.03125 199.355469 112.734375 200.476562 112.734375 C 200.96875 112.734375 202.175781 110.445312 202.921875 107.648438 C 203.550781 105.960938 203.824219 104.210938 203.738281 102.410156 C 203.652344 100.605469 203.214844 98.890625 202.425781 97.265625 C 201.359375 94.242188 200.585938 91.136719 200.101562 87.964844 L 199.726562 84.152344 Z M 195.886719 89.050781 " fill-opacity="1" fill-rule="evenodd"/><path fill="rgb(96.469116%, 96.469116%, 96.469116%)" d="M 248.671875 86.386719 C 245.355469 88.273438 240.675781 95.683594 241.546875 97.917969 C 241.917969 98.9375 242.164062 98.816406 242.164062 97.917969 C 242.164062 96.023438 251.152344 91.1875 254.25 91.316406 C 255.710938 91.316406 255.089844 92.089844 252.640625 93.109375 C 248.457031 95.003906 243.339844 100.582031 243.339844 103.375 C 243.339844 106.164062 251.121094 105.667969 255.429688 103.375 C 257.492188 102.214844 259.34375 100.777344 260.980469 99.0625 C 263.179688 97.082031 265.625 95.476562 268.324219 94.261719 C 271.050781 92.988281 273.253906 91.59375 273.253906 91.15625 C 271.449219 89.496094 269.382812 88.273438 267.054688 87.5 C 260.171875 84.371094 252.828125 83.96875 248.671875 86.386719 Z M 248.671875 86.386719 " fill-opacity="1" fill-rule="evenodd"/><path fill="rgb(96.469116%, 96.469116%, 96.469116%)" d="M 116.597656 98.414062 C 116.660156 99.007812 116.773438 99.597656 116.941406 100.175781 C 117.109375 100.75 117.324219 101.304688 117.589844 101.84375 C 117.859375 102.382812 118.167969 102.894531 118.527344 103.375 C 118.886719 103.855469 119.285156 104.300781 119.722656 104.710938 C 120.160156 105.125 120.628906 105.492188 121.132812 105.820312 C 121.636719 106.148438 122.164062 106.425781 122.71875 106.65625 C 123.269531 106.890625 123.839844 107.070312 124.429688 107.199219 C 125.015625 107.332031 125.605469 107.410156 126.203125 107.433594 C 129.054688 107.433594 129.304688 107.433594 126.953125 106.289062 C 125.226562 105.554688 123.789062 104.445312 122.640625 102.972656 C 120.902344 100.925781 121.027344 100.925781 123.507812 102.191406 C 125.15625 103.128906 126.921875 103.632812 128.808594 103.714844 C 131.011719 103.714844 131.132812 103.34375 130.050781 101.171875 C 128.964844 99 123.847656 95.746094 118.832031 94.351562 C 115.601562 93.667969 115.480469 93.667969 116.597656 98.414062 Z M 116.597656 98.414062 " fill-opacity="1" fill-rule="evenodd"/><path fill="rgb(96.469116%, 96.469116%, 96.469116%)" d="M 137.800781 97.050781 C 137.117188 99.878906 136.839844 102.75 136.964844 105.660156 C 137.089844 108.566406 137.617188 111.402344 138.542969 114.164062 C 140.277344 117.449219 145.828125 120.980469 147.191406 119.585938 C 147.5625 119.09375 146.449219 117.449219 144.585938 115.804688 C 142.964844 114.589844 141.851562 113.019531 141.238281 111.09375 C 141.238281 109.976562 141.734375 109.976562 142.820312 111.371094 C 145.15625 114.132812 147.996094 116.203125 151.347656 117.570312 C 152.832031 117.570312 152.582031 112.765625 150.96875 109.574219 C 148.886719 106.484375 146.582031 103.570312 144.058594 100.832031 C 139.535156 96.023438 138.417969 95.25 137.800781 97.050781 Z M 137.800781 97.050781 " fill-opacity="1" fill-rule="evenodd"/><path fill="rgb(96.469116%, 96.469116%, 96.469116%)" d="M 228.710938 96.398438 C 228.710938 99.0625 218.851562 111.371094 214.019531 114.65625 C 205.152344 120.609375 193.5625 141.039062 190.339844 156.105469 C 189.503906 160.167969 188.507812 162.957031 188.011719 162.308594 C 186.765625 158.261719 185.976562 154.128906 185.65625 149.90625 C 185.0625 143.957031 183.542969 138.253906 181.097656 132.792969 C 179.242188 129.382812 178.246094 128.234375 178.746094 130.128906 C 182.589844 147.117188 182.589844 153.964844 178.746094 146.621094 C 175.804688 141.140625 171.976562 136.367188 167.273438 132.300781 C 166.40625 131.769531 167.027344 133.289062 168.765625 135.957031 C 171.78125 140.078125 174.152344 144.546875 175.875 149.359375 C 177.589844 154.171875 178.59375 159.125 178.871094 164.226562 C 179.320312 167.660156 179.320312 171.089844 178.871094 174.519531 C 175.75 173.394531 172.710938 172.082031 169.753906 170.585938 C 165.078125 168.414062 159.777344 166.152344 157.667969 165.5 C 154.226562 164.476562 154.105469 164.628906 156.425781 166.273438 C 157.953125 167.34375 159.386719 168.523438 160.734375 169.808594 C 162.097656 171.023438 163.585938 172.054688 165.199219 172.90625 C 167.460938 174.710938 169.230469 176.910156 170.5 179.511719 C 172.824219 184.195312 172.574219 186.113281 169.878906 183.324219 C 167.160156 182.148438 164.316406 181.507812 161.355469 181.40625 C 157.296875 181.03125 154.816406 181.152344 155.808594 181.683594 C 162.511719 185.734375 168.429688 190.714844 173.570312 196.625 C 175.925781 200.226562 177.648438 204.117188 178.746094 208.28125 C 179.570312 210.652344 180.027344 213.09375 180.109375 215.605469 C 180.195312 218.117188 179.90625 220.585938 179.242188 223.007812 C 178.640625 226.578125 177.410156 229.914062 175.550781 233.019531 C 173.445312 235.8125 173.445312 236.121094 175.304688 238.351562 C 177.164062 240.582031 177.410156 240.738281 174.066406 238.351562 C 172.203125 237.082031 170.625 235.5625 170.625 235.035156 C 170.625 234.507812 157.542969 226.417969 147.933594 221.609375 C 131.875 213.613281 107.203125 211.351562 89.042969 216.15625 C 80.644531 218.449219 55.96875 229.453125 55.96875 231.007812 C 55.96875 231.378906 56.339844 231.378906 56.960938 231.007812 C 57.578125 230.636719 61.144531 228.835938 65.234375 226.941406 C 87.429688 216.527344 102.214844 213.488281 119.605469 216.03125 C 137.863281 218.695312 159.214844 228.835938 171.058594 240.492188 C 174.621094 244.058594 176.359375 246.070312 174.992188 245.203125 C 173.667969 244.289062 172.4375 243.253906 171.304688 242.105469 C 162.78125 232.800781 141.953125 223.96875 123.570312 221.796875 C 110.492188 220.28125 90.746094 224.710938 65.484375 234.726562 C 62.691406 235.585938 60.097656 236.859375 57.703125 238.539062 C 60.984375 237.875 64.152344 236.84375 67.191406 235.4375 C 87.304688 227.316406 99.890625 224.523438 115.171875 224.523438 C 123.683594 224 131.949219 225.191406 139.96875 228.09375 C 144.816406 229.589844 149.550781 231.398438 154.167969 233.519531 C 160.324219 237.199219 165.832031 241.6875 170.6875 246.972656 C 171.675781 248.367188 169.320312 246.972656 165.632812 243.871094 C 151.1875 231.8125 136.28125 228 111.484375 230.289062 C 101.128906 231.191406 97.289062 232.183594 83.957031 237.886719 C 78.710938 239.835938 73.65625 242.203125 68.800781 244.988281 C 73.1875 243.78125 77.421875 242.183594 81.507812 240.179688 C 87.507812 237.519531 93.632812 235.191406 99.890625 233.207031 C 108.261719 230.789062 132.683594 230.945312 140.183594 233.207031 C 146.386719 235.128906 160.765625 242.722656 160.765625 244.121094 C 162.179688 245.832031 163.832031 247.269531 165.726562 248.425781 C 171.925781 252.738281 171.523438 253.636719 164.984375 250.445312 C 148.335938 242.226562 140.183594 240.179688 126.234375 240.304688 L 115.757812 240.554688 L 126.234375 241.453125 C 135.976562 242.011719 145.273438 244.339844 154.136719 248.425781 C 155.644531 249.285156 157.246094 249.917969 158.9375 250.320312 C 160.722656 250.988281 162.324219 251.960938 163.742188 253.234375 L 167.304688 256.332031 L 151.40625 257.078125 C 142.632812 257.574219 114.519531 257.976562 89.011719 257.976562 C 63.5 257.976562 42.363281 258.9375 42.046875 259.433594 C 41.738281 259.929688 75.464844 260.984375 117.03125 261.355469 C 200.722656 262.347656 342.253906 261.109375 342.253906 259.433594 C 342.253906 258.9375 320.554688 258.320312 293.898438 258.320312 C 267.238281 258.320312 238.101562 257.792969 229.390625 257.292969 L 213.335938 256.519531 L 216.933594 254.007812 C 225.921875 247.808594 240.242188 243.21875 254.652344 241.949219 L 265.222656 241.046875 L 255.339844 241.046875 C 250.125 240.882812 244.953125 241.285156 239.824219 242.246094 C 234.695312 243.207031 229.730469 244.710938 224.929688 246.757812 C 222.789062 247.976562 220.523438 248.90625 218.140625 249.546875 C 216.144531 250.285156 214.382812 251.390625 212.839844 252.863281 C 210.730469 254.75 208.75 255.960938 208.375 255.652344 C 207.167969 254.253906 225.644531 240.152344 233.546875 236.492188 C 241.453125 232.832031 243.277344 232.554688 257.101562 232.058594 C 273.625 231.441406 281.402344 232.554688 293.496094 237.640625 C 295.976562 238.835938 298.570312 239.679688 301.277344 240.179688 C 298.300781 238.246094 295.128906 236.730469 291.757812 235.621094 C 284.597656 233.128906 277.257812 231.449219 269.722656 230.59375 C 262.191406 229.730469 254.65625 229.714844 247.125 230.542969 C 244.128906 230.78125 241.171875 231.269531 238.257812 232 C 235.34375 232.734375 232.511719 233.707031 229.761719 234.914062 C 227.011719 236.125 224.378906 237.550781 221.867188 239.203125 C 219.351562 240.847656 217 242.695312 214.792969 244.738281 C 212.980469 246.605469 210.914062 248.125 208.597656 249.292969 C 207.726562 248.550781 222.542969 236.371094 227.191406 233.796875 C 229.300781 232.800781 235.589844 230.386719 241.390625 228.371094 C 245.386719 227.195312 249.449219 226.296875 253.570312 225.675781 C 257.691406 225.054688 261.835938 224.714844 266.003906 224.660156 C 270.167969 224.605469 274.324219 224.832031 278.457031 225.347656 C 282.59375 225.859375 286.675781 226.648438 290.707031 227.722656 C 305.023438 232.152344 307.382812 232.152344 295.167969 227.722656 C 290.625 225.972656 285.960938 224.628906 281.183594 223.6875 C 276.402344 222.75 271.585938 222.226562 266.714844 222.113281 C 261.847656 222.003906 257.003906 222.316406 252.191406 223.042969 C 247.378906 223.769531 242.660156 224.910156 238.039062 226.449219 C 234.105469 227.96875 229.421875 229.546875 227.691406 230.257812 C 221.890625 232.027344 214.609375 237.609375 204.875 247.621094 C 199.574219 253.078125 196.351562 255.746094 197.839844 253.820312 C 203.234375 245.574219 216.25 234.601562 228.03125 228.125 C 245.171875 218.820312 255.398438 216.09375 273.035156 216.09375 C 285.621094 216.09375 288.535156 216.589844 298.578125 220.15625 C 304.644531 222.207031 310.5625 224.613281 316.335938 227.375 C 318.402344 228.792969 320.667969 229.722656 323.128906 230.167969 C 324.242188 229.019531 301.429688 219.007812 292.128906 216.589844 C 273.253906 211.660156 247.992188 213.921875 232.429688 222.042969 C 218.140625 229.515625 213.832031 232.183594 208.128906 237.144531 C 204.8125 240.058594 203.328125 240.925781 205.027344 239.035156 L 208.128906 235.621094 L 203.820312 231.039062 L 199.636719 226.601562 L 200.128906 213.425781 C 200.507812 193.402344 206.921875 169.4375 214.671875 159.019531 C 220.199219 152.832031 226.71875 147.976562 234.230469 144.449219 C 237.328125 143.179688 237.050781 143.179688 230.542969 143.707031 C 222.761719 144.449219 209.183594 151.050781 204.996094 156.105469 C 202.921875 158.773438 202.921875 158.773438 202.921875 152.574219 C 202.921875 140.761719 211.449219 120.980469 218.851562 115.804688 C 221.371094 113.425781 223.535156 110.761719 225.355469 107.8125 C 227.171875 104.859375 228.582031 101.730469 229.578125 98.414062 C 229.949219 96.519531 229.949219 94.878906 229.578125 94.878906 C 229.207031 94.878906 228.710938 95.5 228.710938 96.398438 Z M 175.800781 251.773438 C 177.410156 253.789062 177.289062 253.914062 175.425781 252.273438 C 173.570312 250.628906 172.699219 249.609375 173.695312 249.609375 C 174.535156 250.191406 175.238281 250.914062 175.800781 251.773438 Z M 184.171875 255.1875 C 183.828125 255.589844 182.835938 254.566406 181.96875 253.046875 C 180.355469 250.382812 180.480469 250.382812 182.589844 252.398438 C 183.828125 253.605469 184.636719 254.878906 184.171875 255.125 Z M 204.65625 254.6875 C 203.417969 256.085938 202.175781 256.984375 201.804688 256.582031 C 201.433594 256.179688 202.175781 254.8125 203.417969 253.480469 C 204.65625 252.148438 205.898438 251.21875 206.269531 251.589844 C 206.640625 251.960938 205.898438 253.234375 204.65625 254.625 Z M 204.65625 254.6875 " fill-opacity="1" fill-rule="evenodd"/><path fill="rgb(96.469116%, 96.469116%, 96.469116%)" d="M 160.859375 107.933594 C 160.675781 109.664062 160.785156 111.382812 161.1875 113.074219 C 161.59375 114.773438 162.269531 116.355469 163.214844 117.820312 L 165.449219 120.734375 L 166.285156 117.941406 C 166.722656 116.125 166.722656 114.304688 166.285156 112.488281 C 165.695312 110.597656 165.820312 110.097656 166.78125 110.597656 C 167.804688 111.851562 168.296875 113.289062 168.269531 114.90625 C 168.269531 118.191406 168.269531 118.191406 169.382812 115.554688 C 169.550781 114.980469 169.671875 114.394531 169.742188 113.800781 C 169.8125 113.203125 169.832031 112.601562 169.804688 112.003906 C 169.777344 111.40625 169.699219 110.8125 169.574219 110.222656 C 169.445312 109.636719 169.273438 109.066406 169.050781 108.511719 C 168.828125 107.953125 168.5625 107.414062 168.253906 106.902344 C 167.945312 106.386719 167.589844 105.90625 167.199219 105.449219 C 166.808594 104.996094 166.382812 104.570312 165.921875 104.1875 C 165.464844 103.804688 164.976562 103.460938 164.453125 103.15625 L 160.734375 100.984375 Z M 160.859375 107.933594 " fill-opacity="1" fill-rule="evenodd"/><path fill="rgb(96.469116%, 96.469116%, 96.469116%)" d="M 230.195312 110.847656 C 228.960938 113.265625 229.703125 117.695312 231.285156 117.695312 C 234.429688 115.855469 236.855469 113.320312 238.570312 110.097656 C 238.570312 107.933594 231.40625 108.707031 230.195312 110.847656 Z M 230.195312 110.847656 " fill-opacity="1" fill-rule="evenodd"/><path fill="rgb(96.469116%, 96.469116%, 96.469116%)" d="M 256.949219 114.039062 C 247.09375 116.425781 246.46875 116.828125 244.117188 121.632812 L 242.164062 125.320312 L 246.96875 125.320312 C 249.53125 125.328125 251.914062 124.6875 254.128906 123.398438 C 258.191406 120.300781 259.179688 121.386719 255.214844 124.671875 C 253.347656 126.367188 251.167969 127.402344 248.671875 127.773438 C 247.09375 127.773438 246.222656 128.296875 246.59375 129.039062 C 247.589844 130.808594 253.753906 130.6875 257.570312 128.792969 C 261.382812 126.90625 266.09375 117.757812 265.472656 114.222656 C 265.222656 112.269531 264.726562 112.269531 256.949219 114.039062 Z M 256.949219 114.039062 " fill-opacity="1" fill-rule="evenodd"/><path fill="rgb(96.469116%, 96.469116%, 96.469116%)" d="M 101.191406 113.511719 C 100.199219 114.535156 100.199219 124.425781 101.191406 127.214844 C 102.324219 128.917969 103.796875 130.230469 105.625 131.148438 C 109.066406 133.042969 109.1875 133.042969 107.949219 130.5 C 107.316406 129.222656 106.460938 128.128906 105.378906 127.214844 C 105.003906 126.980469 104.699219 126.667969 104.480469 126.285156 C 104.261719 125.898438 104.148438 125.484375 104.136719 125.042969 C 104.136719 124.175781 105.75 125.042969 107.574219 126.96875 C 112.039062 131.398438 113.25 131.273438 112.289062 126.4375 C 111.050781 119.867188 103.515625 111.09375 101.191406 113.511719 Z M 101.191406 113.511719 " fill-opacity="1" fill-rule="evenodd"/><path fill="rgb(96.469116%, 96.469116%, 96.469116%)" d="M 120.160156 115.371094 C 120.796875 117.941406 121.628906 120.453125 122.640625 122.902344 C 124.503906 127.214844 126.203125 129.351562 128.191406 129.878906 C 133.242188 131.148438 134.386719 129.632812 130.175781 127.339844 C 124.84375 124.546875 125.585938 123.648438 131.503906 125.570312 C 137.425781 127.492188 138.542969 126.066406 134.605469 121.882812 C 131.132812 118.46875 120.160156 113.386719 120.160156 115.371094 Z M 120.160156 115.371094 " fill-opacity="1" fill-rule="evenodd"/><path fill="rgb(96.469116%, 96.469116%, 96.469116%)" d="M 188.878906 118.84375 C 186.398438 123.273438 186.152344 129.476562 188.382812 131.519531 C 189.71875 132.546875 189.964844 132.015625 189.625 128.730469 L 189.128906 124.671875 L 191.082031 128.980469 C 193.683594 134.808594 194.675781 133.164062 193.683594 125.042969 C 192.570312 115.804688 191.453125 114.410156 188.878906 118.84375 Z M 188.878906 118.84375 " fill-opacity="1" fill-rule="evenodd"/><path fill="rgb(96.469116%, 96.469116%, 96.469116%)" d="M 226.230469 125.695312 C 215.257812 129.476562 210.730469 135.214844 220.03125 133.660156 C 225.707031 132.792969 226.449219 133.660156 221.644531 135.707031 C 218.542969 136.976562 218.542969 137.226562 220.777344 137.597656 C 226.972656 138.746094 234.476562 131.398438 233.363281 125.570312 C 233.019531 123.523438 232.523438 123.523438 226.230469 125.695312 Z M 226.230469 125.695312 " fill-opacity="1" fill-rule="evenodd"/><path fill="rgb(96.469116%, 96.469116%, 96.469116%)" d="M 282.492188 125.042969 C 280.898438 126.164062 279.128906 126.804688 277.191406 126.96875 C 271.765625 127.957031 266.558594 131.273438 267.671875 133.164062 C 268.167969 133.941406 270.277344 134.0625 272.726562 133.539062 C 275.824219 133.042969 276.820312 133.164062 276.195312 134.0625 C 275.8125 134.515625 275.347656 134.863281 274.804688 135.113281 C 274.261719 135.355469 273.691406 135.472656 273.097656 135.460938 C 271.890625 135.460938 270.773438 135.957031 270.773438 136.730469 C 270.773438 138.871094 276.445312 138.125 279.761719 135.460938 C 281.71875 133.691406 283.046875 131.53125 283.730469 128.980469 C 284.441406 125.042969 283.824219 122.902344 282.492188 125.042969 Z M 282.492188 125.042969 " fill-opacity="1" fill-rule="evenodd"/><path fill="rgb(96.469116%, 96.469116%, 96.469116%)" d="M 144.585938 128.855469 L 141.238281 131.148438 L 147.035156 133.941406 C 149.800781 135.34375 152.710938 136.273438 155.777344 136.730469 C 158.628906 136.730469 158.875 136.730469 156.519531 134.1875 C 155.40625 132.859375 154.011719 131.96875 152.335938 131.519531 C 151.09375 131.519531 150.96875 131.148438 151.839844 130.871094 C 152.589844 130.742188 153.335938 130.753906 154.082031 130.90625 C 154.824219 131.0625 155.515625 131.351562 156.148438 131.769531 L 159 133.289062 L 155.898438 129.878906 C 152.492188 126.066406 149.269531 125.695312 144.585938 128.855469 Z M 144.585938 128.855469 " fill-opacity="1" fill-rule="evenodd"/><path fill="rgb(96.469116%, 96.469116%, 96.469116%)" d="M 248.457031 138.871094 C 244.242188 140.917969 244.242188 141.039062 247.21875 141.414062 C 253.414062 142.308594 259.613281 144.511719 259.613281 145.71875 C 259.613281 146.464844 258.5 146.621094 256.886719 146.09375 C 252.859375 145.019531 248.828125 145.019531 244.800781 146.09375 C 242.722656 146.746094 242.597656 147.238281 243.929688 149.410156 C 245.914062 152.820312 252.457031 155.609375 261.445312 156.882812 C 264.769531 157.210938 268.023438 157.882812 271.210938 158.894531 C 273.160156 159.671875 273.28125 159.421875 272.539062 156.882812 C 271.402344 153.914062 269.996094 151.085938 268.324219 148.386719 C 262.621094 138.5 255.925781 135.214844 248.457031 138.871094 Z M 248.457031 138.871094 " fill-opacity="1" fill-rule="evenodd"/><path fill="rgb(96.469116%, 96.469116%, 96.469116%)" d="M 111.296875 138.871094 C 108.199219 139.644531 108.445312 140.636719 112.535156 144.449219 C 114.378906 146.332031 116.105469 148.316406 117.710938 150.402344 C 118.617188 151.359375 119.648438 152.140625 120.808594 152.75 C 121.972656 153.359375 123.203125 153.765625 124.503906 153.964844 C 129.304688 154.835938 129.425781 154.710938 127.324219 152.324219 C 126.230469 151.207031 125.484375 149.898438 125.089844 148.386719 C 125.089844 147.613281 123.878906 146.09375 122.394531 145.101562 C 120.902344 144.109375 120.285156 143.054688 121.152344 143.054688 C 123.222656 143.96875 124.953125 145.320312 126.328125 147.117188 L 130.050781 151.304688 L 128.839844 147.488281 C 125.742188 139.242188 120.160156 136.453125 111.296875 138.871094 Z M 111.296875 138.871094 " fill-opacity="1" fill-rule="evenodd"/><path fill="rgb(96.469116%, 96.469116%, 96.469116%)" d="M 133.738281 141.414062 C 133.738281 149.132812 137.925781 155.609375 143.035156 155.609375 C 145.265625 155.609375 145.144531 155.609375 142.445312 153.839844 L 139.347656 151.921875 L 143.410156 152.695312 C 146.261719 153.316406 147.375 153.066406 147.375 151.796875 C 147.375 149.132812 145.890625 147.238281 141.179688 144.078125 C 133.863281 138.992188 133.738281 138.992188 133.738281 141.414062 Z M 133.738281 141.414062 " fill-opacity="1" fill-rule="evenodd"/><path fill="rgb(96.469116%, 96.469116%, 96.469116%)" d="M 153.851562 143.832031 L 150.753906 147.238281 L 156.671875 149.535156 C 162.347656 151.675781 168.394531 151.675781 168.394531 149.535156 C 168.394531 148.882812 166.40625 147.734375 164.207031 146.867188 C 162.003906 146 160.148438 144.820312 160.488281 144.324219 C 160.828125 143.832031 162.597656 143.832031 164.453125 144.324219 L 167.773438 145.59375 L 164.671875 143.054688 C 160.859375 139.644531 157.667969 139.890625 153.851562 143.832031 Z M 153.851562 143.832031 " fill-opacity="1" fill-rule="evenodd"/><path fill="rgb(96.469116%, 96.469116%, 96.469116%)" d="M 231.128906 155.859375 C 231.128906 158.277344 236.089844 165.75 238.910156 167.796875 C 240.394531 168.785156 240.890625 169.683594 239.902344 169.683594 C 237.59375 168.652344 235.621094 167.171875 233.980469 165.253906 L 229.671875 160.820312 L 230.542969 164.226562 C 231.234375 166.796875 232.503906 169.039062 234.351562 170.957031 C 236.925781 173.625 238.410156 174.058594 244.210938 174.058594 C 252.859375 173.808594 254.5625 172.289062 250.128906 168.601562 C 247.90625 166.644531 246.027344 164.398438 244.488281 161.871094 C 241.546875 156.882812 231.128906 152.199219 231.128906 155.859375 Z M 231.128906 155.859375 " fill-opacity="1" fill-rule="evenodd"/><path fill="rgb(96.469116%, 96.469116%, 96.469116%)" d="M 107.453125 158.027344 C 105.253906 160.539062 101.253906 169.683594 102.027344 170.429688 C 104.507812 170.226562 106.898438 169.636719 109.1875 168.664062 C 110.832031 168.269531 112.351562 167.601562 113.753906 166.664062 C 115.15625 165.726562 116.351562 164.570312 117.339844 163.207031 C 118.707031 160.539062 118.582031 160.105469 116.472656 159.796875 C 114.691406 159.652344 113.003906 159.992188 111.421875 160.820312 C 109.3125 161.933594 108.941406 161.933594 109.3125 160.820312 C 109.683594 159.703125 111.792969 158.523438 114.117188 157.71875 L 118.332031 156.199219 L 113.871094 156.199219 C 112.71875 156.03125 111.582031 156.105469 110.464844 156.421875 C 109.34375 156.746094 108.34375 157.277344 107.453125 158.027344 Z M 107.453125 158.027344 " fill-opacity="1" fill-rule="evenodd"/><path fill="rgb(96.469116%, 96.469116%, 96.469116%)" d="M 123.753906 165.996094 C 122.269531 167.4375 121.070312 169.09375 120.160156 170.957031 C 120.160156 172.351562 135.105469 173.871094 137.800781 172.722656 C 141.394531 171.328125 139.535156 169.1875 133.738281 167.640625 C 129.804688 166.644531 128.933594 166.121094 130.636719 165.5 C 132.449219 165.050781 134.253906 165.050781 136.0625 165.5 L 139.378906 166.121094 L 136.28125 164.226562 C 131.382812 161.066406 127.695312 161.683594 123.753906 165.996094 Z M 123.753906 165.996094 " fill-opacity="1" fill-rule="evenodd"/><path fill="rgb(96.469116%, 96.469116%, 96.469116%)" d="M 217.613281 168.414062 C 218.269531 170.15625 219.300781 171.632812 220.714844 172.84375 C 222.574219 174.613281 223.441406 175.949219 222.824219 175.949219 C 221.640625 175.660156 220.691406 175.03125 219.972656 174.058594 C 219.257812 173.085938 218.320312 172.453125 217.152344 172.164062 C 216.402344 172.164062 217.398438 173.808594 219.347656 175.949219 C 223.070312 180.007812 227.128906 180.78125 230.945312 178.238281 C 233.175781 176.847656 232.925781 176.351562 227.003906 172.039062 C 221.085938 167.734375 217.613281 165.996094 217.613281 168.414062 Z M 217.613281 168.414062 " fill-opacity="1" fill-rule="evenodd"/><path fill="rgb(96.469116%, 96.469116%, 96.469116%)" d="M 126.203125 176.910156 C 123.871094 178.25 121.941406 180.027344 120.410156 182.242188 L 116.597656 187.171875 L 119.914062 187.820312 C 124.503906 188.6875 129.925781 185.527344 130.050781 181.871094 C 130.050781 181.214844 128.933594 181.714844 127.570312 182.984375 C 124.472656 185.773438 124.472656 184.660156 127.074219 180.316406 C 129.304688 176.910156 129.179688 176.289062 126.203125 176.910156 Z M 126.203125 176.910156 " fill-opacity="1" fill-rule="evenodd"/><path fill="rgb(96.469116%, 96.469116%, 96.469116%)" d="M 138.667969 181.089844 L 134.851562 186.023438 L 137.675781 186.800781 C 141.640625 187.820312 147.3125 185.527344 147.3125 182.859375 C 147.3125 181.089844 146.941406 181.089844 145.453125 182.363281 C 143.96875 183.632812 143.226562 183.632812 142.726562 183.109375 C 142.230469 182.582031 142.507812 182.363281 143.226562 182.363281 C 143.9375 182.363281 145.082031 180.96875 145.828125 179.265625 C 148.179688 173.871094 143.226562 175.140625 138.667969 181.089844 Z M 138.667969 181.089844 " fill-opacity="1" fill-rule="evenodd"/><path fill="rgb(96.469116%, 96.469116%, 96.469116%)" d="M 240.675781 183.261719 C 237.328125 184.132812 238.695312 186.363281 243.496094 188.070312 C 245.851562 188.964844 247.09375 189.835938 246.347656 190.363281 C 245.589844 190.601562 244.820312 190.6875 244.03125 190.617188 C 243.238281 190.546875 242.492188 190.328125 241.792969 189.960938 C 236.957031 188.191406 237.945312 189.960938 242.875 191.878906 C 243.980469 192.539062 245.167969 192.921875 246.445312 193.03125 C 247.726562 193.140625 248.960938 192.964844 250.160156 192.503906 C 253.878906 191.105469 256.699219 186.300781 254.375 185.648438 C 253.507812 185.402344 250.90625 184.503906 248.578125 183.757812 C 246.964844 183.195312 245.308594 182.773438 243.617188 182.488281 C 243.246094 182.613281 241.917969 182.859375 240.675781 183.261719 Z M 240.675781 183.261719 " fill-opacity="1" fill-rule="evenodd"/><path fill="rgb(96.469116%, 96.469116%, 96.469116%)" d="M 219.101562 188.316406 C 217.863281 188.8125 217.863281 189.339844 219.101562 190.734375 C 220.34375 192.128906 220.0625 192.503906 219.570312 192.503906 C 219.070312 192.503906 219.316406 193.402344 220.1875 194.390625 C 220.878906 194.945312 221.636719 195.382812 222.464844 195.703125 C 223.289062 196.023438 224.144531 196.210938 225.03125 196.269531 C 225.914062 196.328125 226.785156 196.25 227.648438 196.042969 C 228.507812 195.835938 229.316406 195.5 230.074219 195.046875 C 231.066406 194.390625 231.53125 193.648438 231.285156 193.402344 C 228.105469 191.207031 224.777344 189.261719 221.300781 187.574219 C 220.542969 187.738281 219.808594 187.984375 219.101562 188.316406 Z M 219.101562 188.316406 " fill-opacity="1" fill-rule="evenodd"/><path fill="rgb(96.469116%, 96.469116%, 96.469116%)" d="M 331.558594 233.703125 C 334.046875 234.894531 336.640625 235.785156 339.335938 236.371094 C 339.957031 235.746094 327.867188 230.542969 325.886719 230.542969 C 325.046875 230.542969 327.621094 231.933594 331.558594 233.703125 Z M 331.558594 233.703125 " fill-opacity="1" fill-rule="evenodd"/><path fill="rgb(96.469116%, 96.469116%, 96.469116%)" d="M 306.542969 232.304688 C 313.101562 235.53125 319.878906 238.199219 326.878906 240.304688 C 324.066406 238.46875 321.082031 236.992188 317.921875 235.875 C 308.867188 232.183594 305.179688 230.914062 306.542969 232.304688 Z M 306.542969 232.304688 " fill-opacity="1" fill-rule="evenodd"/><path fill="rgb(96.469116%, 96.469116%, 96.469116%)" d="M 46.171875 234.355469 C 45.058594 235.097656 44.929688 235.621094 45.800781 235.621094 C 46.738281 235.539062 47.480469 235.113281 48.035156 234.355469 C 48.992188 232.832031 48.5 232.832031 46.171875 234.355469 Z M 46.171875 234.355469 " fill-opacity="1" fill-rule="evenodd"/><path fill="rgb(96.469116%, 96.469116%, 96.469116%)" d="M 40.625 236.863281 C 40.253906 237.640625 40.625 237.761719 41.738281 237.390625 C 43.941406 236.492188 44.3125 235.621094 42.578125 235.621094 C 42.164062 235.644531 41.785156 235.769531 41.4375 235.988281 C 41.089844 236.210938 40.820312 236.503906 40.625 236.863281 Z M 40.625 236.863281 " fill-opacity="1" fill-rule="evenodd"/><path fill="rgb(96.469116%, 96.469116%, 96.469116%)" d="M 305.179688 242.476562 C 306.515625 243.304688 307.953125 243.894531 309.488281 244.246094 C 310.234375 244.246094 309.488281 243.464844 307.628906 242.476562 C 306.304688 241.601562 304.871094 241 303.320312 240.675781 C 302.699219 240.800781 303.441406 241.578125 305.179688 242.476562 Z M 305.179688 242.476562 " fill-opacity="1" fill-rule="evenodd"/><path fill="rgb(96.469116%, 96.469116%, 96.469116%)" d="M 110.679688 242.847656 C 111.90625 243.097656 113.136719 243.097656 114.367188 242.847656 C 115.109375 242.445312 114.367188 242.199219 112.164062 242.199219 C 109.960938 242.199219 109.4375 242.476562 110.679688 242.847656 Z M 110.679688 242.847656 " fill-opacity="1" fill-rule="evenodd"/><path fill="rgb(96.469116%, 96.469116%, 96.469116%)" d="M 266.683594 242.847656 C 267.714844 243.097656 268.75 243.097656 269.78125 242.847656 C 270.523438 242.445312 269.78125 242.199219 268.167969 242.199219 C 266.558594 242.199219 265.847656 242.476562 266.683594 242.847656 Z M 266.683594 242.847656 " fill-opacity="1" fill-rule="evenodd"/><g clip-path="url(#id3)"><path fill="rgb(96.469116%, 96.469116%, 96.469116%)" d="M 85.074219 264.175781 L 17.253906 265.042969 L 55.5 266.164062 C 100.882812 267.710938 309.050781 267.308594 343.492188 265.914062 C 366.679688 264.921875 365.808594 264.765625 321.144531 264.640625 C 295.628906 264.640625 247.402344 264.144531 213.863281 264.023438 C 180.324219 263.898438 122.457031 263.898438 85.074219 264.175781 Z M 85.074219 264.175781 " fill-opacity="1" fill-rule="evenodd"/></g><g fill="rgb(100%, 100%, 100%)" fill-opacity="1"><g transform="translate(123.29231, 305.641836)"><g><path d="M 8.632812 -21.664062 C 8.289062 -22.984375 6.90625 -23.800781 5.464844 -23.800781 C 4.300781 -23.800781 3.109375 -23.265625 2.449219 -22.011719 C 1.222656 -19.625 0.597656 -10.613281 0.597656 -2.417969 C 0.597656 3.988281 0.972656 9.859375 1.757812 11.679688 C 2.167969 12.652344 3.609375 13.40625 4.773438 13.40625 C 5.464844 13.40625 6.027344 13.15625 6.25 12.589844 C 7.003906 10.707031 7.347656 4.960938 7.378906 3.484375 C 7.378906 3.484375 8.949219 3.328125 10.203125 2.007812 C 12.089844 5.148438 12.875 8.855469 13.1875 10.582031 C 13.40625 11.773438 14.414062 12.339844 15.542969 12.339844 C 17.175781 12.339844 19.058594 11.179688 19.089844 9.199219 L 19.089844 9.074219 C 19.089844 6.65625 17.457031 2.074219 14.097656 -1.382812 C 17.550781 -5.371094 20.09375 -13.628906 20.09375 -20.285156 L 20.09375 -21.101562 C 20.0625 -22.042969 19.277344 -22.511719 18.527344 -22.511719 C 17.835938 -22.511719 17.207031 -22.105469 17.207031 -21.320312 L 17.207031 -21.226562 C 16.988281 -19.9375 16.011719 -2.355469 7.753906 1.191406 C 7.753906 1.160156 8.980469 -10.046875 8.980469 -17.082031 C 8.980469 -19.058594 8.886719 -20.722656 8.632812 -21.664062 Z M 8.632812 -21.664062 "/></g></g></g><g fill="rgb(100%, 100%, 100%)" fill-opacity="1"><g transform="translate(147.590961, 305.641836)"><g><path d="M 6.375 8.382812 C 6.71875 7.851562 7.785156 -7.535156 7.785156 -16.234375 C 7.785156 -18.210938 7.722656 -19.84375 7.597656 -20.878906 C 7.410156 -22.167969 5.746094 -23.203125 4.144531 -23.203125 C 2.855469 -23.203125 1.632812 -22.542969 1.257812 -20.753906 C 1.003906 -18.902344 0.910156 -16.359375 0.910156 -13.53125 C 0.910156 -4.269531 1.976562 7.945312 2.449219 8.601562 C 3.015625 9.324219 3.671875 9.640625 4.300781 9.640625 C 5.117188 9.640625 5.902344 9.136719 6.375 8.382812 Z M 6.375 8.382812 "/></g></g></g><g fill="rgb(100%, 100%, 100%)" fill-opacity="1"><g transform="translate(159.992436, 305.641836)"><g><path d="M 9.734375 9.765625 C 16.453125 9.765625 17.582031 3.046875 17.582031 0.691406 C 17.582031 0.503906 17.550781 0.34375 17.550781 0.21875 C 17.457031 -0.597656 16.515625 -1.128906 15.542969 -1.128906 C 14.539062 -1.128906 13.5 -0.535156 13.5 0.910156 L 13.5 1.191406 C 13.5 3.546875 12.433594 7.628906 10.078125 7.660156 L 10.046875 7.660156 C 8.539062 7.660156 8.101562 3.609375 8.101562 -0.816406 C 8.101562 -6.027344 8.730469 -11.710938 8.917969 -11.710938 C 10.203125 -11.742188 13.25 -12.121094 13.816406 -12.496094 C 14.035156 -12.652344 14.128906 -12.84375 14.128906 -13.03125 C 14.128906 -13.46875 13.628906 -13.878906 13.28125 -14.003906 C 12.84375 -14.128906 9.921875 -14.347656 9.324219 -14.445312 C 9.011719 -14.445312 8.886719 -14.507812 8.886719 -14.789062 L 8.886719 -14.914062 C 9.074219 -16.296875 9.484375 -18.429688 9.484375 -20.191406 C 9.484375 -20.878906 9.417969 -21.507812 9.261719 -22.011719 C 9.074219 -22.542969 8.039062 -22.859375 7.066406 -22.859375 C 6.089844 -22.859375 5.179688 -22.574219 5.085938 -21.949219 C 4.867188 -21.539062 4.363281 -15.386719 4.238281 -14.378906 C 2.449219 -14.378906 0.847656 -13.53125 0.847656 -12.96875 L 0.847656 -12.9375 C 1.035156 -11.996094 2.511719 -11.773438 3.957031 -11.617188 C 3.800781 -7.472656 3.609375 -3.863281 3.609375 -0.878906 C 3.609375 6.058594 4.648438 9.765625 9.578125 9.765625 Z M 9.734375 9.765625 "/></g></g></g><g fill="rgb(100%, 100%, 100%)" fill-opacity="1"><g transform="translate(181.873987, 305.641836)"><g><path d="M 12.371094 10.109375 C 12.464844 10.109375 12.589844 10.140625 12.683594 10.140625 C 14.347656 10.140625 15.230469 8.761719 15.667969 7.066406 C 15.980469 5.746094 17.144531 1.222656 17.144531 -3.296875 C 17.144531 -8.699219 15.511719 -14.128906 8.886719 -14.128906 L 8.351562 -14.128906 C 3.328125 -14.128906 0.753906 -11.210938 0.753906 -6.9375 C 0.753906 -6.71875 0.785156 -6.46875 0.785156 -6.25 C 0.847656 -5.179688 1.789062 -4.585938 2.667969 -4.585938 C 3.453125 -4.585938 4.175781 -5.054688 4.175781 -6.121094 C 4.238281 -10.988281 6.65625 -12.527344 8.164062 -12.589844 C 12.277344 -12.464844 11.710938 -6.625 11.804688 -3.140625 L 11.804688 -3.015625 C 11.804688 -2.824219 11.773438 -2.730469 11.679688 -2.730469 C 11.367188 -2.730469 10.332031 -3.957031 7.785156 -3.957031 C 3.328125 -3.957031 0.910156 0.0625 0.910156 3.265625 C 0.910156 3.863281 1.003906 4.394531 1.160156 4.898438 C 1.945312 7.378906 3.453125 9.578125 7.160156 9.578125 L 7.597656 9.578125 C 10.425781 9.417969 11.050781 7.441406 11.242188 7.441406 C 11.242188 7.441406 11.273438 7.441406 11.273438 7.472656 C 11.335938 7.660156 11.367188 7.851562 11.367188 8.039062 C 11.367188 8.539062 11.179688 8.980469 11.179688 9.355469 C 11.179688 9.765625 11.398438 10.015625 12.371094 10.109375 Z M 7.914062 7.785156 C 5.558594 7.722656 5.085938 5.335938 5.085938 3.421875 C 5.085938 2.355469 5.242188 1.414062 5.273438 1.191406 C 5.496094 -0.03125 6.25 -2.105469 9.074219 -2.136719 C 10.265625 -2.136719 11.898438 -1.128906 11.898438 -0.753906 L 11.898438 0.816406 C 11.898438 1.507812 11.867188 2.574219 11.617188 4.867188 C 11.554688 5.558594 10.109375 7.785156 7.945312 7.785156 Z M 7.914062 7.785156 "/></g></g></g><g fill="rgb(100%, 100%, 100%)" fill-opacity="1"><g transform="translate(203.316069, 305.641836)"><g><path d="M 6.121094 10.988281 C 6.21875 10.519531 6.3125 10.332031 6.46875 10.332031 C 6.84375 10.332031 7.597656 11.273438 9.796875 11.273438 L 9.859375 11.273438 C 14.664062 11.273438 17.300781 6.34375 17.550781 2.292969 C 17.582031 1.976562 17.582031 1.539062 17.582031 1.066406 C 17.582031 -2.074219 16.796875 -7.914062 10.613281 -7.914062 L 10.394531 -7.914062 C 8.039062 -7.851562 7.316406 -6.4375 7.160156 -6.4375 C 7.128906 -6.4375 7.128906 -6.5 7.128906 -6.59375 C 7.160156 -8.824219 7.535156 -13.40625 7.535156 -18.210938 C 7.535156 -19.34375 7.535156 -20.472656 7.472656 -21.601562 C 7.410156 -23.078125 6.21875 -23.925781 4.992188 -23.925781 C 3.894531 -23.925781 2.730469 -23.203125 2.449219 -21.601562 C 1.757812 -17.960938 1.035156 -11.898438 1.035156 -4.929688 C 1.035156 0.03125 1.414062 5.464844 2.449219 10.832031 C 2.636719 11.804688 3.421875 12.214844 4.207031 12.214844 C 5.085938 12.214844 5.964844 11.742188 6.121094 10.988281 Z M 7.003906 -3.988281 C 7.035156 -4.585938 8.414062 -5.558594 9.828125 -5.558594 C 10.425781 -5.558594 11.019531 -5.371094 11.523438 -4.960938 C 12.246094 -4.332031 12.714844 -1.882812 12.714844 0.816406 C 12.714844 4.679688 11.773438 9.042969 9.292969 9.199219 L 9.105469 9.199219 C 8.164062 9.199219 7.378906 8.761719 6.59375 8.289062 C 6.46875 8.195312 6.4375 8.101562 6.4375 8.007812 C 6.4375 7.882812 6.46875 7.753906 6.46875 7.660156 L 6.46875 7.160156 C 6.46875 6.5625 6.53125 5.808594 7.003906 -3.988281 Z M 7.003906 -3.988281 "/></g></g></g><g fill="rgb(100%, 100%, 100%)" fill-opacity="1"><g transform="translate(224.852318, 305.641836)"><g><path d="M 12.371094 10.109375 C 12.464844 10.109375 12.589844 10.140625 12.683594 10.140625 C 14.347656 10.140625 15.230469 8.761719 15.667969 7.066406 C 15.980469 5.746094 17.144531 1.222656 17.144531 -3.296875 C 17.144531 -8.699219 15.511719 -14.128906 8.886719 -14.128906 L 8.351562 -14.128906 C 3.328125 -14.128906 0.753906 -11.210938 0.753906 -6.9375 C 0.753906 -6.71875 0.785156 -6.46875 0.785156 -6.25 C 0.847656 -5.179688 1.789062 -4.585938 2.667969 -4.585938 C 3.453125 -4.585938 4.175781 -5.054688 4.175781 -6.121094 C 4.238281 -10.988281 6.65625 -12.527344 8.164062 -12.589844 C 12.277344 -12.464844 11.710938 -6.625 11.804688 -3.140625 L 11.804688 -3.015625 C 11.804688 -2.824219 11.773438 -2.730469 11.679688 -2.730469 C 11.367188 -2.730469 10.332031 -3.957031 7.785156 -3.957031 C 3.328125 -3.957031 0.910156 0.0625 0.910156 3.265625 C 0.910156 3.863281 1.003906 4.394531 1.160156 4.898438 C 1.945312 7.378906 3.453125 9.578125 7.160156 9.578125 L 7.597656 9.578125 C 10.425781 9.417969 11.050781 7.441406 11.242188 7.441406 C 11.242188 7.441406 11.273438 7.441406 11.273438 7.472656 C 11.335938 7.660156 11.367188 7.851562 11.367188 8.039062 C 11.367188 8.539062 11.179688 8.980469 11.179688 9.355469 C 11.179688 9.765625 11.398438 10.015625 12.371094 10.109375 Z M 7.914062 7.785156 C 5.558594 7.722656 5.085938 5.335938 5.085938 3.421875 C 5.085938 2.355469 5.242188 1.414062 5.273438 1.191406 C 5.496094 -0.03125 6.25 -2.105469 9.074219 -2.136719 C 10.265625 -2.136719 11.898438 -1.128906 11.898438 -0.753906 L 11.898438 0.816406 C 11.898438 1.507812 11.867188 2.574219 11.617188 4.867188 C 11.554688 5.558594 10.109375 7.785156 7.945312 7.785156 Z M 7.914062 7.785156 "/></g></g></g><g fill="rgb(100%, 100%, 100%)" fill-opacity="1"><g transform="translate(246.294395, 305.641836)"><g><path d="M 12.8125 -6.6875 C 12.9375 -7.128906 13.03125 -7.722656 13.03125 -8.414062 C 13.03125 -10.613281 12.121094 -13.628906 8.980469 -14.507812 C 8.226562 -14.726562 7.503906 -14.820312 6.875 -14.820312 C 1.851562 -14.820312 0.753906 -8.445312 0.628906 -2.636719 L 0.628906 -2.039062 C 0.628906 2.261719 2.480469 9.167969 7.035156 9.324219 L 7.191406 9.324219 C 10.769531 9.324219 13.3125 4.519531 13.3125 2.007812 C 13.3125 1.097656 13 0.503906 12.277344 0.503906 C 11.429688 0.535156 11.398438 1.257812 11.304688 1.945312 C 10.957031 4.207031 10.300781 6.65625 7.882812 6.65625 C 7.785156 6.65625 7.660156 6.625 7.535156 6.625 C 6.058594 6.46875 5.371094 5.210938 5.371094 0.34375 C 5.371094 -0.722656 5.402344 -1.976562 5.464844 -3.421875 C 6.90625 -3.640625 12.058594 -3.769531 12.8125 -6.6875 Z M 8.761719 -12.371094 C 9.890625 -12.089844 10.832031 -10.140625 10.832031 -8.570312 C 10.832031 -7.628906 10.488281 -6.84375 9.671875 -6.59375 C 8.730469 -6.3125 7.976562 -6.1875 7.378906 -6.1875 C 6.3125 -6.1875 5.777344 -6.53125 5.777344 -7.003906 L 5.777344 -7.160156 C 5.777344 -8.132812 6.1875 -12.433594 8.289062 -12.433594 C 8.445312 -12.433594 8.601562 -12.402344 8.761719 -12.371094 Z M 8.761719 -12.371094 "/></g></g></g></svg>