<svg xmlns="http://www.w3.org/2000/svg" xmlns:xlink="http://www.w3.org/1999/xlink" width="500" zoomAndPan="magnify" viewBox="0 0 375 374.999991" height="500" preserveAspectRatio="xMidYMid meet" version="1.0"><defs><clipPath id="id1"><path d="M 109 169 L 262 169 L 262 193 L 109 193 Z M 109 169 " clip-rule="nonzero"/></clipPath><clipPath id="id2"><path d="M 94.027344 160.273438 L 260.351562 152.652344 L 262.035156 189.363281 L 95.707031 196.984375 Z M 94.027344 160.273438 " clip-rule="nonzero"/></clipPath><clipPath id="id3"><path d="M 261.972656 189.53125 L 95.644531 197.152344 L 93.964844 160.4375 L 260.289062 152.820312 Z M 261.972656 189.53125 " clip-rule="nonzero"/></clipPath><clipPath id="id4"><path d="M 94 159 L 123 159 L 123 187 L 94 187 Z M 94 159 " clip-rule="nonzero"/></clipPath><clipPath id="id5"><path d="M 94.027344 160.273438 L 260.351562 152.652344 L 262.035156 189.363281 L 95.707031 196.984375 Z M 94.027344 160.273438 " clip-rule="nonzero"/></clipPath><clipPath id="id6"><path d="M 261.972656 189.53125 L 95.644531 197.152344 L 93.964844 160.4375 L 260.289062 152.820312 Z M 261.972656 189.53125 " clip-rule="nonzero"/></clipPath></defs><g clip-path="url(#id1)"><g clip-path="url(#id2)"><g clip-path="url(#id3)"><path fill="rgb(96.469116%, 96.469116%, 96.469116%)" d="M 257.3125 182.398438 C 260.707031 181.277344 262.027344 179.488281 261.242188 177.371094 C 260.457031 175.273438 258.578125 174.738281 255.308594 175.835938 C 245.035156 179.269531 234.511719 181.632812 223.777344 183.132812 C 195.152344 187.117188 166.824219 185.679688 138.90625 178.277344 C 130.726562 176.113281 122.835938 172.875 114.808594 170.109375 C 112.152344 169.195312 110.308594 169.664062 109.519531 171.566406 C 108.738281 173.449219 109.640625 175.199219 112.183594 176.359375 C 114.269531 177.316406 116.417969 178.171875 118.574219 178.984375 C 149.613281 190.589844 181.710938 193.855469 208.050781 191.730469 C 229.148438 189.78125 243.40625 186.96875 257.3125 182.398438 Z M 257.3125 182.398438 " fill-opacity="1" fill-rule="nonzero"/></g></g></g><g clip-path="url(#id4)"><g clip-path="url(#id5)"><g clip-path="url(#id6)"><path fill="rgb(96.469116%, 96.469116%, 96.469116%)" d="M 111.8125 182.128906 C 110.816406 180.347656 109.636719 178.65625 108.429688 177 C 106.449219 174.28125 104.375 171.621094 101.839844 168.28125 C 103.941406 167.941406 105.351562 167.667969 106.773438 167.488281 C 110.867188 166.984375 114.972656 166.589844 119.054688 165.996094 C 121.101562 165.695312 122.214844 164.277344 122.144531 162.578125 C 122.070312 160.761719 120.574219 159.265625 118.394531 159.5 C 111.886719 160.203125 105.355469 160.851562 98.941406 162.066406 C 94.296875 162.945312 92.945312 166.210938 95.566406 170.160156 C 99.105469 175.484375 103.132812 180.476562 107.03125 185.554688 C 108.03125 186.851562 109.496094 187.070312 110.953125 186.25 C 112.292969 185.492188 112.71875 183.753906 111.8125 182.128906 Z M 111.8125 182.128906 " fill-opacity="1" fill-rule="nonzero"/></g></g></g></svg>