<svg xmlns="http://www.w3.org/2000/svg" xmlns:xlink="http://www.w3.org/1999/xlink" width="500" zoomAndPan="magnify" viewBox="0 0 375 374.999991" height="500" preserveAspectRatio="xMidYMid meet" version="1.0"><defs><clipPath id="id1"><path d="M 84 20 L 310 20 L 310 361 L 84 361 Z M 84 20 " clip-rule="nonzero"/></clipPath><clipPath id="id2"><path d="M 0 77.851562 L 286.613281 -10.761719 L 375.226562 275.855469 L 88.613281 364.46875 Z M 0 77.851562 " clip-rule="nonzero"/></clipPath><clipPath id="id3"><path d="M 0 77.851562 L 286.613281 -10.761719 L 375.226562 275.855469 L 88.613281 364.46875 Z M 0 77.851562 " clip-rule="nonzero"/></clipPath><clipPath id="id4"><path d="M 244 51 L 288 51 L 288 135 L 244 135 Z M 244 51 " clip-rule="nonzero"/></clipPath><clipPath id="id5"><path d="M 0 77.851562 L 286.613281 -10.761719 L 375.226562 275.855469 L 88.613281 364.46875 Z M 0 77.851562 " clip-rule="nonzero"/></clipPath><clipPath id="id6"><path d="M 0 77.851562 L 286.613281 -10.761719 L 375.226562 275.855469 L 88.613281 364.46875 Z M 0 77.851562 " clip-rule="nonzero"/></clipPath></defs><g clip-path="url(#id1)"><g clip-path="url(#id2)"><g clip-path="url(#id3)"><path fill="rgb(97.648621%, 38.819885%, 1.179504%)" d="M 265.171875 30.832031 C 263.917969 30.171875 262.652344 29.542969 261.371094 28.945312 C 260.085938 28.347656 258.792969 27.78125 257.480469 27.246094 C 256.171875 26.714844 254.847656 26.210938 253.515625 25.742188 C 252.179688 25.273438 250.832031 24.835938 249.476562 24.433594 C 248.121094 24.03125 246.757812 23.660156 245.382812 23.324219 C 244.007812 22.988281 242.625 22.683594 241.238281 22.417969 C 239.847656 22.148438 238.453125 21.914062 237.050781 21.714844 C 235.652344 21.511719 234.246094 21.347656 232.835938 21.21875 C 231.429688 21.085938 230.019531 20.988281 228.605469 20.925781 C 227.191406 20.867188 225.777344 20.839844 224.363281 20.847656 C 222.945312 20.855469 221.53125 20.894531 220.121094 20.972656 C 218.707031 21.050781 217.296875 21.160156 215.890625 21.308594 C 214.484375 21.453125 213.078125 21.636719 211.679688 21.851562 C 210.285156 22.066406 208.890625 22.316406 207.503906 22.597656 C 206.117188 22.882812 204.738281 23.199219 203.371094 23.550781 C 202 23.902344 200.636719 24.285156 199.285156 24.703125 C 197.933594 25.121094 196.59375 25.570312 195.265625 26.054688 C 193.933594 26.539062 192.617188 27.054688 191.3125 27.605469 C 190.007812 28.152344 188.71875 28.734375 187.441406 29.34375 C 186.167969 29.957031 184.90625 30.597656 183.664062 31.273438 C 182.417969 31.945312 181.191406 32.648438 179.980469 33.382812 C 178.773438 34.117188 177.582031 34.878906 176.410156 35.671875 C 175.238281 36.464844 174.085938 37.285156 172.953125 38.132812 C 171.820312 38.984375 170.710938 39.859375 169.621094 40.761719 C 168.53125 41.664062 167.464844 42.59375 166.421875 43.550781 C 165.378906 44.507812 164.359375 45.488281 163.363281 46.492188 C 162.371094 47.5 161.398438 48.527344 160.453125 49.582031 C 159.511719 50.632812 158.589844 51.710938 157.699219 52.808594 C 156.808594 53.90625 155.945312 55.027344 155.105469 56.167969 C 154.269531 57.308594 153.460938 58.46875 152.679688 59.648438 C 151.902344 60.828125 151.152344 62.027344 150.429688 63.246094 C 149.707031 64.464844 149.019531 65.699219 148.355469 66.949219 C 147.726562 68.144531 147.125 69.355469 146.554688 70.578125 C 145.980469 71.804688 145.4375 73.039062 144.921875 74.289062 C 144.40625 75.539062 143.921875 76.800781 143.464844 78.074219 C 143.011719 79.34375 142.585938 80.628906 142.1875 81.917969 C 141.792969 83.210938 141.429688 84.511719 141.09375 85.820312 C 140.757812 87.132812 140.453125 88.449219 140.179688 89.773438 C 139.90625 91.09375 139.664062 92.425781 139.453125 93.757812 C 139.242188 95.09375 139.0625 96.433594 138.914062 97.777344 C 138.765625 99.121094 138.652344 100.464844 138.566406 101.816406 C 138.480469 103.164062 138.425781 104.515625 138.40625 105.867188 C 138.382812 107.21875 138.390625 108.570312 138.433594 109.917969 C 138.472656 111.269531 138.546875 112.621094 138.652344 113.96875 C 138.757812 115.316406 138.890625 116.660156 139.058594 118 C 139.226562 119.339844 139.425781 120.675781 139.65625 122.007812 C 139.886719 123.339844 140.144531 124.667969 140.4375 125.988281 C 140.730469 127.304688 141.050781 128.617188 141.40625 129.921875 C 141.757812 131.226562 142.144531 132.523438 142.558594 133.808594 C 142.972656 135.097656 143.414062 136.371094 143.890625 137.636719 C 144.363281 138.902344 144.867188 140.15625 145.398438 141.398438 C 145.929688 142.640625 146.492188 143.871094 147.082031 145.085938 C 147.671875 146.304688 148.292969 147.503906 148.9375 148.691406 C 149.582031 149.878906 150.257812 151.050781 150.957031 152.203125 C 151.660156 153.359375 152.386719 154.5 153.140625 155.621094 C 153.898438 156.742188 154.675781 157.84375 155.484375 158.929688 C 156.289062 160.015625 157.121094 161.078125 157.976562 162.125 C 158.832031 163.171875 159.710938 164.195312 160.617188 165.203125 C 161.519531 166.207031 162.449219 167.1875 163.398438 168.148438 C 164.347656 169.113281 165.320312 170.050781 166.3125 170.964844 C 167.308594 171.882812 168.324219 172.773438 169.359375 173.640625 C 170.394531 174.511719 171.449219 175.355469 172.523438 176.171875 C 173.601562 176.992188 174.695312 177.785156 175.804688 178.550781 C 176.917969 179.320312 178.046875 180.0625 179.195312 180.777344 L 157.859375 221.015625 C 156.78125 221.054688 155.722656 221.226562 154.683594 221.539062 C 153.648438 221.851562 152.667969 222.285156 151.746094 222.847656 C 150.824219 223.414062 149.984375 224.082031 149.234375 224.859375 C 148.484375 225.640625 147.84375 226.5 147.3125 227.441406 L 86.425781 342.449219 C 86.035156 343.183594 85.71875 343.949219 85.476562 344.746094 C 85.238281 345.542969 85.078125 346.355469 85 347.183594 C 84.921875 348.011719 84.925781 348.839844 85.011719 349.667969 C 85.09375 350.496094 85.261719 351.308594 85.507812 352.101562 C 85.75 352.898438 86.074219 353.660156 86.46875 354.390625 C 86.867188 355.121094 87.332031 355.808594 87.863281 356.449219 C 88.398438 357.085938 88.988281 357.667969 89.632812 358.191406 C 90.28125 358.710938 90.972656 359.167969 91.710938 359.550781 C 93.195312 360.328125 94.773438 360.789062 96.441406 360.9375 C 98.109375 361.082031 99.746094 360.902344 101.339844 360.398438 C 102.945312 359.914062 104.394531 359.140625 105.6875 358.078125 C 106.984375 357.011719 108.023438 355.742188 108.8125 354.265625 L 169.625 239.015625 C 170.148438 238 170.527344 236.933594 170.761719 235.816406 C 170.996094 234.699219 171.074219 233.570312 171 232.433594 C 170.925781 231.292969 170.703125 230.183594 170.328125 229.105469 C 169.953125 228.027344 169.441406 227.019531 168.792969 226.078125 L 189.917969 186.433594 C 191.171875 186.953125 192.441406 187.445312 193.722656 187.902344 C 195.003906 188.363281 196.292969 188.792969 197.59375 189.191406 C 198.894531 189.59375 200.203125 189.960938 201.519531 190.296875 C 202.839844 190.636719 204.164062 190.941406 205.496094 191.214844 C 206.828125 191.492188 208.167969 191.734375 209.511719 191.945312 C 210.855469 192.15625 212.203125 192.335938 213.554688 192.484375 C 214.910156 192.632812 216.261719 192.75 217.621094 192.832031 C 218.980469 192.917969 220.339844 192.96875 221.699219 192.988281 C 223.058594 193.007812 224.417969 192.996094 225.777344 192.949219 C 227.136719 192.90625 228.496094 192.828125 229.851562 192.71875 C 231.207031 192.609375 232.5625 192.46875 233.910156 192.296875 C 235.261719 192.125 236.605469 191.917969 237.945312 191.683594 C 239.285156 191.445312 240.617188 191.179688 241.945312 190.878906 C 243.273438 190.578125 244.589844 190.25 245.902344 189.886719 C 247.214844 189.523438 248.515625 189.132812 249.808594 188.707031 C 251.101562 188.285156 252.382812 187.832031 253.65625 187.347656 C 254.925781 186.863281 256.1875 186.347656 257.433594 185.804688 C 258.679688 185.261719 259.914062 184.691406 261.132812 184.089844 C 262.355469 183.484375 263.558594 182.855469 264.75 182.195312 C 265.941406 181.539062 267.113281 180.851562 268.273438 180.136719 C 269.429688 179.421875 270.570312 178.683594 271.695312 177.914062 C 272.816406 177.144531 273.921875 176.351562 275.003906 175.53125 C 276.089844 174.710938 277.15625 173.863281 278.203125 172.992188 C 279.246094 172.121094 280.269531 171.226562 281.273438 170.308594 C 282.277344 169.390625 283.257812 168.449219 284.214844 167.480469 C 285.175781 166.515625 286.109375 165.527344 287.019531 164.519531 C 287.933594 163.507812 288.820312 162.480469 289.683594 161.425781 C 290.546875 160.375 291.382812 159.304688 292.195312 158.210938 C 293.007812 157.121094 293.796875 156.011719 294.554688 154.882812 C 295.316406 153.753906 296.046875 152.609375 296.753906 151.445312 C 297.460938 150.28125 298.136719 149.101562 298.789062 147.910156 C 299.4375 146.714844 300.058594 145.503906 300.652344 144.277344 C 301.246094 143.054688 301.808594 141.816406 302.34375 140.566406 C 302.878906 139.3125 303.382812 138.050781 303.855469 136.777344 C 304.332031 135.5 304.773438 134.214844 305.1875 132.917969 C 305.601562 131.625 305.984375 130.320312 306.339844 129.003906 C 306.691406 127.691406 307.011719 126.367188 307.300781 125.039062 C 307.589844 123.710938 307.847656 122.375 308.074219 121.035156 C 308.300781 119.691406 308.496094 118.347656 308.660156 116.996094 C 308.824219 115.644531 308.953125 114.289062 309.054688 112.933594 C 309.152344 111.578125 309.21875 110.21875 309.253906 108.859375 C 309.289062 107.5 309.289062 106.136719 309.261719 104.777344 C 309.230469 103.417969 309.171875 102.058594 309.078125 100.703125 C 308.984375 99.34375 308.855469 97.992188 308.699219 96.640625 C 308.542969 95.289062 308.351562 93.941406 308.128906 92.597656 C 307.910156 91.257812 307.65625 89.921875 307.371094 88.589844 C 307.085938 87.261719 306.769531 85.9375 306.425781 84.621094 C 306.078125 83.304688 305.699219 82 305.289062 80.703125 C 304.882812 79.40625 304.441406 78.117188 303.972656 76.839844 C 303.503906 75.5625 303.003906 74.296875 302.472656 73.046875 C 301.945312 71.792969 301.386719 70.550781 300.796875 69.324219 C 300.207031 68.097656 299.589844 66.886719 298.945312 65.6875 C 298.300781 64.492188 297.628906 63.308594 296.925781 62.144531 C 296.226562 60.976562 295.496094 59.828125 294.742188 58.699219 C 293.984375 57.566406 293.203125 56.453125 292.394531 55.359375 C 291.585938 54.265625 290.753906 53.191406 289.894531 52.136719 C 289.035156 51.082031 288.152344 50.046875 287.246094 49.03125 C 286.335938 48.019531 285.40625 47.027344 284.449219 46.058594 C 283.496094 45.089844 282.519531 44.144531 281.519531 43.222656 C 280.519531 42.296875 279.5 41.398438 278.457031 40.523438 C 277.414062 39.648438 276.351562 38.800781 275.269531 37.976562 C 274.1875 37.152344 273.089844 36.351562 271.96875 35.578125 C 270.847656 34.808594 269.710938 34.0625 268.554688 33.34375 C 267.402344 32.625 266.230469 31.933594 265.042969 31.269531 Z M 290.25 141.824219 C 289.6875 142.890625 289.09375 143.945312 288.480469 144.984375 C 287.863281 146.027344 287.222656 147.050781 286.554688 148.058594 C 285.886719 149.066406 285.199219 150.058594 284.484375 151.03125 C 283.765625 152.007812 283.027344 152.964844 282.265625 153.902344 C 281.503906 154.839844 280.71875 155.757812 279.914062 156.65625 C 279.105469 157.558594 278.277344 158.4375 277.425781 159.296875 C 276.578125 160.15625 275.707031 160.992188 274.8125 161.808594 C 273.921875 162.625 273.011719 163.417969 272.082031 164.191406 C 271.152344 164.960938 270.203125 165.710938 269.234375 166.433594 C 268.265625 167.160156 267.28125 167.859375 266.28125 168.539062 C 265.28125 169.214844 264.261719 169.867188 263.230469 170.492188 C 262.195312 171.117188 261.148438 171.71875 260.082031 172.296875 C 259.019531 172.871094 257.945312 173.417969 256.855469 173.941406 C 255.765625 174.464844 254.660156 174.957031 253.546875 175.425781 C 252.433594 175.894531 251.308594 176.335938 250.171875 176.75 C 249.035156 177.160156 247.890625 177.546875 246.734375 177.902344 C 245.582031 178.261719 244.417969 178.589844 243.246094 178.886719 C 242.078125 179.1875 240.898438 179.457031 239.714844 179.699219 C 238.53125 179.941406 237.339844 180.15625 236.144531 180.339844 C 234.953125 180.523438 233.753906 180.675781 232.550781 180.800781 C 231.347656 180.925781 230.144531 181.019531 228.9375 181.085938 C 227.730469 181.152344 226.523438 181.1875 225.3125 181.195312 C 224.105469 181.199219 222.898438 181.175781 221.6875 181.125 C 220.480469 181.070312 219.277344 180.988281 218.074219 180.875 C 216.871094 180.761719 215.667969 180.621094 214.472656 180.449219 C 213.277344 180.277344 212.085938 180.078125 210.898438 179.847656 C 209.710938 179.621094 208.53125 179.359375 207.355469 179.074219 C 206.183594 178.785156 205.015625 178.46875 203.859375 178.125 C 202.699219 177.78125 201.550781 177.40625 200.410156 177.003906 C 199.269531 176.605469 198.140625 176.175781 197.023438 175.71875 C 195.902344 175.261719 194.796875 174.777344 193.699219 174.265625 C 192.605469 173.753906 191.523438 173.21875 190.453125 172.652344 C 189.382812 172.089844 188.332031 171.5 187.289062 170.882812 C 186.25 170.265625 185.226562 169.625 184.21875 168.960938 C 183.210938 168.292969 182.21875 167.601562 181.242188 166.886719 C 180.269531 166.171875 179.3125 165.433594 178.375 164.671875 C 177.433594 163.910156 176.515625 163.125 175.617188 162.320312 C 174.714844 161.511719 173.835938 160.683594 172.976562 159.832031 C 172.117188 158.984375 171.28125 158.113281 170.464844 157.222656 C 169.648438 156.332031 168.855469 155.417969 168.082031 154.488281 C 167.308594 153.558594 166.5625 152.609375 165.835938 151.644531 C 165.113281 150.675781 164.410156 149.691406 163.734375 148.691406 C 163.058594 147.6875 162.40625 146.671875 161.777344 145.636719 C 161.152344 144.605469 160.550781 143.558594 159.976562 142.492188 C 159.398438 141.429688 158.851562 140.355469 158.328125 139.265625 C 157.804688 138.175781 157.308594 137.074219 156.839844 135.957031 C 156.371094 134.84375 155.933594 133.71875 155.519531 132.582031 C 155.105469 131.449219 154.71875 130.300781 154.363281 129.148438 C 154.007812 127.992188 153.679688 126.828125 153.378906 125.660156 C 153.078125 124.488281 152.808594 123.308594 152.566406 122.125 C 152.324219 120.941406 152.109375 119.753906 151.925781 118.558594 C 151.742188 117.363281 151.589844 116.164062 151.464844 114.960938 C 151.339844 113.761719 151.242188 112.554688 151.175781 111.347656 C 151.109375 110.140625 151.074219 108.933594 151.070312 107.726562 C 151.0625 106.515625 151.085938 105.308594 151.136719 104.101562 C 151.191406 102.894531 151.273438 101.6875 151.386719 100.484375 C 151.496094 99.28125 151.640625 98.082031 151.808594 96.882812 C 151.980469 95.6875 152.179688 94.496094 152.410156 93.308594 C 152.640625 92.121094 152.898438 90.941406 153.183594 89.769531 C 153.472656 88.59375 153.789062 87.429688 154.132812 86.269531 C 154.476562 85.109375 154.851562 83.960938 155.25 82.820312 C 155.652344 81.679688 156.082031 80.550781 156.539062 79.433594 C 156.996094 78.3125 157.476562 77.207031 157.988281 76.109375 C 158.5 75.015625 159.039062 73.933594 159.601562 72.863281 C 160.164062 71.792969 160.753906 70.738281 161.371094 69.699219 C 161.988281 68.660156 162.628906 67.636719 163.292969 66.625 C 163.960938 65.617188 164.648438 64.625 165.363281 63.652344 C 166.078125 62.675781 166.816406 61.71875 167.578125 60.78125 C 168.339844 59.84375 169.125 58.925781 169.933594 58.023438 C 170.738281 57.125 171.566406 56.246094 172.417969 55.386719 C 173.265625 54.527344 174.136719 53.6875 175.027344 52.871094 C 175.917969 52.054688 176.832031 51.261719 177.761719 50.488281 C 178.691406 49.714844 179.640625 48.96875 180.605469 48.242188 C 181.574219 47.515625 182.558594 46.816406 183.558594 46.140625 C 184.558594 45.460938 185.578125 44.808594 186.609375 44.183594 C 187.644531 43.554688 188.691406 42.953125 189.753906 42.378906 C 190.816406 41.804688 191.894531 41.253906 192.984375 40.730469 C 194.074219 40.207031 195.175781 39.710938 196.289062 39.242188 C 197.402344 38.773438 198.527344 38.332031 199.664062 37.921875 C 200.800781 37.507812 201.945312 37.121094 203.101562 36.765625 C 204.253906 36.40625 205.417969 36.078125 206.589844 35.777344 C 207.757812 35.476562 208.9375 35.207031 210.121094 34.964844 C 211.304688 34.722656 212.492188 34.507812 213.6875 34.324219 C 214.882812 34.140625 216.082031 33.984375 217.285156 33.859375 C 218.484375 33.734375 219.691406 33.640625 220.898438 33.574219 C 222.105469 33.507812 223.3125 33.472656 224.519531 33.464844 C 225.730469 33.457031 226.9375 33.480469 228.144531 33.535156 C 229.351562 33.585938 230.558594 33.667969 231.761719 33.78125 C 232.964844 33.890625 234.164062 34.03125 235.363281 34.203125 C 236.558594 34.375 237.75 34.574219 238.9375 34.804688 C 240.125 35.03125 241.304688 35.289062 242.476562 35.578125 C 243.652344 35.863281 244.820312 36.179688 245.976562 36.523438 C 247.136719 36.867188 248.285156 37.242188 249.425781 37.640625 C 250.566406 38.042969 251.695312 38.472656 252.816406 38.929688 C 253.933594 39.382812 255.042969 39.867188 256.136719 40.378906 C 257.234375 40.890625 258.316406 41.425781 259.382812 41.988281 C 260.457031 42.546875 261.515625 43.132812 262.5625 43.742188 C 263.605469 44.351562 264.632812 44.988281 265.648438 45.652344 C 266.660156 46.3125 267.65625 47 268.636719 47.710938 C 269.613281 48.417969 270.574219 49.15625 271.519531 49.914062 C 272.460938 50.671875 273.382812 51.453125 274.289062 52.257812 C 275.191406 53.058594 276.074219 53.886719 276.9375 54.734375 C 277.800781 55.582031 278.644531 56.449219 279.464844 57.339844 C 280.285156 58.226562 281.082031 59.136719 281.855469 60.066406 C 282.632812 60.996094 283.382812 61.941406 284.113281 62.90625 C 284.839844 63.875 285.542969 64.855469 286.222656 65.859375 C 286.902344 66.859375 287.558594 67.875 288.1875 68.910156 C 288.816406 69.941406 289.421875 70.988281 290 72.054688 C 290.578125 73.117188 291.128906 74.191406 291.652344 75.28125 C 292.175781 76.375 292.671875 77.476562 293.140625 78.589844 C 293.613281 79.707031 294.054688 80.832031 294.46875 81.96875 C 294.882812 83.105469 295.269531 84.25 295.625 85.40625 C 295.984375 86.5625 296.3125 87.726562 296.609375 88.898438 C 296.910156 90.070312 297.179688 91.25 297.421875 92.433594 C 297.664062 93.621094 297.875 94.8125 298.058594 96.007812 C 298.242188 97.203125 298.394531 98.402344 298.515625 99.605469 C 298.640625 100.808594 298.734375 102.015625 298.796875 103.222656 C 298.859375 104.433594 298.894531 105.640625 298.898438 106.851562 C 298.902344 108.0625 298.875 109.269531 298.820312 110.476562 C 298.765625 111.6875 298.679688 112.894531 298.5625 114.097656 C 298.445312 115.300781 298.300781 116.503906 298.125 117.699219 C 297.949219 118.894531 297.746094 120.089844 297.511719 121.273438 C 297.277344 122.460938 297.015625 123.644531 296.722656 124.816406 C 296.429688 125.992188 296.109375 127.15625 295.757812 128.3125 C 295.40625 129.472656 295.027344 130.621094 294.621094 131.761719 C 294.214844 132.898438 293.78125 134.027344 293.316406 135.144531 C 292.855469 136.261719 292.363281 137.367188 291.847656 138.460938 C 291.328125 139.554688 290.785156 140.636719 290.210938 141.703125 Z M 290.25 141.824219 " fill-opacity="1" fill-rule="nonzero"/></g></g></g><g clip-path="url(#id4)"><g clip-path="url(#id5)"><g clip-path="url(#id6)"><path fill="rgb(97.648621%, 38.819885%, 1.179504%)" d="M 253.941406 52.117188 C 253.570312 51.929688 253.1875 51.78125 252.789062 51.664062 C 252.390625 51.550781 251.988281 51.476562 251.574219 51.441406 C 251.160156 51.40625 250.75 51.414062 250.339844 51.457031 C 249.925781 51.5 249.523438 51.585938 249.128906 51.707031 C 248.734375 51.828125 248.355469 51.988281 247.988281 52.183594 C 247.625 52.378906 247.28125 52.609375 246.960938 52.871094 C 246.640625 53.132812 246.347656 53.421875 246.085938 53.738281 C 245.820312 54.058594 245.589844 54.398438 245.390625 54.761719 C 245.195312 55.128906 245.035156 55.511719 244.917969 55.910156 C 244.796875 56.308594 244.714844 56.714844 244.675781 57.128906 C 244.636719 57.542969 244.640625 57.957031 244.683594 58.371094 C 244.722656 58.785156 244.808594 59.1875 244.929688 59.585938 C 245.054688 59.984375 245.214844 60.367188 245.410156 60.730469 C 245.609375 61.097656 245.84375 61.4375 246.109375 61.757812 C 246.375 62.078125 246.671875 62.367188 246.992188 62.628906 C 247.316406 62.890625 247.664062 63.117188 248.03125 63.3125 C 249.378906 64.023438 250.6875 64.792969 251.964844 65.625 C 253.242188 66.453125 254.476562 67.339844 255.671875 68.28125 C 256.867188 69.226562 258.019531 70.21875 259.125 71.265625 C 260.230469 72.3125 261.285156 73.40625 262.292969 74.546875 C 263.296875 75.691406 264.25 76.875 265.148438 78.105469 C 266.050781 79.332031 266.890625 80.597656 267.675781 81.902344 C 268.460938 83.207031 269.183594 84.546875 269.847656 85.917969 C 270.507812 87.285156 271.109375 88.683594 271.644531 90.109375 C 272.183594 91.53125 272.652344 92.980469 273.058594 94.445312 C 273.464844 95.914062 273.804688 97.394531 274.074219 98.894531 C 274.347656 100.390625 274.550781 101.898438 274.683594 103.414062 C 274.820312 104.929688 274.886719 106.449219 274.882812 107.972656 C 274.878906 109.496094 274.808594 111.015625 274.667969 112.53125 C 274.527344 114.046875 274.320312 115.550781 274.042969 117.046875 C 273.765625 118.546875 273.421875 120.027344 273.011719 121.492188 C 272.601562 122.957031 272.125 124.402344 271.582031 125.824219 C 271.425781 126.207031 271.308594 126.605469 271.230469 127.011719 C 271.152344 127.417969 271.117188 127.828125 271.121094 128.242188 C 271.128906 128.65625 271.175781 129.066406 271.261719 129.472656 C 271.347656 129.875 271.476562 130.269531 271.644531 130.648438 C 271.808594 131.027344 272.011719 131.386719 272.25 131.726562 C 272.488281 132.0625 272.757812 132.375 273.0625 132.660156 C 273.363281 132.941406 273.6875 133.195312 274.042969 133.414062 C 274.394531 133.632812 274.761719 133.8125 275.152344 133.957031 C 276.507812 134.582031 277.902344 134.675781 279.332031 134.246094 C 280.242188 133.953125 281.046875 133.476562 281.746094 132.824219 C 282.441406 132.167969 282.96875 131.398438 283.320312 130.507812 C 284.007812 128.726562 284.613281 126.917969 285.132812 125.082031 C 285.65625 123.246094 286.09375 121.390625 286.445312 119.515625 C 286.800781 117.636719 287.066406 115.75 287.25 113.851562 C 287.429688 111.949219 287.527344 110.046875 287.535156 108.136719 C 287.542969 106.230469 287.464844 104.324219 287.300781 102.421875 C 287.136719 100.519531 286.886719 98.628906 286.550781 96.75 C 286.214844 94.871094 285.792969 93.011719 285.289062 91.171875 C 284.785156 89.332031 284.195312 87.515625 283.527344 85.730469 C 282.855469 83.941406 282.105469 82.1875 281.277344 80.46875 C 280.449219 78.75 279.542969 77.074219 278.5625 75.433594 C 277.578125 73.796875 276.523438 72.210938 275.398438 70.667969 C 274.273438 69.125 273.078125 67.640625 271.820312 66.207031 C 270.558594 64.773438 269.234375 63.402344 267.847656 62.089844 C 266.460938 60.777344 265.019531 59.53125 263.519531 58.347656 C 262.019531 57.167969 260.472656 56.054688 258.871094 55.015625 C 257.269531 53.972656 255.628906 53.007812 253.941406 52.117188 Z M 253.941406 52.117188 " fill-opacity="1" fill-rule="nonzero"/></g></g></g></svg>