<svg xmlns="http://www.w3.org/2000/svg" xmlns:xlink="http://www.w3.org/1999/xlink" width="500" zoomAndPan="magnify" viewBox="0 0 375 374.999991" height="500" preserveAspectRatio="xMidYMid meet" version="1.0"><defs><clipPath id="id1"><path d="M 176 0 L 244.21875 0 L 244.21875 371 L 176 371 Z M 176 0 " clip-rule="nonzero"/></clipPath></defs><path fill="rgb(96.469116%, 96.469116%, 96.469116%)" d="M 199.773438 123.292969 C 199.773438 123.0625 199.695312 122.984375 199.773438 123.292969 Z M 199.773438 123.292969 " fill-opacity="1" fill-rule="nonzero"/><path fill="rgb(96.469116%, 96.469116%, 96.469116%)" d="M 196.335938 262.339844 C 196.335938 262.414062 196.335938 262.414062 196.335938 262.492188 C 196.488281 262.570312 196.640625 262.722656 196.71875 262.796875 Z M 196.335938 262.339844 " fill-opacity="1" fill-rule="nonzero"/><path fill="rgb(96.469116%, 96.469116%, 96.469116%)" d="M 194.351562 284.671875 C 194.351562 284.75 194.351562 284.75 194.273438 284.824219 C 194.351562 284.824219 194.425781 284.824219 194.351562 284.671875 Z M 194.351562 284.671875 " fill-opacity="1" fill-rule="nonzero"/><path fill="rgb(96.469116%, 96.469116%, 96.469116%)" d="M 197.101562 210.789062 C 197.101562 210.558594 197.101562 210.484375 197.023438 210.40625 C 197.023438 210.484375 197.023438 210.636719 197.101562 210.789062 Z M 197.101562 210.789062 " fill-opacity="1" fill-rule="nonzero"/><path fill="rgb(96.469116%, 96.469116%, 96.469116%)" d="M 199.542969 82.296875 C 199.542969 82.296875 199.542969 82.371094 199.542969 82.371094 C 199.542969 82.296875 199.621094 82.21875 199.621094 82.144531 Z M 199.542969 82.296875 " fill-opacity="1" fill-rule="nonzero"/><path fill="rgb(96.469116%, 96.469116%, 96.469116%)" d="M 199.773438 82.753906 C 199.621094 83.214844 199.542969 82.601562 199.542969 82.371094 C 199.316406 82.910156 199.316406 83.445312 199.390625 83.980469 C 199.621094 83.980469 199.621094 82.984375 199.773438 82.753906 Z M 199.773438 82.753906 " fill-opacity="1" fill-rule="nonzero"/><path fill="rgb(96.469116%, 96.469116%, 96.469116%)" d="M 195.421875 7.035156 L 195.574219 7.265625 C 195.574219 7.113281 195.496094 7.035156 195.421875 7.035156 Z M 195.421875 7.035156 " fill-opacity="1" fill-rule="nonzero"/><path fill="rgb(96.469116%, 96.469116%, 96.469116%)" d="M 185.492188 212.546875 C 185.492188 212.472656 185.492188 212.320312 185.417969 212.242188 C 185.417969 212.394531 185.492188 212.472656 185.492188 212.546875 Z M 185.492188 212.546875 " fill-opacity="1" fill-rule="nonzero"/><path fill="rgb(96.469116%, 96.469116%, 96.469116%)" d="M 197.863281 19.199219 L 198.246094 19.273438 C 198.09375 19.199219 197.941406 19.121094 197.863281 19.199219 Z M 197.863281 19.199219 " fill-opacity="1" fill-rule="nonzero"/><path fill="rgb(96.469116%, 96.469116%, 96.469116%)" d="M 196.71875 262.796875 L 196.871094 262.953125 C 196.792969 262.875 196.792969 262.875 196.71875 262.796875 Z M 196.71875 262.796875 " fill-opacity="1" fill-rule="nonzero"/><path fill="rgb(96.469116%, 96.469116%, 96.469116%)" d="M 192.976562 305.324219 C 192.902344 305.324219 192.746094 305.398438 192.671875 305.398438 C 192.671875 305.398438 192.671875 305.476562 192.671875 305.476562 Z M 192.976562 305.324219 " fill-opacity="1" fill-rule="nonzero"/><path fill="rgb(96.469116%, 96.469116%, 96.469116%)" d="M 230.621094 318.324219 C 230.621094 318.324219 230.542969 318.25 230.46875 318.25 L 230.238281 318.707031 C 230.46875 318.476562 230.542969 318.402344 230.621094 318.324219 Z M 230.621094 318.324219 " fill-opacity="1" fill-rule="nonzero"/><path fill="rgb(96.469116%, 96.469116%, 96.469116%)" d="M 189.769531 333.085938 C 189.847656 333.085938 189.847656 333.164062 189.921875 333.164062 C 189.921875 333.085938 190 333.011719 190 332.933594 C 190 332.859375 190 332.859375 190 332.78125 C 190 332.78125 190 332.550781 190.074219 332.398438 C 190.152344 331.785156 190.152344 331.097656 190.226562 330.257812 L 189.769531 330.105469 C 189.769531 330.105469 189.769531 330.945312 189.769531 331.785156 C 189.769531 332.859375 189.769531 333.085938 189.769531 333.085938 Z M 189.769531 333.085938 " fill-opacity="1" fill-rule="nonzero"/><g clip-path="url(#id1)"><path fill="rgb(96.469116%, 96.469116%, 96.469116%)" d="M 194.273438 351.976562 C 194.273438 351.976562 193.207031 352.742188 192.0625 353.507812 C 191.066406 354.195312 190 354.882812 190 354.882812 C 191.679688 353.203125 193.207031 351.597656 194.65625 350.21875 C 196.109375 348.917969 197.480469 347.695312 198.78125 346.546875 C 199.46875 346.011719 200.078125 345.402344 200.6875 344.867188 C 201.148438 344.484375 201.605469 344.175781 201.988281 343.792969 C 202.675781 343.257812 203.285156 342.800781 203.972656 342.265625 C 206.570312 340.277344 209.089844 338.441406 212.144531 335.839844 L 211.914062 336.222656 C 212.449219 335.992188 212.523438 335.304688 214.050781 334.082031 C 214.816406 333.46875 215.882812 332.703125 217.5625 331.785156 C 219.242188 330.867188 221.535156 329.796875 224.589844 328.652344 L 224.664062 328.726562 C 225.046875 328.496094 224.96875 328.34375 225.8125 328.039062 C 225.8125 328.039062 225.277344 328.191406 224.742188 328.34375 C 224.207031 328.496094 223.671875 328.726562 223.671875 328.726562 C 224.664062 327.808594 225.503906 326.816406 226.957031 325.898438 C 227.335938 325.820312 227.566406 325.898438 227.644531 325.972656 C 227.644531 325.972656 228.558594 325.363281 229.476562 324.828125 C 230.390625 324.292969 231.382812 323.679688 231.382812 323.679688 L 232.835938 323.527344 C 233.828125 322.609375 232.757812 321.765625 236.273438 320.695312 C 234.667969 320.542969 237.644531 319.394531 237.035156 319.242188 C 237.265625 319.242188 237.722656 319.242188 238.027344 319.167969 C 239.859375 318.097656 243.449219 316.109375 244.136719 315.265625 C 244.136719 315.265625 242.074219 315.800781 239.632812 316.261719 C 237.265625 316.796875 234.515625 317.40625 233.292969 317.5625 C 236.117188 316.335938 233.980469 317.101562 233.292969 317.101562 L 233.21875 317.40625 C 231.460938 318.097656 231.230469 317.636719 230.316406 317.867188 C 230.316406 317.941406 230.390625 317.941406 230.46875 317.941406 L 230.542969 317.789062 C 230.699219 317.867188 230.621094 317.941406 230.621094 318.019531 C 230.699219 318.097656 230.699219 318.25 230.238281 318.476562 L 230.316406 318.402344 C 229.703125 318.859375 228.484375 319.394531 227.949219 319.703125 L 227.71875 319.320312 C 227.335938 320.007812 225.199219 320.847656 222.910156 321.691406 C 220.617188 322.53125 218.25 323.296875 217.488281 323.832031 C 215.578125 324.367188 214.050781 326.203125 211.988281 327.273438 C 208.859375 329.261719 210.082031 327.734375 208.324219 328.496094 C 206.261719 329.644531 209.011719 328.652344 208.25 329.261719 C 208.25 329.261719 207.5625 329.570312 206.949219 329.796875 C 206.261719 330.105469 205.652344 330.332031 205.652344 330.332031 C 206.949219 329.339844 206.035156 329.644531 205.730469 329.644531 C 204.734375 330.332031 203.363281 331.097656 202.214844 331.785156 C 201.070312 332.550781 200.15625 333.238281 200.15625 333.851562 C 197.253906 335.535156 197.101562 335.304688 195.953125 336.144531 C 196.414062 335.992188 197.253906 335.535156 197.40625 335.609375 C 196.109375 336.144531 196.949219 336.070312 197.480469 335.839844 C 197.328125 336.070312 197.023438 336.300781 196.71875 336.527344 C 196.566406 336.679688 196.335938 336.757812 196.183594 336.910156 C 196.109375 336.988281 195.953125 337.0625 195.878906 337.140625 C 195.800781 337.21875 195.800781 337.21875 195.726562 337.21875 L 195.648438 337.292969 C 195.113281 337.523438 194.582031 337.828125 194.121094 337.980469 C 193.207031 338.363281 192.671875 338.441406 192.441406 339.28125 L 192.519531 338.976562 C 192.367188 339.589844 192.289062 340.199219 192.136719 340.734375 C 192.0625 341.269531 191.90625 341.730469 191.449219 342.417969 C 191.449219 342.417969 191.144531 342.265625 191.144531 342.265625 L 190.304688 343.488281 C 190 343.488281 190.378906 342.875 190.378906 342.722656 C 189.617188 343.640625 188.929688 344.328125 188.320312 344.867188 C 187.9375 345.324219 188.242188 344.484375 188.242188 344.101562 C 188.320312 343.640625 188.394531 343.257812 188.394531 342.800781 C 188.394531 342.800781 187.785156 344.253906 187.171875 345.9375 C 186.5625 347.617188 185.953125 349.453125 185.953125 349.453125 C 186.257812 348 186.714844 346.011719 187.097656 344.253906 C 187.402344 342.800781 187.554688 341.804688 187.171875 342.1875 C 187.171875 342.1875 187.402344 341.652344 187.554688 341.117188 C 187.785156 340.660156 187.9375 340.125 187.9375 340.125 C 188.320312 338.898438 188.472656 338.289062 188.546875 337.90625 C 188.546875 337.523438 188.472656 337.445312 188.394531 337.371094 C 188.167969 337.292969 187.785156 337.523438 188.015625 336.679688 C 188.015625 336.679688 188.242188 336.144531 188.472656 335.609375 C 188.699219 335.074219 188.929688 334.691406 188.929688 334.691406 L 188.855469 336.144531 C 189.082031 335.304688 189.3125 334.769531 189.464844 334.234375 C 189.695312 333.773438 189.847656 333.316406 190.152344 332.855469 C 190.152344 332.933594 190.074219 332.933594 190 333.011719 L 190 332.855469 C 189.921875 332.855469 189.847656 332.78125 189.769531 332.703125 C 189.769531 332.628906 189.695312 332.628906 189.695312 332.550781 C 189.695312 332.550781 189.695312 332.476562 189.617188 332.476562 C 189.617188 332.398438 189.617188 332.320312 189.617188 332.246094 C 189.539062 331.710938 189.539062 331.023438 189.617188 330.179688 C 189.847656 327.886719 189.386719 326.050781 190.457031 322.378906 L 189.769531 321.386719 L 190.378906 318.632812 L 190.992188 318.632812 C 190.761719 321.308594 190.761719 326.433594 190.535156 329.949219 L 190.839844 330.027344 C 190.992188 327.960938 190.839844 325.589844 190.992188 324.214844 C 191.144531 323.527344 191.90625 321.921875 192.214844 323.144531 L 191.679688 321.84375 C 191.984375 314.960938 191.984375 314.882812 193.054688 307.769531 L 192.746094 308.382812 C 192.671875 306.929688 192.519531 305.476562 193.054688 305.171875 C 193.359375 300.886719 194.046875 296.375 194.960938 293.621094 L 194.273438 292.933594 C 194.351562 292.015625 195.496094 290.714844 194.503906 290.179688 L 194.273438 288.191406 C 194.429688 286.96875 194.046875 286.125 194.503906 284.75 C 194.503906 284.671875 194.582031 284.597656 194.582031 284.519531 C 194.582031 284.519531 194.503906 284.519531 194.503906 284.519531 C 194.960938 281.691406 193.894531 284.519531 194.429688 281.308594 C 194.960938 280.3125 193.585938 280.082031 193.816406 278.554688 L 194.886719 277.023438 C 195.648438 274.195312 194.582031 273.660156 194.808594 269.527344 C 195.269531 267.539062 196.183594 266.621094 196.871094 268 C 196.03125 266.164062 196.261719 267.15625 195.953125 264.710938 C 196.335938 264.328125 196.414062 264.632812 196.71875 265.167969 C 197.253906 263.027344 196.414062 263.867188 196.566406 262.261719 C 195.878906 261.726562 194.734375 261.191406 194.734375 260.65625 L 194.503906 261.269531 C 194.199219 259.585938 194.121094 257.671875 194.582031 255.683594 L 194.960938 255.761719 L 194.582031 253.925781 L 195.039062 253.851562 L 195.039062 250.867188 L 194.886719 251.25 C 194.886719 250.5625 194.808594 248.191406 195.113281 246.890625 L 195.34375 246.964844 C 196.335938 243.296875 195.421875 240.160156 195.496094 235.722656 L 196.03125 236.335938 C 196.640625 234.882812 195.269531 235.875 195.574219 234.117188 L 196.261719 234.039062 C 195.496094 232.433594 196.488281 232.050781 196.871094 230.980469 L 196.03125 231.441406 L 196.261719 229.453125 C 196.640625 227.234375 197.40625 228.152344 197.863281 228.457031 L 197.253906 226.925781 L 198.015625 226.621094 C 197.175781 225.472656 198.167969 225.550781 197.789062 223.5625 C 198.09375 223.410156 198.246094 223.945312 198.398438 223.257812 L 197.480469 219.96875 L 197.863281 221.957031 L 196.792969 221.648438 C 196.03125 219.585938 197.023438 218.898438 196.792969 217.445312 L 197.101562 218.4375 C 196.949219 216.066406 197.40625 215.988281 197.710938 214.613281 C 197.480469 214.996094 197.175781 215.609375 197.023438 214.691406 C 197.023438 214 197.40625 214.308594 197.558594 213.695312 C 196.792969 213.542969 196.488281 211.785156 196.871094 210.253906 C 196.949219 210.253906 197.101562 210.332031 197.101562 210.40625 C 197.023438 210.023438 196.792969 209.796875 197.023438 209.105469 L 197.863281 209.566406 L 197.101562 208.265625 C 197.328125 207.425781 196.792969 206.125 197.328125 206.199219 L 197.480469 206.734375 L 197.941406 200.15625 L 198.628906 200.082031 C 197.789062 199.394531 199.085938 196.488281 197.941406 196.640625 C 198.628906 195.417969 197.632812 191.746094 198.933594 192.507812 C 199.160156 188.148438 198.015625 185.777344 198.78125 180.5 C 199.925781 178.667969 199.695312 173.464844 199.925781 170.101562 C 199.621094 163.445312 199.390625 159.164062 199.160156 152.355469 C 200.765625 148.300781 198.855469 142.183594 199.847656 137.824219 L 199.316406 136.601562 C 200.308594 133.695312 199.238281 129.257812 200.230469 125.128906 C 200 124.132812 199.925781 123.597656 199.925781 123.367188 C 199.925781 123.519531 199.773438 123.828125 199.390625 123.902344 C 199.695312 122.757812 199.390625 120.386719 200.15625 120.539062 L 200.230469 120.84375 C 200.996094 120.996094 199.925781 117.324219 200.613281 116.027344 L 199.773438 116.714844 L 199.925781 114.496094 L 200.078125 115.109375 C 198.398438 105.472656 201.070312 101.1875 199.542969 92.085938 C 200.382812 93.308594 199.085938 90.328125 200.078125 90.175781 C 201.300781 87.878906 199.847656 85.96875 199.542969 84.054688 C 199.46875 84.054688 199.46875 84.054688 199.390625 83.902344 L 199.542969 80.613281 C 200.765625 82.601562 198.550781 78.242188 199.542969 80.078125 C 200.535156 71.589844 199.695312 60.421875 200.15625 50.632812 L 199.847656 51.089844 C 199.925781 48.566406 199.542969 45.507812 200.078125 43.597656 C 200.613281 41.683594 199.316406 39.464844 199.238281 38.699219 C 198.703125 36.636719 199.773438 34.648438 199.695312 35.566406 C 199.542969 33.269531 198.398438 31.207031 198.703125 28.070312 C 199.160156 27.535156 198.855469 25.316406 198.398438 23.328125 C 197.941406 21.261719 197.480469 19.425781 198.09375 19.273438 L 198.015625 19.273438 C 198.09375 18.203125 198.015625 17.207031 197.789062 16.214844 C 197.710938 15.679688 197.558594 15.21875 197.480469 14.683594 C 197.328125 14.226562 197.175781 13.691406 197.023438 13.15625 C 196.488281 11.167969 195.726562 9.179688 195.421875 6.882812 C 195.421875 6.882812 195.496094 6.960938 195.648438 7.035156 C 195.648438 7.035156 195.269531 6.578125 194.65625 5.8125 C 194.046875 5.125 193.28125 4.207031 192.441406 3.289062 C 192.0625 2.828125 191.601562 2.449219 191.222656 1.988281 C 190.839844 1.605469 190.457031 1.222656 190.074219 0.917969 C 189.234375 0.382812 188.777344 0 188.777344 0 C 188.777344 0 188.167969 0.996094 187.554688 1.988281 C 186.945312 2.90625 186.257812 3.824219 186.257812 3.824219 C 186.257812 3.824219 186.257812 3.976562 186.257812 4.128906 C 186.257812 4.359375 186.257812 4.664062 186.257812 4.972656 C 186.257812 5.660156 186.257812 6.652344 186.105469 7.570312 C 186.027344 8.488281 185.953125 9.40625 185.800781 10.097656 C 185.722656 10.785156 185.648438 11.242188 185.648438 11.242188 C 185.648438 11.242188 185.722656 11.472656 185.875 12.007812 C 186.027344 12.46875 186.257812 13.15625 186.488281 13.996094 C 186.945312 15.679688 187.480469 17.898438 187.859375 20.191406 C 188.089844 21.339844 188.242188 22.5625 188.394531 23.632812 C 188.546875 24.78125 188.699219 25.773438 188.777344 26.691406 C 188.929688 28.527344 189.007812 29.753906 189.007812 29.753906 C 189.007812 29.753906 189.007812 30.746094 188.929688 32.199219 C 188.855469 33.652344 188.699219 35.640625 188.546875 37.628906 C 188.242188 41.683594 187.9375 45.660156 187.9375 45.660156 C 187.9375 45.660156 188.015625 55.527344 188.089844 65.394531 C 188.089844 75.261719 188.167969 85.125 188.167969 85.125 L 189.007812 87.957031 C 187.402344 95.679688 189.007812 105.625 187.785156 113.960938 L 188.546875 114.113281 C 188.546875 116.484375 188.089844 116.332031 187.9375 116.867188 C 187.707031 138.742188 188.167969 161.304688 186.640625 180.960938 C 186.105469 182.871094 186.179688 188.609375 185.648438 190.0625 C 186.410156 196.488281 186.105469 203.21875 185.800781 209.640625 L 185.722656 209.414062 L 185.800781 212.394531 C 185.722656 212.546875 185.648438 212.546875 185.570312 212.472656 C 186.105469 215.914062 185.265625 221.191406 184.808594 225.398438 L 184.730469 225.167969 C 183.660156 249.414062 184.042969 272.054688 181.675781 296.070312 C 180.757812 301.652344 180.53125 307.695312 180.300781 313.964844 C 180.226562 317.101562 180.074219 320.3125 179.917969 323.449219 C 179.84375 325.054688 179.691406 326.664062 179.539062 328.269531 L 179.308594 330.640625 L 179.15625 331.863281 L 178.925781 334.082031 C 178.621094 335.382812 178.164062 340.582031 177.707031 347.464844 C 177.246094 354.273438 176.710938 362.761719 176.332031 370.257812 C 180.757812 365.746094 184.882812 361.539062 188.167969 358.25 C 191.375 355.039062 193.585938 352.742188 194.273438 351.976562 Z M 194.273438 351.976562 " fill-opacity="1" fill-rule="nonzero"/></g><path fill="rgb(96.469116%, 96.469116%, 96.469116%)" d="M 227.71875 326.050781 L 227.644531 326.125 C 227.796875 326.355469 227.871094 326.203125 227.71875 326.050781 Z M 227.71875 326.050781 " fill-opacity="1" fill-rule="nonzero"/><path fill="rgb(96.469116%, 96.469116%, 96.469116%)" d="M 188.242188 342.800781 C 188.242188 342.875 188.242188 342.875 188.242188 342.953125 L 188.777344 341.652344 Z M 188.242188 342.800781 " fill-opacity="1" fill-rule="nonzero"/><path fill="rgb(96.469116%, 96.469116%, 96.469116%)" d="M 206.722656 328.957031 C 205.347656 329.796875 205.347656 329.875 205.652344 329.875 C 206.109375 329.492188 206.492188 329.1875 206.722656 328.957031 Z M 206.722656 328.957031 " fill-opacity="1" fill-rule="nonzero"/><path fill="rgb(96.469116%, 96.469116%, 96.469116%)" d="M 238.257812 319.625 C 238.945312 319.320312 238.636719 319.242188 238.105469 319.242188 C 237.417969 319.625 236.882812 319.933594 236.882812 319.933594 C 237.339844 319.855469 237.796875 319.777344 238.257812 319.625 Z M 238.257812 319.625 " fill-opacity="1" fill-rule="nonzero"/><path fill="rgb(96.469116%, 96.469116%, 96.469116%)" d="M 233.371094 317.332031 L 233.445312 316.949219 C 233.066406 317.253906 233.140625 317.332031 233.371094 317.332031 Z M 233.371094 317.332031 " fill-opacity="1" fill-rule="nonzero"/><path fill="rgb(96.469116%, 96.469116%, 96.469116%)" d="M 154.644531 327.886719 C 154.644531 327.808594 154.570312 327.886719 154.644531 327.886719 Z M 154.644531 327.886719 " fill-opacity="1" fill-rule="nonzero"/><path fill="rgb(96.469116%, 96.469116%, 96.469116%)" d="M 172.511719 345.476562 C 172.511719 345.476562 172.589844 345.476562 172.511719 345.476562 C 172.664062 345.402344 172.742188 345.324219 172.894531 345.324219 Z M 172.511719 345.476562 " fill-opacity="1" fill-rule="nonzero"/><path fill="rgb(96.469116%, 96.469116%, 96.469116%)" d="M 174.347656 349.226562 C 174.421875 349.226562 174.5 349.148438 174.347656 349.226562 Z M 174.347656 349.226562 " fill-opacity="1" fill-rule="nonzero"/><path fill="rgb(96.469116%, 96.469116%, 96.469116%)" d="M 148.613281 323.449219 C 148.613281 323.449219 148.691406 323.449219 148.613281 323.449219 C 148.613281 323.449219 148.613281 323.375 148.691406 323.375 Z M 148.613281 323.449219 " fill-opacity="1" fill-rule="nonzero"/><path fill="rgb(96.469116%, 96.469116%, 96.469116%)" d="M 148.84375 323.296875 C 148.84375 323.449219 148.691406 323.449219 148.613281 323.449219 C 148.535156 323.679688 148.613281 323.757812 148.765625 323.757812 C 148.917969 323.601562 148.765625 323.449219 148.84375 323.296875 Z M 148.84375 323.296875 " fill-opacity="1" fill-rule="nonzero"/><path fill="rgb(96.469116%, 96.469116%, 96.469116%)" d="M 138 315.417969 L 138.074219 315.34375 C 138.074219 315.417969 138 315.417969 138 315.417969 Z M 138 315.417969 " fill-opacity="1" fill-rule="nonzero"/><path fill="rgb(96.469116%, 96.469116%, 96.469116%)" d="M 139.527344 316.949219 L 139.753906 316.644531 C 139.601562 316.71875 139.527344 316.871094 139.527344 316.949219 Z M 139.527344 316.949219 " fill-opacity="1" fill-rule="nonzero"/><path fill="rgb(96.469116%, 96.469116%, 96.469116%)" d="M 172.894531 345.324219 L 173.046875 345.246094 C 172.972656 345.246094 172.972656 345.246094 172.894531 345.324219 Z M 172.894531 345.324219 " fill-opacity="1" fill-rule="nonzero"/><path fill="rgb(96.469116%, 96.469116%, 96.469116%)" d="M 176.484375 352.285156 C 176.40625 352.359375 176.332031 352.4375 176.253906 352.4375 Z M 176.484375 352.285156 " fill-opacity="1" fill-rule="nonzero"/><path fill="rgb(96.469116%, 96.469116%, 96.469116%)" d="M 182.210938 370.871094 C 182.210938 370.871094 182.285156 370.792969 182.363281 370.792969 L 182.132812 370.871094 C 182.132812 370.871094 182.132812 370.871094 182.210938 370.871094 Z M 182.210938 370.871094 " fill-opacity="1" fill-rule="nonzero"/><path fill="rgb(96.469116%, 96.469116%, 96.469116%)" d="M 178.238281 357.332031 C 178.238281 357.332031 178.316406 357.332031 178.394531 357.253906 C 178.46875 357.101562 178.316406 356.875 178.164062 356.71875 L 177.78125 356.949219 Z M 178.238281 357.332031 " fill-opacity="1" fill-rule="nonzero"/><path fill="rgb(96.469116%, 96.469116%, 96.469116%)" d="M 172.664062 367.964844 L 173.125 367.046875 C 174.421875 368.191406 174.117188 369.339844 175.492188 370.105469 L 175.261719 370.179688 C 175.1875 370.488281 177.019531 369.417969 176.101562 372.707031 L 176.027344 372.78125 C 176.101562 372.859375 176.253906 372.707031 176.101562 373.011719 L 176.332031 372.398438 C 176.636719 372.476562 177.09375 372.398438 177.324219 372.628906 C 177.246094 372.707031 177.09375 372.859375 177.019531 372.933594 L 177.554688 373.46875 L 177.171875 374.003906 C 177.554688 374.003906 178.546875 373.242188 178.316406 374.160156 C 178.925781 373.46875 178.925781 374.160156 179.234375 373.851562 C 179.15625 373.929688 179.078125 374.082031 179.003906 374.234375 C 179.308594 374.464844 179.84375 375 180.378906 374.847656 C 180.378906 374.847656 181.140625 372.628906 181.675781 371.789062 C 181.753906 372.398438 181.828125 371.863281 182.058594 371.632812 L 181.828125 371.710938 C 181.828125 371.328125 182.285156 371.023438 182.363281 370.792969 C 182.363281 370.792969 182.285156 370.871094 182.210938 370.871094 L 182.285156 370.871094 C 182.210938 370.945312 182.132812 370.945312 182.132812 370.945312 C 182.058594 371.023438 181.980469 371.023438 181.90625 370.945312 L 181.980469 370.945312 C 181.828125 370.871094 181.753906 370.640625 181.753906 370.488281 L 182.132812 370.257812 C 181.292969 370.5625 182.363281 368.191406 182.210938 367.886719 C 182.515625 367.273438 181.675781 367.351562 181.675781 366.894531 C 181.445312 366.28125 182.058594 366.28125 182.210938 365.746094 C 182.210938 365.210938 181.828125 366.128906 181.675781 365.976562 L 181.90625 365.210938 C 182.132812 365.441406 182.285156 365.132812 182.363281 364.980469 C 182.210938 364.597656 182.515625 363.527344 181.675781 363.988281 C 181.753906 363.296875 182.058594 363.070312 181.90625 362.839844 C 181.828125 362.992188 181.753906 363.222656 181.601562 363.296875 C 181.828125 362.914062 181.445312 363.296875 181.445312 363.375 C 180.914062 363.296875 181.753906 360.925781 180.914062 361.460938 L 181.066406 361.386719 C 180.378906 361.769531 179.917969 362.304688 179.386719 362.304688 L 179.539062 361.996094 L 179.15625 361.996094 C 179.234375 361.691406 179.460938 361.691406 179.539062 361.617188 C 179.003906 361.460938 179.003906 360.773438 178.851562 360.316406 L 177.476562 361.921875 C 177.628906 361.308594 178.011719 360.164062 177.398438 360.46875 L 177.78125 359.855469 C 178.394531 358.402344 177.019531 359.703125 177.09375 359.246094 L 177.476562 358.480469 L 177.707031 358.785156 C 177.78125 358.25 177.859375 357.945312 178.085938 357.410156 C 178.085938 357.410156 178.085938 357.484375 178.011719 357.484375 L 177.933594 357.484375 C 177.628906 357.636719 177.246094 357.636719 177.09375 357.410156 C 176.941406 357.027344 176.332031 357.101562 176.558594 356.109375 L 175.871094 356.414062 L 175.949219 355.726562 L 176.40625 355.34375 C 176.636719 355.726562 177.398438 356.339844 177.78125 356.875 L 178.011719 356.71875 C 177.78125 356.414062 177.324219 356.261719 177.246094 356.03125 C 177.246094 355.878906 177.628906 355.265625 178.085938 355.191406 L 177.476562 355.34375 C 176.710938 354.347656 176.636719 354.425781 176.40625 352.972656 L 176.253906 353.277344 C 175.949219 353.203125 175.644531 353.050781 176.027344 352.742188 C 175.644531 352.054688 175.414062 351.214844 175.71875 350.296875 L 175.109375 350.679688 C 175.03125 350.523438 175.71875 349.683594 174.878906 350.21875 L 174.421875 350.144531 C 174.347656 349.914062 173.886719 350.066406 174.039062 349.605469 C 174.039062 349.605469 174.039062 349.53125 174.039062 349.53125 C 174.039062 349.53125 174.039062 349.53125 173.964844 349.605469 C 173.886719 348.996094 173.429688 349.988281 173.429688 349.300781 C 173.734375 348.84375 172.589844 349.683594 172.511719 349.378906 L 173.125 348.535156 C 173.277344 347.773438 172.4375 348.308594 171.902344 347.773438 C 171.980469 347.238281 172.511719 346.546875 173.277344 346.242188 C 172.359375 346.546875 172.742188 346.546875 172.054688 346.472656 C 172.285156 346.164062 172.4375 346.164062 172.742188 346.011719 C 172.820312 345.402344 172.285156 346.011719 172.132812 345.78125 C 171.519531 346.164062 170.527344 346.855469 170.453125 346.777344 L 170.375 347.007812 C 169.839844 347.007812 169.535156 346.855469 169.613281 346.394531 L 169.917969 346.164062 L 169.535156 346.011719 L 169.839844 345.707031 L 169.382812 345.402344 L 169.304688 345.554688 C 169.152344 345.476562 168.773438 345.246094 168.847656 344.941406 L 169.078125 344.789062 C 169.230469 343.71875 168.085938 344.023438 167.550781 343.488281 L 168.007812 343.183594 C 168.238281 342.648438 167.320312 343.640625 167.320312 343.257812 L 167.777344 342.800781 C 166.9375 343.183594 167.703125 342.417969 167.777344 342.035156 L 167.167969 342.648438 L 167.089844 342.265625 C 167.015625 341.804688 167.703125 341.347656 168.085938 341.117188 L 167.398438 341.347656 L 167.933594 340.8125 C 167.167969 341.269531 167.933594 340.582031 167.320312 340.582031 C 167.550781 340.351562 167.703125 340.351562 167.703125 340.125 L 166.558594 340.429688 L 167.167969 340.351562 L 166.328125 341.042969 C 165.488281 341.347656 166.097656 340.582031 165.71875 340.582031 L 166.097656 340.503906 C 165.640625 340.351562 165.945312 340.046875 165.945312 339.664062 C 165.871094 339.894531 165.71875 340.125 165.488281 340.125 C 165.335938 340.046875 165.71875 339.816406 165.71875 339.664062 C 165.183594 340.125 164.648438 340.199219 164.726562 339.742188 C 164.800781 339.664062 164.878906 339.589844 164.953125 339.589844 C 164.800781 339.589844 164.648438 339.742188 164.726562 339.511719 L 165.410156 339.050781 L 164.648438 339.433594 C 164.726562 339.207031 164.113281 339.433594 164.570312 339.050781 L 164.726562 338.976562 L 164.039062 337.980469 L 164.496094 337.523438 C 163.730469 338.058594 164.265625 336.835938 163.503906 337.597656 C 163.808594 336.988281 162.585938 337.21875 163.578125 336.453125 C 163.121094 335.839844 161.976562 336.300781 161.746094 335.226562 C 162.28125 334.234375 161.363281 333.773438 161.058594 333.316406 C 159.914062 332.78125 159.074219 332.476562 157.929688 331.863281 C 158.464844 330.257812 156.25 330.945312 156.324219 329.796875 L 155.789062 330.105469 C 156.097656 329.03125 154.722656 329.339844 154.796875 328.191406 C 154.492188 328.269531 154.339844 328.269531 154.339844 328.269531 C 154.339844 328.34375 154.339844 328.421875 154.035156 328.726562 C 154.035156 328.421875 153.5 328.34375 154.035156 327.808594 L 154.109375 327.808594 C 154.644531 327.273438 153.421875 327.65625 153.652344 326.96875 L 153.195312 327.65625 L 152.964844 327.273438 L 153.117188 327.199219 C 150.675781 327.351562 151.820312 324.902344 149.453125 325.054688 C 150.21875 324.519531 148.917969 325.210938 149.53125 324.445312 C 150.0625 323.296875 148.765625 324.136719 148.308594 324.136719 C 148.308594 324.136719 148.230469 324.214844 148.15625 324.292969 L 147.773438 323.832031 C 148.84375 323.144531 146.78125 324.292969 147.695312 323.753906 C 147.164062 322.074219 145.023438 321.460938 143.957031 320.007812 L 143.804688 320.3125 C 143.496094 320.007812 142.808594 319.929688 142.886719 319.320312 C 142.960938 318.707031 141.816406 319.472656 141.664062 319.394531 C 141.054688 319.550781 141.4375 318.554688 141.511719 318.707031 C 141.128906 318.554688 140.136719 319.167969 139.984375 318.476562 C 140.519531 317.5625 138.152344 318.324219 138.914062 317.40625 L 138.839844 317.484375 C 138.761719 316.414062 137.390625 317.101562 137.234375 316.03125 C 137.234375 316.03125 137.3125 315.953125 137.390625 315.953125 L 134.027344 317.789062 L 131.96875 321.15625 L 131.050781 324.445312 C 131.050781 324.445312 131.816406 324.828125 132.65625 325.210938 C 133.417969 325.589844 134.257812 326.050781 134.257812 326.050781 L 135.632812 328.726562 C 135.632812 328.726562 135.9375 328.957031 136.472656 329.339844 C 137.007812 329.722656 137.617188 330.257812 138.304688 330.714844 C 138.992188 331.25 139.601562 331.710938 140.136719 332.09375 C 140.597656 332.476562 140.976562 332.78125 140.976562 332.78125 L 141.894531 332.476562 C 141.816406 334.539062 144.335938 334.3125 144.566406 336.144531 L 145.101562 335.609375 C 145.40625 335.839844 145.101562 336.144531 145.101562 336.375 C 147.925781 338.824219 151.363281 340.8125 152.964844 343.949219 C 152.8125 344.484375 153.730469 345.019531 153.5 345.554688 C 154.875 345.707031 155.714844 346.546875 156.402344 347.464844 L 156.324219 347.464844 L 156.785156 347.773438 C 156.785156 347.847656 156.707031 347.925781 156.628906 347.925781 C 157.546875 347.925781 157.625 349.070312 157.851562 349.761719 L 157.777344 349.761719 C 160.371094 352.972656 163.960938 355.039062 165.640625 358.9375 C 165.71875 360.085938 166.480469 360.851562 167.246094 361.539062 C 168.007812 362.304688 168.773438 363.070312 169 364.292969 C 169.152344 364.523438 172.132812 367.808594 172.664062 367.964844 Z M 172.664062 367.964844 " fill-opacity="1" fill-rule="nonzero"/><path fill="rgb(96.469116%, 96.469116%, 96.469116%)" d="M 177.09375 372.78125 C 176.867188 372.933594 176.941406 372.933594 177.09375 372.78125 Z M 177.09375 372.78125 " fill-opacity="1" fill-rule="nonzero"/><path fill="rgb(96.469116%, 96.469116%, 96.469116%)" d="M 179.078125 360.164062 L 179.386719 359.855469 Z M 179.078125 360.164062 " fill-opacity="1" fill-rule="nonzero"/><path fill="rgb(96.469116%, 96.469116%, 96.469116%)" d="M 182.746094 365.058594 C 182.667969 364.75 182.59375 364.828125 182.515625 364.902344 C 182.59375 364.980469 182.667969 365.058594 182.746094 365.058594 Z M 182.746094 365.058594 " fill-opacity="1" fill-rule="nonzero"/><path fill="rgb(96.469116%, 96.469116%, 96.469116%)" d="M 178.773438 374.3125 C 178.851562 374.464844 178.925781 374.3125 179.078125 374.082031 C 179.003906 374.003906 178.925781 373.929688 178.925781 373.929688 C 178.925781 374.003906 178.851562 374.234375 178.773438 374.3125 Z M 178.773438 374.3125 " fill-opacity="1" fill-rule="nonzero"/><path fill="rgb(96.469116%, 96.469116%, 96.469116%)" d="M 182.132812 371.480469 L 182.363281 371.40625 C 182.285156 371.40625 182.210938 371.40625 182.132812 371.480469 Z M 182.132812 371.480469 " fill-opacity="1" fill-rule="nonzero"/></svg>