<svg xmlns="http://www.w3.org/2000/svg" xmlns:xlink="http://www.w3.org/1999/xlink" width="500" zoomAndPan="magnify" viewBox="0 0 375 374.999991" height="500" preserveAspectRatio="xMidYMid meet" version="1.0"><defs><clipPath id="id1"><path d="M 96 136 L 249 136 L 249 160 L 96 160 Z M 96 136 " clip-rule="nonzero"/></clipPath><clipPath id="id2"><path d="M 96.238281 139.253906 L 262.566406 131.632812 L 264.246094 168.34375 L 97.921875 175.964844 Z M 96.238281 139.253906 " clip-rule="nonzero"/></clipPath><clipPath id="id3"><path d="M 96.238281 139.253906 L 262.566406 131.632812 L 264.246094 168.34375 L 97.921875 175.964844 Z M 96.238281 139.253906 " clip-rule="nonzero"/></clipPath><clipPath id="id4"><path d="M 236 142 L 264 142 L 264 170 L 236 170 Z M 236 142 " clip-rule="nonzero"/></clipPath><clipPath id="id5"><path d="M 96.238281 139.253906 L 262.566406 131.632812 L 264.246094 168.34375 L 97.921875 175.964844 Z M 96.238281 139.253906 " clip-rule="nonzero"/></clipPath><clipPath id="id6"><path d="M 96.238281 139.253906 L 262.566406 131.632812 L 264.246094 168.34375 L 97.921875 175.964844 Z M 96.238281 139.253906 " clip-rule="nonzero"/></clipPath></defs><g clip-path="url(#id1)"><g clip-path="url(#id2)"><g clip-path="url(#id3)"><path fill="rgb(96.469116%, 96.469116%, 96.469116%)" d="M 100.898438 146.386719 C 97.503906 147.507812 96.183594 149.296875 96.96875 151.410156 C 97.75 153.507812 99.632812 154.042969 102.902344 152.949219 C 113.175781 149.515625 123.699219 147.152344 134.433594 145.652344 C 163.058594 141.667969 191.386719 143.105469 219.304688 150.507812 C 227.484375 152.671875 235.375 155.910156 243.402344 158.675781 C 246.058594 159.589844 247.898438 159.117188 248.691406 157.21875 C 249.472656 155.335938 248.570312 153.585938 246.027344 152.425781 C 243.9375 151.46875 241.792969 150.609375 239.636719 149.800781 C 208.597656 138.195312 176.5 134.929688 150.160156 137.054688 C 129.0625 139 114.804688 141.816406 100.898438 146.386719 Z M 100.898438 146.386719 " fill-opacity="1" fill-rule="nonzero"/></g></g></g><g clip-path="url(#id4)"><g clip-path="url(#id5)"><g clip-path="url(#id6)"><path fill="rgb(96.469116%, 96.469116%, 96.469116%)" d="M 246.398438 146.65625 C 247.390625 148.4375 248.574219 150.128906 249.78125 151.785156 C 251.761719 154.503906 253.835938 157.164062 256.367188 160.503906 C 254.265625 160.84375 252.859375 161.113281 251.4375 161.296875 C 247.34375 161.800781 243.238281 162.195312 239.15625 162.789062 C 237.105469 163.089844 235.996094 164.507812 236.066406 166.207031 C 236.140625 168.023438 237.636719 169.519531 239.816406 169.285156 C 246.324219 168.582031 252.855469 167.929688 259.269531 166.71875 C 263.914062 165.839844 265.265625 162.574219 262.644531 158.625 C 259.105469 153.300781 255.078125 148.308594 251.179688 143.230469 C 250.179688 141.933594 248.714844 141.714844 247.257812 142.535156 C 245.917969 143.289062 245.492188 145.03125 246.398438 146.65625 Z M 246.398438 146.65625 " fill-opacity="1" fill-rule="nonzero"/></g></g></g></svg>