<svg xmlns="http://www.w3.org/2000/svg" xmlns:xlink="http://www.w3.org/1999/xlink" width="500" zoomAndPan="magnify" viewBox="0 0 375 374.999991" height="500" preserveAspectRatio="xMidYMid meet" version="1.0"><defs><clipPath id="id1"><path d="M 45.660156 38 L 182.15625 38 L 182.15625 193.679688 L 45.660156 193.679688 Z M 45.660156 38 " clip-rule="nonzero"/></clipPath><clipPath id="id2"><path d="M 164.007812 261.230469 L 328.988281 261.230469 L 328.988281 374.949219 L 164.007812 374.949219 Z M 164.007812 261.230469 " clip-rule="nonzero"/></clipPath></defs><path fill="rgb(97.648621%, 38.819885%, 1.179504%)" d="M 289.59375 129.609375 C 289.59375 114.589844 289.191406 109.972656 288.835938 107.625 C 288.242188 103.675781 285.777344 100.257812 282.210938 98.449219 L 188.171875 50.667969 C 183.722656 48.40625 178.351562 49.039062 174.546875 52.269531 C 170.871094 55.390625 169.96875 56.222656 169.011719 57.128906 C 168.507812 57.605469 167.9375 58.144531 164.601562 60.976562 C 164.394531 61.152344 164.191406 61.335938 163.996094 61.527344 C 163.78125 61.738281 163.582031 61.933594 163.367188 62.136719 C 163.933594 62.464844 164.484375 62.816406 165.007812 63.199219 C 165.78125 63.777344 166.480469 64.503906 167.105469 65.3125 C 167.25 65.371094 167.398438 65.425781 167.542969 65.496094 C 168.53125 66.101562 169.519531 66.710938 170.503906 67.320312 C 171.488281 68.121094 172.328125 69.03125 173.039062 70.03125 C 179.644531 64.414062 175.359375 67.800781 182.5625 61.683594 L 276.601562 109.464844 C 277.066406 112.554688 277.21875 120.453125 277.21875 129.609375 C 277.21875 132.167969 277.207031 134.828125 277.1875 137.503906 C 277.957031 138.195312 278.648438 138.957031 279.238281 139.777344 C 283.617188 140.722656 287.828125 143.988281 289.441406 148.125 C 289.53125 142.050781 289.59375 135.554688 289.59375 129.609375 " fill-opacity="1" fill-rule="nonzero"/><path fill="rgb(97.648621%, 38.819885%, 1.179504%)" d="M 144.652344 328.046875 C 153.644531 327.042969 159.019531 321.636719 162.277344 317.65625 C 164.667969 314.742188 167.171875 311.914062 169.820312 308.917969 C 171.035156 307.546875 172.246094 306.175781 173.445312 304.800781 C 175.394531 302.566406 177.335938 300.332031 179.28125 298.09375 C 182.777344 294.070312 186.273438 290.050781 189.78125 286.042969 C 192.039062 283.460938 194.3125 280.894531 196.578125 278.320312 C 199.027344 275.554688 201.5625 272.691406 204.046875 269.847656 C 205.765625 267.875 207.46875 265.882812 209.109375 263.957031 C 210.527344 262.292969 211.996094 260.574219 213.433594 258.921875 C 217.644531 254.078125 221.953125 249.160156 226.117188 244.40625 L 228.636719 241.535156 C 232.890625 236.671875 237.15625 231.8125 241.425781 226.953125 C 242.308594 225.953125 248.308594 219.511719 256.160156 211.125 C 255.707031 210.699219 255.285156 210.25 254.90625 209.78125 C 251.078125 205.023438 251.804688 199.242188 254.683594 194.613281 C 244.128906 205.878906 233.457031 217.289062 232.125 218.804688 C 227.851562 223.667969 223.582031 228.53125 219.320312 233.398438 C 214.238281 239.199219 209.152344 245 204.089844 250.820312 C 200.949219 254.433594 197.875 258.113281 194.722656 261.71875 C 189.988281 267.132812 185.203125 272.496094 180.464844 277.90625 C 174.996094 284.152344 169.5625 290.429688 164.113281 296.6875 C 160.300781 301.0625 156.382812 305.347656 152.707031 309.828125 C 150.179688 312.910156 147.421875 315.304688 143.277344 315.765625 C 140.488281 316.078125 137.761719 316.125 135.351562 314.546875 C 132.898438 312.941406 130.808594 310.941406 129.074219 308.515625 C 127.621094 306.488281 126.863281 303.515625 126.863281 300.515625 C 126.863281 297.386719 127.6875 294.222656 129.417969 292.0625 C 132.886719 287.738281 135.964844 283.105469 139.1875 278.589844 C 143.890625 272.003906 148.554688 265.390625 153.257812 258.804688 C 158.753906 251.121094 164.273438 243.457031 169.777344 235.78125 C 173.542969 230.523438 177.261719 225.234375 181.082031 220.015625 C 182.589844 217.960938 183.644531 215.832031 183.980469 213.257812 C 184.019531 212.9375 184.039062 212.625 184.039062 212.3125 C 184.039062 208.601562 181.136719 205.746094 177.296875 206.117188 C 174.390625 206.398438 172.140625 207.871094 170.46875 210.164062 C 166.269531 215.9375 162.132812 221.761719 157.980469 227.574219 C 154.472656 232.480469 151 237.417969 147.480469 242.3125 C 142.160156 249.699219 136.785156 257.050781 131.46875 264.441406 C 127.449219 270.039062 123.445312 275.652344 119.496094 281.300781 C 115.671875 286.777344 109.9375 287.25 104.964844 284.898438 C 100.460938 282.765625 98.359375 279.035156 98.359375 275.050781 C 98.359375 272.796875 99.03125 270.460938 100.324219 268.292969 C 104.191406 261.8125 109.003906 255.894531 113.390625 249.722656 C 119.042969 241.773438 124.671875 233.800781 130.332031 225.851562 C 135.632812 218.410156 140.925781 210.957031 146.304688 203.574219 C 147.570312 201.84375 148.269531 200.082031 148.269531 198.023438 C 148.269531 197.742188 148.257812 197.457031 148.230469 197.160156 C 147.9375 193.960938 146.695312 192.195312 143.800781 191.304688 C 140.878906 190.402344 137.964844 191.296875 136.230469 193.679688 C 127.726562 205.367188 119.230469 217.058594 110.734375 228.75 C 105.46875 236.003906 100.261719 243.296875 94.929688 250.496094 C 93.191406 252.839844 90.628906 253.957031 87.710938 254.140625 C 84.429688 254.347656 81.589844 253.15625 79.09375 251.144531 C 76.097656 248.722656 74.519531 245.660156 74.519531 242.429688 C 74.519531 240.414062 75.132812 238.335938 76.402344 236.304688 C 78.378906 233.140625 80.632812 230.144531 82.789062 227.09375 C 85.082031 223.847656 87.445312 220.644531 89.722656 217.386719 C 93.015625 212.675781 96.226562 207.90625 99.527344 203.199219 C 104.046875 196.765625 108.640625 190.382812 113.152344 183.941406 C 114.109375 182.578125 114.578125 181.28125 114.578125 180.042969 C 114.578125 178.410156 113.75 176.871094 112.121094 175.402344 C 109.3125 172.878906 105.214844 172.921875 103.109375 175.59375 C 100.53125 178.863281 98.03125 182.191406 95.527344 185.519531 C 89.398438 193.6875 83.296875 201.875 77.167969 210.039062 C 75.976562 211.625 74.800781 211.867188 72.96875 211.046875 C 67.855469 208.765625 65.402344 204.28125 65.402344 199.4375 C 65.402344 198.046875 65.605469 196.621094 66.007812 195.210938 C 66.835938 192.292969 68.753906 189.683594 70.160156 186.929688 C 70.230469 186.792969 70.863281 185.972656 71.859375 184.703125 C 71.746094 184.722656 71.640625 184.75 71.523438 184.769531 C 67.933594 185.308594 64.363281 183.90625 61.535156 181.8125 C 60.910156 181.347656 60.332031 180.78125 59.804688 180.15625 C 59.492188 180.621094 59.34375 180.914062 59.136719 181.316406 C 58.835938 181.90625 58.429688 182.609375 58 183.355469 C 56.703125 185.589844 55.09375 188.367188 54.101562 191.835938 C 53.390625 194.339844 53.03125 196.898438 53.03125 199.4375 C 53.03125 209.453125 58.734375 218.226562 67.914062 222.324219 C 68.726562 222.6875 69.539062 222.984375 70.351562 223.21875 C 68.867188 225.296875 67.351562 227.441406 65.90625 229.761719 C 63.445312 233.695312 62.144531 238.078125 62.144531 242.429688 C 62.144531 249.46875 65.402344 255.972656 71.308594 260.75 C 76.15625 264.664062 81.742188 266.648438 87.523438 266.515625 C 86.507812 269.289062 85.984375 272.179688 85.984375 275.050781 C 85.984375 284.15625 91.097656 292.015625 99.667969 296.066406 C 104.625 298.410156 109.777344 299.082031 114.574219 298.226562 C 114.515625 298.980469 114.488281 299.746094 114.488281 300.515625 C 114.488281 306.242188 116.09375 311.636719 119.011719 315.710938 C 121.625 319.359375 124.84375 322.445312 128.566406 324.878906 C 134.3125 328.640625 140.179688 328.550781 144.652344 328.046875 " fill-opacity="1" fill-rule="nonzero"/><path fill="rgb(97.648621%, 38.819885%, 1.179504%)" d="M 306.996094 199.046875 C 306.996094 192.558594 306.113281 186.144531 304.800781 179.769531 C 303.011719 171.09375 301.582031 162.945312 297.054688 155.328125 C 296.589844 154.539062 288.152344 135.824219 274.882812 123.960938 C 270.167969 121.296875 265.429688 118.667969 260.671875 116.082031 C 259.886719 115.65625 258.964844 115.363281 258.082031 115.265625 C 253.125 114.722656 248.15625 114.308594 243.203125 113.753906 C 238.867188 113.273438 234.429688 113.109375 230.257812 111.988281 C 225.566406 110.730469 221.082031 108.65625 216.585938 106.746094 C 213.613281 105.484375 210.765625 105.46875 208.03125 107.070312 C 202.964844 110.035156 200.238281 114.628906 199.644531 120.367188 C 199.484375 121.9375 199.398438 123.511719 199.398438 125.082031 C 199.398438 129.261719 199.992188 133.410156 201.285156 137.410156 C 202.984375 142.683594 206.117188 147.222656 209.9375 151.238281 C 213.835938 155.332031 218.273438 158.722656 223.328125 161.269531 C 227.230469 163.234375 231.304688 164.640625 235.648438 165.367188 C 238.105469 165.777344 240.734375 165.875 242.792969 167.65625 C 243.625 168.382812 244.554688 168.992188 245.382812 169.71875 C 249.042969 172.914062 251.652344 176.910156 252.375 181.632812 C 252.621094 183.21875 252.746094 184.8125 252.746094 186.398438 C 252.746094 190.046875 252.097656 193.683594 250.777344 197.191406 C 250.089844 199.03125 249.335938 200.804688 247.816406 202.207031 C 245.25 204.578125 242.714844 207 240.320312 209.550781 C 237.5 212.550781 234.84375 215.710938 232.125 218.804688 C 227.851562 223.667969 223.582031 228.53125 219.320312 233.398438 C 214.238281 239.199219 209.152344 245 204.089844 250.820312 C 200.949219 254.433594 197.875 258.113281 194.722656 261.71875 C 189.988281 267.132812 185.203125 272.496094 180.464844 277.90625 C 174.996094 284.152344 169.5625 290.429688 164.113281 296.6875 C 160.300781 301.0625 156.382812 305.347656 152.707031 309.828125 C 152.613281 309.9375 152.574219 310.066406 152.574219 310.210938 C 152.574219 311.769531 157.621094 315.347656 163.589844 319.535156 C 168.457031 322.953125 175.160156 326.578125 180.621094 328.949219 C 181.351562 329.265625 182.464844 329.300781 183.171875 328.976562 C 188.890625 326.371094 194.5625 323.664062 200.234375 320.953125 C 209.183594 316.683594 218.113281 312.375 227.0625 308.101562 C 236.351562 303.667969 245.65625 299.257812 254.953125 294.832031 C 260.730469 292.082031 266.519531 289.335938 272.292969 286.570312 C 278.984375 283.359375 285.664062 280.121094 292.34375 276.894531 C 293.28125 276.445312 293.664062 275.808594 293.742188 274.664062 C 294.179688 268.355469 294.519531 262.023438 295.386719 255.765625 C 295.988281 251.472656 297.324219 247.273438 298.457031 243.070312 C 300.050781 237.144531 301.839844 231.273438 303.402344 225.339844 C 305.472656 217.480469 306.691406 209.464844 306.960938 201.339844 C 306.984375 200.574219 306.996094 199.808594 306.996094 199.046875 Z M 295.449219 199.046875 C 295.449219 199.691406 295.4375 200.332031 295.417969 200.960938 C 295.183594 208.066406 294.113281 215.28125 292.234375 222.402344 C 291.425781 225.46875 290.527344 228.625 289.652344 231.675781 C 288.871094 234.414062 288.066406 237.242188 287.304688 240.074219 C 287.070312 240.933594 286.832031 241.792969 286.589844 242.65625 C 285.574219 246.285156 284.527344 250.035156 283.949219 254.179688 C 283.261719 259.128906 282.886719 264.035156 282.5625 268.808594 L 281.640625 269.253906 C 276.859375 271.5625 272.078125 273.875 267.289062 276.171875 C 262.828125 278.316406 258.355469 280.441406 253.886719 282.566406 L 249.984375 284.421875 C 246.722656 285.976562 243.457031 287.527344 240.195312 289.078125 C 234.15625 291.945312 228.117188 294.816406 222.082031 297.699219 C 217.589844 299.839844 213.101562 301.996094 208.609375 304.152344 C 204.160156 306.285156 199.707031 308.421875 195.253906 310.550781 C 190.902344 312.628906 186.433594 314.761719 181.929688 316.851562 C 177.734375 314.816406 173.394531 312.320312 170.226562 310.097656 C 169.75 309.761719 169.214844 309.390625 168.65625 308.992188 C 168.835938 308.789062 169.019531 308.582031 169.203125 308.371094 C 170.414062 307.003906 171.625 305.636719 172.820312 304.257812 C 174.769531 302.027344 176.710938 299.789062 178.65625 297.554688 C 182.152344 293.535156 185.648438 289.507812 189.160156 285.5 C 191.421875 282.917969 193.691406 280.347656 195.964844 277.777344 C 198.410156 275.007812 200.941406 272.144531 203.425781 269.304688 C 205.140625 267.339844 206.839844 265.347656 208.484375 263.417969 C 209.902344 261.757812 211.371094 260.039062 212.808594 258.378906 C 217.027344 253.53125 221.339844 248.609375 225.507812 243.847656 L 228.011719 240.992188 C 232.273438 236.128906 236.539062 231.269531 240.804688 226.410156 C 241.59375 225.515625 242.375 224.613281 243.15625 223.714844 C 245.070312 221.507812 246.878906 219.425781 248.746094 217.4375 C 251.097656 214.929688 253.679688 212.503906 255.660156 210.667969 C 259.328125 207.28125 260.859375 203.199219 261.597656 201.242188 C 263.382812 196.472656 264.292969 191.476562 264.292969 186.398438 C 264.292969 184.238281 264.125 182.046875 263.792969 179.890625 C 262.703125 172.773438 258.964844 166.253906 252.980469 161.03125 C 252.265625 160.410156 251.601562 159.90625 251.070312 159.5 C 250.796875 159.292969 250.496094 159.0625 250.363281 158.949219 C 246.078125 155.234375 241.335938 154.542969 238.5 154.136719 C 238.183594 154.089844 237.863281 154.046875 237.550781 153.992188 C 234.503906 153.480469 231.550781 152.496094 228.527344 150.972656 C 224.816406 149.101562 221.378906 146.519531 218.3125 143.296875 C 215.257812 140.085938 213.285156 137.003906 212.277344 133.878906 C 211.394531 131.144531 210.949219 128.183594 210.949219 125.082031 C 210.949219 123.929688 211.007812 122.742188 211.132812 121.546875 C 211.335938 119.601562 211.964844 118.496094 212.882812 117.707031 C 213.3125 117.894531 213.742188 118.078125 214.171875 118.261719 C 218.273438 120.027344 222.511719 121.851562 227.257812 123.125 C 231.332031 124.222656 235.324219 124.589844 238.847656 124.914062 C 239.917969 125.015625 240.933594 125.109375 241.917969 125.21875 C 244.585938 125.519531 247.257812 125.773438 249.839844 126.027344 C 251.84375 126.21875 253.90625 126.417969 255.925781 126.632812 C 259.886719 128.789062 263.957031 131.046875 268.054688 133.355469 C 274.441406 139.363281 280.90625 148.675781 286.347656 159.738281 C 286.660156 160.367188 286.847656 160.75 287.121094 161.214844 C 290.324219 166.601562 291.613281 172.898438 293.097656 180.183594 L 293.488281 182.097656 C 294.828125 188.578125 295.449219 193.964844 295.449219 199.046875 " fill-opacity="1" fill-rule="nonzero"/><g clip-path="url(#id1)"><path fill="rgb(97.648621%, 38.819885%, 1.179504%)" d="M 91.683594 167.058594 C 91.679688 167.054688 91.675781 167.054688 91.671875 167.050781 C 91.675781 167.054688 91.679688 167.054688 91.683594 167.058594 Z M 86.722656 162.179688 C 86.722656 162.175781 86.722656 162.175781 86.722656 162.175781 C 86.722656 162.175781 86.722656 162.175781 86.722656 162.179688 Z M 79.792969 146.066406 C 79.792969 146.300781 79.78125 146.53125 79.753906 146.765625 C 79.515625 148.707031 78.3125 150.394531 76.554688 151.253906 C 74.730469 152.136719 73.167969 152.03125 72.578125 151.992188 C 71.769531 151.960938 71.015625 151.894531 70.292969 151.832031 C 69.171875 151.734375 68.015625 151.636719 67.335938 151.761719 C 65.007812 152.199219 62.898438 153.566406 60.894531 155.9375 C 58.125 159.214844 57.003906 162.132812 57.242188 165.40625 C 57.316406 166.390625 57.679688 167.1875 58.460938 168.078125 C 61.320312 171.339844 71.546875 179.835938 74.550781 181.453125 C 75.347656 181.882812 76.53125 182.296875 78.625 181.707031 C 83.082031 180.453125 86.148438 177.597656 88 172.988281 C 89.628906 168.914062 88.84375 166.953125 87.851562 165.574219 C 86.785156 164.082031 86.726562 162.570312 86.710938 162.054688 C 86.558594 160.363281 87.160156 158.683594 88.363281 157.472656 C 89.59375 156.234375 91.324219 155.617188 93.0625 155.800781 L 93.191406 155.804688 C 93.738281 155.828125 94.757812 155.871094 95.914062 156.328125 C 98.175781 157.21875 101.433594 157.808594 106.535156 154.449219 C 110.550781 151.800781 113.011719 148.226562 114.050781 143.515625 C 114.769531 140.261719 114.382812 137.734375 112.789062 135.3125 C 112.546875 134.941406 112.316406 134.558594 112.015625 134.050781 L 111.597656 133.34375 C 110.339844 131.242188 110.542969 128.574219 112.113281 126.691406 C 113.683594 124.808594 116.269531 124.121094 118.566406 124.976562 C 125.46875 127.546875 130.789062 126.0625 135.800781 120.167969 C 140.882812 114.199219 141.53125 108.726562 137.90625 102.417969 C 136.578125 100.113281 137.003906 97.203125 138.933594 95.367188 C 140.859375 93.535156 143.796875 93.261719 146.035156 94.699219 C 153.460938 99.464844 159.625 98.9375 165.453125 93.035156 C 171.21875 87.1875 172.070312 81.152344 168.097656 74.097656 C 160.164062 67.089844 157.675781 65.019531 156.597656 64.117188 L 156.109375 63.710938 C 154.671875 62.496094 153.214844 61.300781 151.753906 60.109375 C 149.296875 58.09375 146.753906 56.011719 144.296875 53.820312 C 141.242188 51.085938 138.570312 49.785156 135.644531 49.605469 C 131.003906 49.320312 127.105469 50.796875 123.738281 54.121094 C 120.996094 56.820312 119.414062 60.058594 118.894531 64.03125 C 118.511719 66.90625 119.058594 69.53125 120.542969 72.046875 C 120.878906 72.613281 121.328125 73.226562 121.898438 74.003906 C 122.226562 74.453125 122.574219 74.929688 122.941406 75.453125 C 124.328125 77.425781 124.34375 80.050781 122.972656 82.035156 C 121.605469 84.019531 119.144531 84.949219 116.800781 84.359375 C 116.636719 84.3125 116.492188 84.289062 116.378906 84.261719 C 115.890625 84.160156 115.160156 84.003906 114.332031 83.601562 C 111.851562 82.394531 109.222656 82.367188 106.292969 83.527344 C 100.476562 85.820312 96.839844 89.804688 95.175781 95.695312 C 93.9375 100.085938 94.441406 103.332031 96.8125 106.226562 C 97.148438 106.632812 97.390625 106.996094 97.648438 107.382812 C 97.757812 107.542969 97.886719 107.734375 98.046875 107.96875 C 99.378906 109.890625 99.417969 112.421875 98.144531 114.382812 C 96.871094 116.347656 94.542969 117.34375 92.242188 116.917969 C 91.980469 116.867188 91.757812 116.839844 91.5625 116.808594 C 90.890625 116.710938 90.050781 116.585938 89.085938 116.195312 C 87.425781 115.523438 85.570312 115.652344 82.476562 116.65625 C 77.234375 118.355469 71.5625 124.734375 71.457031 131.515625 C 71.425781 135.183594 72.488281 137.5625 75.082031 139.464844 C 75.832031 140.011719 76.484375 140.578125 77.0625 141.078125 C 77.285156 141.269531 77.503906 141.457031 77.726562 141.644531 C 79.046875 142.746094 79.792969 144.371094 79.792969 146.066406 Z M 45.660156 164.511719 C 45.660156 158.847656 47.769531 153.589844 52.074219 148.5 C 54.96875 145.070312 58.28125 142.667969 61.941406 141.324219 C 60.535156 138.402344 59.847656 135.0625 59.914062 131.34375 C 60.074219 120.359375 68.417969 109.085938 78.910156 105.683594 C 80.273438 105.242188 81.800781 104.8125 83.445312 104.539062 C 82.648438 100.855469 82.851562 96.851562 84.0625 92.566406 C 86.695312 83.242188 92.914062 76.40625 102.046875 72.800781 C 103.992188 72.03125 105.945312 71.527344 107.882812 71.296875 C 107.195312 68.476562 107.046875 65.550781 107.441406 62.539062 C 108.296875 56.015625 111.046875 50.417969 115.625 45.910156 C 121.308594 40.3125 128.472656 37.609375 136.351562 38.09375 C 141.890625 38.429688 147.011719 40.765625 152 45.226562 C 154.269531 47.253906 156.605469 49.164062 159.078125 51.191406 C 160.582031 52.421875 162.089844 53.65625 163.574219 54.910156 L 163.996094 55.261719 C 165.238281 56.300781 167.832031 58.460938 176.445312 66.070312 C 176.882812 66.460938 177.257812 66.910156 177.5625 67.410156 C 184.761719 79.328125 183.378906 91.304688 173.675781 101.132812 C 167.269531 107.617188 159.648438 110.3125 151.746094 109.117188 C 152.011719 115.5 149.613281 121.753906 144.601562 127.636719 C 139.183594 134.003906 132.792969 137.390625 125.746094 137.703125 C 126.109375 140.34375 125.96875 143.117188 125.328125 146.007812 C 123.628906 153.679688 119.449219 159.757812 112.898438 164.074219 C 108.75 166.808594 104.601562 168.292969 100.496094 168.523438 C 100.535156 171.273438 99.949219 174.203125 98.71875 177.277344 C 95.539062 185.207031 89.675781 190.578125 81.757812 192.804688 C 77.214844 194.085938 72.945312 193.683594 69.082031 191.613281 C 64.183594 188.980469 52.996094 179.355469 49.773438 175.671875 C 47.347656 172.910156 45.984375 169.742188 45.726562 166.261719 C 45.679688 165.675781 45.660156 165.09375 45.660156 164.511719 " fill-opacity="1" fill-rule="nonzero"/></g><path fill="rgb(97.648621%, 38.819885%, 1.179504%)" d="M 112.445312 78.980469 C 112.445312 77.679688 112.882812 76.367188 113.78125 75.289062 C 115.824219 72.84375 119.46875 72.511719 121.917969 74.550781 L 146.664062 95.144531 C 149.113281 97.1875 149.445312 100.824219 147.402344 103.269531 C 145.363281 105.714844 141.71875 106.046875 139.269531 104.007812 L 114.523438 83.414062 C 113.152344 82.269531 112.445312 80.632812 112.445312 78.980469 " fill-opacity="1" fill-rule="nonzero"/><path fill="rgb(97.648621%, 38.819885%, 1.179504%)" d="M 87.699219 111.105469 C 87.699219 109.84375 88.109375 108.570312 88.960938 107.507812 C 90.957031 105.023438 94.589844 104.617188 97.078125 106.609375 L 121.824219 126.378906 C 124.316406 128.367188 124.71875 132 122.726562 134.484375 C 120.738281 136.96875 117.101562 137.375 114.609375 135.382812 L 89.863281 115.613281 C 88.441406 114.472656 87.699219 112.796875 87.699219 111.105469 " fill-opacity="1" fill-rule="nonzero"/><path fill="rgb(97.648621%, 38.819885%, 1.179504%)" d="M 67.074219 144.882812 C 67.074219 143.628906 67.480469 142.367188 68.324219 141.308594 C 70.300781 138.8125 73.933594 138.390625 76.433594 140.367188 L 96.230469 156.019531 C 98.730469 157.992188 99.152344 161.625 97.175781 164.117188 C 95.195312 166.613281 91.566406 167.035156 89.0625 165.0625 L 69.265625 149.410156 C 67.828125 148.269531 67.074219 146.585938 67.074219 144.882812 " fill-opacity="1" fill-rule="nonzero"/><path fill="rgb(97.648621%, 38.819885%, 1.179504%)" d="M 315.242188 77.425781 C 315.242188 76.167969 314.851562 75.773438 313.746094 75.230469 C 309.429688 73.117188 304.898438 70.859375 299.894531 68.332031 C 291.160156 63.921875 282.429688 59.496094 273.707031 55.058594 C 271.117188 53.738281 268.53125 52.40625 265.945312 51.078125 C 262.671875 49.390625 259.394531 47.707031 256.109375 46.046875 C 254.125 45.042969 252.121094 44.074219 250.121094 43.101562 C 248.167969 42.15625 246.21875 41.207031 244.28125 40.234375 C 238.675781 37.410156 233.003906 34.515625 227.515625 31.710938 L 224.957031 30.40625 C 222.597656 29.199219 220.242188 27.992188 217.886719 26.78125 C 214.539062 25.0625 211.191406 23.34375 207.835938 21.640625 C 205.707031 20.5625 203.574219 19.5 201.4375 18.433594 C 198.261719 16.855469 194.976562 15.214844 191.757812 13.542969 C 190.644531 12.96875 189.015625 13.261719 188.460938 14.140625 C 187.199219 16.140625 186.089844 18.320312 184.917969 20.621094 L 183.042969 24.289062 C 180.421875 29.398438 177.714844 34.679688 175.222656 39.910156 C 174.898438 40.585938 174.710938 41.59375 174.75 42.476562 C 174.769531 42.996094 174.796875 43.703125 176.988281 44.773438 C 183.648438 48.023438 190.363281 51.40625 196.859375 54.679688 L 201.609375 57.066406 C 209.078125 60.824219 216.539062 64.589844 223.992188 68.375 C 228.859375 70.847656 233.722656 73.324219 238.585938 75.804688 C 244.824219 78.984375 251.066406 82.164062 257.308594 85.332031 C 261.394531 87.398438 265.484375 89.445312 269.578125 91.492188 C 272.882812 93.148438 276.191406 94.800781 279.492188 96.46875 C 285.371094 99.433594 291.613281 102.589844 297.703125 105.742188 C 299.234375 106.53125 301.203125 106.539062 302.160156 104.777344 C 302.949219 103.324219 303.6875 101.847656 304.472656 100.285156 C 304.851562 99.527344 305.230469 98.765625 305.617188 98.011719 C 306.371094 96.535156 307.125 95.066406 307.878906 93.59375 C 309.628906 90.207031 311.429688 86.703125 313.125 83.25 C 313.414062 82.660156 313.726562 82.078125 314.042969 81.5 C 314.535156 80.585938 315.277344 79.203125 315.242188 78.757812 L 315.203125 78.324219 L 315.222656 77.890625 C 315.234375 77.722656 315.242188 77.570312 315.242188 77.425781 Z M 163.195312 42.257812 C 163.195312 39.707031 163.753906 37.140625 164.792969 34.960938 C 167.355469 29.574219 170.105469 24.214844 172.765625 19.03125 L 174.625 15.398438 C 175.863281 12.960938 177.144531 10.445312 178.691406 7.992188 C 182.417969 2.082031 190.667969 -0.015625 197.078125 3.308594 C 200.21875 4.9375 203.460938 6.554688 206.589844 8.113281 C 208.753906 9.1875 210.914062 10.265625 213.066406 11.359375 C 216.4375 13.066406 219.804688 14.796875 223.171875 16.523438 C 225.515625 17.730469 227.863281 18.9375 230.214844 20.132812 L 232.777344 21.445312 C 238.246094 24.238281 243.90625 27.125 249.480469 29.933594 C 251.363281 30.882812 253.265625 31.804688 255.167969 32.730469 C 257.179688 33.707031 259.265625 34.71875 261.320312 35.753906 C 264.632812 37.429688 267.933594 39.125 271.234375 40.824219 C 273.804688 42.148438 276.375 43.472656 278.949219 44.78125 C 287.664062 49.214844 296.382812 53.632812 305.105469 58.039062 C 310.070312 60.546875 314.558594 62.78125 318.835938 64.878906 C 324.175781 67.496094 326.980469 72.195312 326.773438 78.152344 C 326.96875 81.855469 325.378906 84.8125 324.199219 86.988281 C 323.957031 87.433594 323.714844 87.875 323.496094 88.328125 C 321.75 91.875 319.921875 95.429688 318.152344 98.867188 C 317.402344 100.328125 316.652344 101.785156 315.90625 103.25 C 315.535156 103.980469 315.167969 104.714844 314.800781 105.445312 C 314.007812 107.019531 313.195312 108.648438 312.316406 110.265625 C 308.449219 117.398438 299.886719 119.855469 292.394531 115.984375 C 286.347656 112.855469 280.378906 109.835938 274.285156 106.761719 C 270.996094 105.101562 267.699219 103.453125 264.402344 101.804688 C 260.292969 99.746094 256.1875 97.691406 252.085938 95.617188 C 245.828125 92.445312 239.582031 89.261719 233.332031 86.078125 C 228.476562 83.601562 223.617188 81.125 218.753906 78.65625 C 211.320312 74.878906 203.871094 71.117188 196.417969 67.371094 L 191.660156 64.976562 C 185.199219 61.71875 178.515625 58.355469 171.917969 55.136719 C 164.976562 51.746094 163.347656 46.621094 163.210938 42.917969 C 163.199219 42.695312 163.195312 42.476562 163.195312 42.257812 " fill-opacity="1" fill-rule="nonzero"/><g clip-path="url(#id2)"><path fill="rgb(97.648621%, 38.819885%, 1.179504%)" d="M 317.222656 300.507812 C 315.589844 296.898438 313.84375 293.234375 312.15625 289.691406 L 310.691406 286.613281 C 310.042969 285.246094 309.390625 283.882812 308.734375 282.523438 C 307.476562 279.90625 306.175781 277.203125 304.933594 274.488281 C 304.429688 273.378906 302.519531 272.585938 301.804688 272.828125 C 300.417969 273.300781 298.96875 274.003906 297.429688 274.742188 L 297.058594 274.925781 C 293.90625 276.449219 290.761719 277.980469 287.617188 279.511719 C 283.230469 281.652344 278.84375 283.789062 274.441406 285.894531 C 271.800781 287.160156 269.113281 288.394531 266.515625 289.589844 C 264.125 290.6875 261.738281 291.785156 259.363281 292.914062 C 256.1875 294.421875 253.027344 295.960938 249.867188 297.5 C 246.921875 298.933594 243.972656 300.367188 241.015625 301.777344 C 237.226562 303.585938 233.421875 305.375 229.625 307.164062 C 226.4375 308.660156 223.246094 310.160156 220.066406 311.671875 C 213.234375 314.925781 206.40625 318.1875 199.578125 321.445312 L 186.441406 327.722656 C 183.234375 329.253906 180.03125 330.785156 176.820312 332.3125 C 176.347656 332.570312 175.777344 333.839844 175.882812 334.394531 C 176.898438 337.226562 177.917969 339.75 178.992188 342.070312 C 181.757812 348.039062 184.125 352.941406 186.4375 357.5 C 187.375 359.351562 188.515625 361.457031 189.855469 363.054688 C 190.230469 363.5 191.316406 363.492188 191.828125 363.253906 C 198.402344 360.171875 205.078125 356.988281 211.535156 353.917969 L 216.855469 351.382812 C 225.699219 347.171875 234.542969 342.960938 243.382812 338.742188 C 247.039062 336.996094 250.683594 335.242188 254.332031 333.488281 C 258.359375 331.554688 262.386719 329.625 266.417969 327.699219 C 272.527344 324.78125 278.644531 321.882812 284.765625 318.980469 L 294.964844 314.140625 C 301.660156 310.960938 308.359375 307.785156 315.074219 304.628906 C 317.183594 303.636719 317.433594 302.929688 317.449219 302.128906 C 317.402344 301.839844 317.363281 301.542969 317.328125 301.25 C 317.296875 301.003906 317.257812 300.679688 317.222656 300.507812 Z M 164.332031 334.300781 C 164.332031 329.28125 167.289062 324.074219 171.851562 321.902344 C 175.054688 320.375 178.257812 318.847656 181.460938 317.316406 L 194.59375 311.042969 C 201.429688 307.777344 208.265625 304.515625 215.105469 301.261719 C 218.296875 299.742188 221.5 298.234375 224.703125 296.730469 C 228.484375 294.949219 232.261719 293.171875 236.035156 291.375 C 238.964844 289.972656 241.886719 288.550781 244.808594 287.128906 C 247.996094 285.578125 251.191406 284.023438 254.394531 282.5 C 256.816406 281.347656 259.257812 280.226562 261.691406 279.109375 C 264.25 277.933594 266.894531 276.722656 269.453125 275.492188 C 273.828125 273.402344 278.1875 271.273438 282.546875 269.148438 C 285.707031 267.609375 288.867188 266.070312 292.03125 264.542969 L 292.402344 264.367188 C 294.179688 263.503906 296.019531 262.613281 298.074219 261.914062 C 304.554688 259.710938 312.503906 263.273438 315.445312 269.699219 C 316.636719 272.308594 317.910156 274.960938 319.144531 277.527344 C 319.804688 278.90625 320.472656 280.289062 321.128906 281.671875 L 322.582031 284.734375 C 324.316406 288.375 326.113281 292.140625 327.8125 295.902344 C 328.484375 297.386719 328.65625 298.792969 328.785156 299.820312 C 328.820312 300.0625 328.84375 300.308594 328.890625 300.546875 L 328.972656 300.992188 L 328.988281 301.445312 C 329.113281 305.667969 327.644531 311.464844 319.992188 315.0625 C 313.292969 318.210938 306.609375 321.386719 299.921875 324.558594 L 289.714844 329.398438 C 283.605469 332.292969 277.496094 335.195312 271.394531 338.101562 C 267.375 340.023438 263.355469 341.953125 259.339844 343.882812 C 255.683594 345.640625 252.027344 347.398438 248.367188 349.144531 C 239.523438 353.371094 230.675781 357.582031 221.824219 361.792969 L 216.507812 364.328125 C 210.035156 367.410156 203.34375 370.597656 196.734375 373.695312 C 192.09375 375.871094 185.203125 375.457031 181.007812 370.46875 C 178.910156 367.972656 177.367188 365.148438 176.132812 362.710938 C 173.757812 358.027344 171.335938 353.007812 168.515625 346.914062 C 167.292969 344.277344 166.140625 341.4375 164.988281 338.222656 C 164.539062 336.96875 164.332031 335.640625 164.332031 334.300781 " fill-opacity="1" fill-rule="nonzero"/></g></svg>