<svg xmlns="http://www.w3.org/2000/svg" xmlns:xlink="http://www.w3.org/1999/xlink" width="500" zoomAndPan="magnify" viewBox="0 0 375 374.999991" height="500" preserveAspectRatio="xMidYMid meet" version="1.0"><defs><clipPath id="id1"><path d="M 55.246094 0 L 319.996094 0 L 319.996094 375 L 55.246094 375 Z M 55.246094 0 " clip-rule="nonzero"/></clipPath><clipPath id="id2"><path d="M 303 294 L 319.996094 294 L 319.996094 375 L 303 375 Z M 303 294 " clip-rule="nonzero"/></clipPath></defs><path fill="rgb(99.609375%, 41.958618%, 1.179504%)" d="M 290.347656 22.035156 C 300.710938 65.105469 304.941406 108.832031 303.035156 153.152344 C 301.128906 197.410156 293.085938 240.601562 279.027344 282.65625 C 252.578125 332.695312 168.109375 386.488281 147.316406 365.222656 C 141.660156 357.714844 158.636719 332.695312 186.992188 307.675781 C 211.652344 289.148438 228.632812 265.261719 237.984375 235.894531 C 237.984375 218.917969 230.417969 218.917969 213.859375 240.125 C 178.292969 282.179688 135.046875 313.691406 84.054688 334.542969 C 61.417969 334.542969 65.230469 261.390625 89.773438 212.78125 C 121.523438 165.71875 156.609375 121.339844 195.035156 79.640625 C 263.898438 6.429688 280.933594 -5.367188 290.347656 22.035156 Z M 290.347656 22.035156 " fill-opacity="1" fill-rule="evenodd"/><g clip-path="url(#id1)"><path fill="rgb(99.609375%, 41.958618%, 1.179504%)" d="M -1094.066406 12.148438 C -1094.066406 52.714844 -943.949219 240.125 -870.320312 290.164062 C -735.335938 380.828125 -558.828125 691.90625 -509.742188 921.371094 C -496.996094 983.203125 -481.863281 1025.675781 -474.296875 1015.789062 C -455.296875 954.191406 -443.320312 891.226562 -438.4375 826.949219 C -429.382812 736.34375 -406.269531 649.492188 -369.039062 566.332031 C -340.742188 514.445312 -325.609375 496.929688 -333.175781 525.761719 C -391.734375 784.476562 -391.734375 888.785156 -333.175781 776.910156 C -288.378906 693.453125 -230.121094 620.777344 -158.515625 558.824219 C -145.292969 550.78125 -154.761719 573.894531 -181.210938 614.523438 C -227.140625 677.308594 -263.242188 745.339844 -289.453125 818.609375 C -315.601562 891.882812 -330.851562 967.359375 -335.082031 1045.039062 C -341.933594 1097.28125 -341.933594 1149.523438 -335.082031 1201.765625 C -287.605469 1184.609375 -241.320312 1164.65625 -196.285156 1141.839844 C -125.039062 1108.777344 -44.320312 1074.347656 -12.210938 1064.398438 C 40.210938 1048.851562 42.058594 1051.171875 6.671875 1076.191406 C -16.558594 1092.515625 -38.421875 1110.445312 -58.914062 1130.042969 C -79.703125 1148.511719 -102.339844 1164.238281 -126.882812 1177.222656 C -161.375 1204.6875 -188.300781 1238.164062 -207.601562 1277.777344 C -243.046875 1349.085938 -239.234375 1378.332031 -198.191406 1335.859375 C -156.789062 1317.929688 -113.480469 1308.160156 -68.386719 1306.609375 C -6.550781 1300.953125 31.214844 1302.796875 16.085938 1310.839844 C -85.960938 1372.554688 -176.089844 1448.386719 -254.363281 1538.398438 C -290.226562 1593.261719 -316.496094 1652.476562 -333.175781 1715.917969 C -345.746094 1752.019531 -352.714844 1789.191406 -353.964844 1827.433594 C -355.277344 1865.679688 -350.867188 1903.265625 -340.742188 1940.140625 C -331.566406 1994.527344 -312.863281 2045.34375 -284.566406 2092.640625 C -252.457031 2135.113281 -252.457031 2139.820312 -280.8125 2173.835938 C -309.109375 2207.789062 -312.863281 2210.171875 -261.929688 2173.835938 C -233.574219 2154.476562 -209.507812 2131.363281 -209.507812 2123.320312 C -209.507812 2115.277344 -10.304688 1992.085938 136 1918.875 C 380.535156 1797.113281 756.246094 1762.621094 1032.832031 1835.832031 C 1160.726562 1870.742188 1536.496094 2038.3125 1536.496094 2061.960938 C 1536.496094 2067.621094 1530.839844 2067.621094 1521.367188 2061.960938 C 1511.953125 2056.304688 1457.625 2028.902344 1395.375 2000.070312 C 1057.375 1841.492188 832.257812 1795.207031 567.40625 1833.925781 C 289.394531 1874.496094 -35.800781 2028.902344 -216.121094 2206.421875 C -270.390625 2260.6875 -296.839844 2291.367188 -276.046875 2278.144531 C -255.855469 2264.203125 -237.148438 2248.476562 -219.875 2230.964844 C -90.070312 2089.304688 227.082031 1954.796875 507.003906 1921.734375 C 706.207031 1898.621094 1006.859375 1966.113281 1391.5625 2118.613281 C 1434.097656 2131.71875 1473.589844 2151.078125 1510.046875 2176.636719 C 1460.070312 2166.566406 1411.875 2150.839844 1365.589844 2129.457031 C 1059.28125 2005.789062 867.640625 1963.253906 634.902344 1963.253906 C 505.277344 1955.273438 379.402344 1973.382812 257.285156 2017.582031 C 183.476562 2040.398438 111.398438 2067.917969 41.105469 2100.207031 C -52.660156 2156.261719 -136.535156 2224.589844 -210.460938 2305.070312 C -225.53125 2326.335938 -189.671875 2305.070312 -133.496094 2257.890625 C 86.4375 2074.234375 313.460938 2016.152344 691.074219 2051.0625 C 848.757812 2064.761719 907.257812 2079.894531 1110.273438 2166.746094 C 1190.15625 2196.414062 1267.121094 2232.453125 1341.046875 2274.867188 C 1274.269531 2256.519531 1209.753906 2232.15625 1147.5625 2201.65625 C 1056.183594 2161.148438 962.894531 2125.703125 867.640625 2095.441406 C 740.160156 2058.625 368.265625 2061.007812 254.007812 2095.441406 C 159.589844 2124.75 -59.390625 2240.375 -59.390625 2261.640625 C -80.894531 2287.734375 -106.09375 2309.597656 -134.925781 2327.230469 C -229.34375 2392.875 -223.210938 2406.578125 -123.609375 2357.96875 C 129.863281 2232.808594 254.007812 2201.65625 466.4375 2203.5625 L 625.964844 2207.375 L 466.4375 2221.015625 C 318.105469 2229.535156 176.507812 2264.976562 41.582031 2327.230469 C 18.585938 2340.335938 -5.777344 2349.925781 -31.570312 2356.0625 C -58.734375 2366.246094 -83.101562 2381.082031 -104.722656 2400.441406 L -158.992188 2447.621094 L 83.160156 2459 C 216.71875 2466.503906 644.847656 2472.640625 1033.308594 2472.640625 C 1421.765625 2472.640625 1743.683594 2487.292969 1748.449219 2494.859375 C 1753.15625 2502.425781 1239.597656 2518.449219 606.605469 2524.109375 C -667.84375 2539.238281 -2823.097656 2520.355469 -2823.097656 2494.859375 C -2823.097656 2487.292969 -2492.660156 2477.882812 -2086.746094 2477.882812 C -1680.777344 2477.882812 -1237.097656 2469.839844 -1104.433594 2462.273438 L -859.957031 2450.480469 L -914.703125 2412.234375 C -1051.59375 2317.816406 -1269.679688 2247.941406 -1489.136719 2228.582031 L -1650.097656 2214.878906 L -1499.5625 2214.878906 C -1420.15625 2212.378906 -1341.402344 2218.453125 -1263.308594 2233.109375 C -1185.210938 2247.761719 -1109.617188 2270.636719 -1036.464844 2301.792969 C -1003.878906 2320.378906 -969.386719 2334.554688 -933.109375 2344.265625 C -902.726562 2355.523438 -875.863281 2372.382812 -852.390625 2394.78125 C -820.28125 2423.554688 -790.082031 2441.960938 -784.421875 2437.253906 C -766.015625 2415.988281 -1047.363281 2201.238281 -1167.695312 2145.480469 C -1288.089844 2089.78125 -1315.90625 2085.550781 -1526.429688 2077.988281 C -1778.054688 2068.574219 -1896.480469 2085.550781 -2080.613281 2162.992188 C -2118.378906 2181.164062 -2157.875 2194.03125 -2199.097656 2201.65625 C -2153.824219 2172.226562 -2105.511719 2149.113281 -2054.164062 2132.253906 C -1945.148438 2094.25 -1833.335938 2068.695312 -1718.601562 2055.648438 C -1603.929688 2042.542969 -1489.199219 2042.304688 -1374.464844 2054.875 C -1328.835938 2058.507812 -1283.859375 2065.953125 -1239.480469 2077.09375 C -1195.097656 2088.292969 -1151.96875 2103.066406 -1110.09375 2121.472656 C -1068.214844 2139.878906 -1028.125 2161.625 -989.878906 2186.761719 C -951.574219 2211.839844 -915.714844 2239.957031 -882.117188 2271.054688 C -854.535156 2299.527344 -823.082031 2322.640625 -787.757812 2340.453125 C -774.53125 2329.136719 -1000.125 2143.632812 -1070.953125 2104.4375 C -1103.0625 2089.304688 -1198.851562 2052.492188 -1287.136719 2021.8125 C -1348.015625 2003.941406 -1409.851562 1990.238281 -1472.636719 1980.769531 C -1535.363281 1971.296875 -1598.507812 1966.171875 -1661.953125 1965.339844 C -1725.394531 1964.503906 -1788.65625 1967.960938 -1851.625 1975.765625 C -1914.589844 1983.566406 -1976.78125 1995.601562 -2038.136719 2011.921875 C -2256.164062 2079.417969 -2292.085938 2079.417969 -2106.109375 2011.921875 C -2036.886719 1985.296875 -1965.878906 1964.863281 -1893.144531 1950.507812 C -1820.347656 1936.210938 -1746.957031 1928.226562 -1672.792969 1926.558594 C -1598.6875 1924.890625 -1524.941406 1929.597656 -1451.609375 1940.675781 C -1378.335938 1951.757812 -1306.496094 1969.09375 -1236.144531 1992.5625 C -1176.214844 2015.675781 -1104.910156 2039.742188 -1078.519531 2050.585938 C -990.238281 2077.511719 -879.316406 2162.515625 -731.105469 2314.957031 C -650.386719 2398.058594 -601.300781 2438.683594 -623.9375 2409.375 C -706.085938 2283.800781 -904.335938 2116.707031 -1083.703125 2018.058594 C -1344.738281 1876.402344 -1500.457031 1834.878906 -1769.058594 1834.878906 C -1960.695312 1834.878906 -2005.078125 1842.445312 -2157.992188 1896.714844 C -2250.386719 1927.929688 -2340.515625 1964.625 -2428.441406 2006.679688 C -2459.894531 2028.246094 -2494.386719 2042.421875 -2531.855469 2049.214844 C -2548.835938 2031.699219 -2201.421875 1879.261719 -2059.820312 1842.445312 C -1772.394531 1767.328125 -1387.691406 1801.820312 -1150.71875 1925.488281 C -933.109375 2039.265625 -867.523438 2079.894531 -780.667969 2155.429688 C -730.152344 2199.808594 -707.515625 2213.03125 -733.429688 2184.199219 L -780.667969 2132.253906 L -715.023438 2062.4375 L -651.339844 1994.886719 L -658.847656 1794.253906 C -664.566406 1489.3125 -762.261719 1124.386719 -880.269531 965.75 C -964.441406 871.507812 -1063.746094 797.582031 -1178.121094 743.851562 C -1225.300781 724.488281 -1221.070312 724.488281 -1121.945312 732.53125 C -1003.460938 743.851562 -796.691406 844.40625 -732.953125 921.371094 C -701.378906 961.996094 -701.378906 961.996094 -701.378906 867.578125 C -701.378906 687.675781 -831.183594 386.488281 -943.949219 307.675781 C -982.3125 271.398438 -1015.257812 230.832031 -1042.957031 185.914062 C -1070.65625 141 -1092.101562 93.34375 -1107.292969 42.828125 C -1112.953125 13.996094 -1112.953125 -11.023438 -1107.292969 -11.023438 C -1101.632812 -11.023438 -1094.066406 -1.554688 -1094.066406 12.148438 Z M -288.320312 2378.222656 C -312.863281 2408.898438 -311.015625 2410.804688 -282.660156 2385.785156 C -254.363281 2360.765625 -241.140625 2345.21875 -256.269531 2345.21875 C -269.078125 2354.09375 -279.800781 2365.117188 -288.320312 2378.222656 Z M -415.800781 2430.167969 C -410.617188 2436.300781 -395.488281 2420.753906 -382.261719 2397.582031 C -357.71875 2357.015625 -359.625 2357.015625 -391.734375 2387.691406 C -410.617188 2406.101562 -422.890625 2425.460938 -415.800781 2429.214844 Z M -727.769531 2422.601562 C -708.886719 2443.867188 -690.003906 2457.570312 -684.34375 2451.433594 C -678.683594 2445.296875 -690.003906 2424.507812 -708.886719 2404.195312 C -727.769531 2383.878906 -746.652344 2369.761719 -752.3125 2375.421875 C -757.972656 2381.082031 -746.652344 2400.441406 -727.769531 2421.648438 Z M -727.769531 2422.601562 " fill-opacity="1" fill-rule="evenodd"/></g><g clip-path="url(#id2)"><path fill="rgb(99.609375%, 41.958618%, 1.179504%)" d="M 558.949219 301.0625 C 549.238281 340.203125 536.609375 378.445312 521.179688 415.738281 C 492.824219 481.382812 466.914062 513.96875 436.652344 521.949219 C 359.746094 541.3125 342.292969 518.199219 406.449219 483.289062 C 487.644531 440.757812 476.324219 427.113281 386.195312 456.363281 C 296.003906 485.613281 279.027344 463.929688 338.957031 400.1875 C 391.855469 348.242188 558.949219 270.800781 558.949219 301.0625 Z M 558.949219 301.0625 " fill-opacity="1" fill-rule="evenodd"/></g></svg>