<svg xmlns="http://www.w3.org/2000/svg" xmlns:xlink="http://www.w3.org/1999/xlink" width="500" zoomAndPan="magnify" viewBox="0 0 375 374.999991" height="500" preserveAspectRatio="xMidYMid meet" version="1.0"><defs><clipPath id="id1"><path d="M 44.203125 221 L 330.703125 221 L 330.703125 309.449219 L 44.203125 309.449219 Z M 44.203125 221 " clip-rule="nonzero"/></clipPath><clipPath id="id2"><path d="M 44.203125 65.699219 L 330.703125 65.699219 L 330.703125 227 L 44.203125 227 Z M 44.203125 65.699219 " clip-rule="nonzero"/></clipPath></defs><g clip-path="url(#id1)"><path fill="rgb(97.648621%, 38.819885%, 1.179504%)" d="M 166.457031 254.402344 L 52.695312 254.402344 C 48.003906 254.402344 44.199219 250.597656 44.199219 245.902344 C 44.199219 236.214844 44.199219 221.707031 44.199219 221.707031 L 330.707031 221.707031 C 330.707031 221.707031 330.707031 236.214844 330.707031 245.902344 C 330.707031 250.597656 326.902344 254.402344 322.210938 254.402344 L 209.773438 254.402344 L 215.082031 302.214844 L 223.289062 302.214844 C 226.253906 302.214844 228.65625 303.957031 228.65625 306.105469 C 228.65625 307.804688 228.65625 309.425781 228.65625 309.425781 L 146.253906 309.425781 C 146.253906 309.425781 146.253906 307.804688 146.253906 306.105469 C 146.253906 303.957031 148.652344 302.214844 151.621094 302.214844 L 162.1875 302.214844 L 166.457031 254.402344 " fill-opacity="1" fill-rule="evenodd"/></g><g clip-path="url(#id2)"><path fill="rgb(97.648621%, 38.819885%, 1.179504%)" d="M 330.707031 78.660156 C 330.707031 75.226562 329.347656 71.9375 326.921875 69.511719 C 324.496094 67.085938 321.207031 65.722656 317.777344 65.722656 C 270.152344 65.722656 104.757812 65.722656 57.128906 65.722656 C 53.699219 65.722656 50.414062 67.085938 47.988281 69.511719 C 45.5625 71.9375 44.199219 75.226562 44.199219 78.660156 C 44.199219 116.890625 44.199219 226.675781 44.199219 226.675781 L 330.707031 226.675781 C 330.707031 226.675781 330.707031 116.890625 330.707031 78.660156 Z M 316.222656 78.085938 L 58.683594 78.085938 L 58.683594 214.3125 L 316.222656 214.3125 L 316.222656 78.085938 " fill-opacity="1" fill-rule="evenodd"/></g><path fill="rgb(96.469116%, 96.469116%, 96.469116%)" d="M 187.453125 233.113281 C 191.433594 233.113281 194.660156 236.34375 194.660156 240.324219 C 194.660156 244.308594 191.433594 247.542969 187.453125 247.542969 C 183.476562 247.542969 180.246094 244.308594 180.246094 240.324219 C 180.246094 236.34375 183.476562 233.113281 187.453125 233.113281 " fill-opacity="1" fill-rule="evenodd"/></svg>