<svg xmlns="http://www.w3.org/2000/svg" xmlns:xlink="http://www.w3.org/1999/xlink" width="500" zoomAndPan="magnify" viewBox="0 0 375 374.999991" height="500" preserveAspectRatio="xMidYMid meet" version="1.0"><defs><clipPath id="id1"><path d="M 240 41.707031 L 252 41.707031 L 252 66 L 240 66 Z M 240 41.707031 " clip-rule="nonzero"/></clipPath><clipPath id="id2"><path d="M 0 273.308594 L 375 273.308594 L 375 276.417969 L 0 276.417969 Z M 0 273.308594 " clip-rule="nonzero"/></clipPath></defs><g clip-path="url(#id1)"><path fill="rgb(99.609375%, 41.958618%, 1.179504%)" d="M 244.40625 45.828125 C 243.722656 48.824219 242.699219 51.699219 241.34375 54.457031 C 240.753906 55.617188 240.375 56.839844 240.207031 58.121094 C 240.039062 59.410156 240.085938 60.691406 240.359375 61.964844 L 241.34375 65.132812 L 243.707031 61.820312 C 245.09375 60.285156 245.984375 58.496094 246.382812 56.464844 C 246.382812 55.304688 247.089844 54.457031 247.792969 54.457031 C 249.730469 54.457031 249.480469 56.328125 247.089844 59.632812 C 243.847656 64.109375 244.691406 65.414062 248.496094 61.644531 C 252.296875 57.875 252.96875 51.992188 249.871094 45.828125 C 247.226562 40.332031 245.539062 40.332031 244.40625 45.828125 Z M 244.40625 45.828125 " fill-opacity="1" fill-rule="evenodd"/></g><path fill="rgb(99.609375%, 41.958618%, 1.179504%)" d="M 187.347656 47.550781 C 182.0625 60.800781 181.21875 64.253906 182.0625 67.421875 C 182.910156 70.59375 183.015625 70.734375 186.117188 64.8125 C 187.804688 61.292969 189.636719 58.789062 190.023438 59.210938 C 190.410156 59.632812 189.746094 62.101562 188.507812 64.675781 C 185.550781 70.59375 186.539062 71.722656 190.308594 66.542969 C 192.046875 64.027344 193.027344 61.242188 193.265625 58.195312 C 193.265625 53.015625 188.507812 44.523438 187.347656 47.550781 Z M 187.347656 47.550781 " fill-opacity="1" fill-rule="evenodd"/><path fill="rgb(99.609375%, 41.958618%, 1.179504%)" d="M 211.757812 53.296875 C 210.859375 54.203125 210.105469 55.214844 209.484375 56.335938 C 208.871094 57.457031 208.421875 58.636719 208.140625 59.882812 C 207.859375 61.128906 207.753906 62.390625 207.820312 63.660156 C 207.890625 64.9375 208.132812 66.179688 208.550781 67.386719 C 209.785156 70.699219 209.925781 70.554688 210.066406 65.238281 C 210.207031 59.917969 210.347656 59.601562 211.335938 63.796875 C 211.894531 66.246094 212.738281 68.589844 213.875 70.839844 C 215.140625 73.304688 215.421875 73.023438 216.792969 68.972656 C 218.167969 64.917969 217.5 50.089844 215.703125 50.089844 C 214.195312 50.917969 212.878906 51.984375 211.757812 53.296875 Z M 211.757812 53.296875 " fill-opacity="1" fill-rule="evenodd"/><path fill="rgb(99.609375%, 41.958618%, 1.179504%)" d="M 155.15625 57.628906 C 151.628906 63.402344 150.925781 67.136719 153.324219 71.722656 C 156.246094 77.601562 156.84375 77.179688 156.140625 69.855469 C 155.578125 64.78125 155.714844 64.496094 156.667969 68.265625 C 158.074219 74.152344 159.484375 76.335938 161.179688 75.3125 C 162.867188 74.289062 162.585938 64.746094 159.769531 59.460938 L 157.09375 54.425781 Z M 155.15625 57.628906 " fill-opacity="1" fill-rule="evenodd"/><path fill="rgb(99.609375%, 41.958618%, 1.179504%)" d="M 133.421875 58.332031 C 133.84375 59.777344 134.546875 64.109375 135.109375 68.125 C 135.503906 71.667969 136.570312 74.992188 138.316406 78.097656 C 140.570312 80.527344 140.710938 80.386719 141.558594 73.058594 L 142.265625 65.269531 L 143.496094 71.757812 C 144.625 78.097656 144.761719 78.238281 145.75 73.902344 C 147.859375 66.121094 144.902344 60.65625 136.769531 57.488281 C 133.28125 56.042969 132.859375 56.183594 133.421875 58.332031 Z M 133.421875 58.332031 " fill-opacity="1" fill-rule="evenodd"/><path fill="rgb(99.609375%, 41.958618%, 1.179504%)" d="M 225.492188 62.242188 C 224.207031 65.578125 222.339844 68.550781 219.890625 71.15625 C 214.296875 78.203125 210.066406 88.171875 212.042969 90.039062 C 212.464844 90.601562 215.84375 88.171875 219.082031 84.71875 C 226.128906 77.496094 227.644531 79.082031 221.058594 86.726562 L 216.6875 91.90625 L 221.058594 90.320312 C 225.953125 88.59375 230.988281 80.667969 230.988281 74.46875 C 230.988281 70.167969 227.46875 60.375 226.234375 60.375 C 225.777344 60.234375 225.492188 61.078125 225.492188 62.242188 Z M 225.492188 62.242188 " fill-opacity="1" fill-rule="evenodd"/><path fill="rgb(99.609375%, 41.958618%, 1.179504%)" d="M 169.734375 70.167969 C 166.671875 77.78125 165.964844 87.429688 168.21875 91.90625 C 169.714844 94.191406 171.582031 96.121094 173.820312 97.683594 L 178.011719 100.714844 L 174.492188 93.066406 C 172.9375 90.039062 171.761719 86.867188 170.96875 83.558594 C 170.96875 80.246094 173.503906 83.132812 174.492188 87.429688 C 175.4375 90.546875 177.070312 93.25 179.386719 95.535156 L 183.578125 99.691406 L 183.578125 91.34375 C 183.832031 89.058594 183.648438 86.808594 183.039062 84.59375 C 182.4375 82.382812 181.441406 80.355469 180.058594 78.519531 C 177.957031 75.371094 176.273438 72.015625 175.019531 68.445312 C 174.609375 66.542969 173.90625 64.761719 172.90625 63.089844 C 171.695312 65.382812 170.644531 67.742188 169.734375 70.167969 Z M 169.734375 70.167969 " fill-opacity="1" fill-rule="evenodd"/><path fill="rgb(99.609375%, 41.958618%, 1.179504%)" d="M 196.613281 75.207031 C 194.136719 78.234375 192.410156 81.636719 191.433594 85.425781 C 190.445312 91.484375 192.5625 99.519531 195.660156 102.15625 C 197.738281 103.882812 197.878906 103.882812 196.753906 101.277344 C 195.238281 97.402344 194.109375 85.140625 195.519531 86.585938 C 196.363281 87.949219 196.867188 89.429688 197.035156 91.027344 C 197.738281 95.640625 200.554688 102.121094 201.828125 102.121094 C 202.386719 102.121094 203.761719 99.519531 204.609375 96.34375 C 205.320312 94.421875 205.632812 92.4375 205.535156 90.386719 C 205.4375 88.335938 204.9375 86.390625 204.042969 84.542969 C 202.832031 81.105469 201.949219 77.578125 201.402344 73.976562 L 200.976562 69.640625 Z M 196.613281 75.207031 " fill-opacity="1" fill-rule="evenodd"/><path fill="rgb(99.609375%, 41.958618%, 1.179504%)" d="M 256.597656 72.179688 C 252.828125 74.324219 247.511719 82.746094 248.496094 85.285156 C 248.921875 86.445312 249.199219 86.304688 249.199219 85.285156 C 249.199219 83.132812 259.414062 77.636719 262.9375 77.78125 C 264.59375 77.78125 263.886719 78.660156 261.105469 79.820312 C 256.351562 81.972656 250.539062 88.3125 250.539062 91.484375 C 250.539062 94.65625 259.378906 94.089844 264.273438 91.484375 C 266.621094 90.164062 268.722656 88.535156 270.582031 86.585938 C 273.082031 84.332031 275.863281 82.511719 278.929688 81.128906 C 282.027344 79.683594 284.53125 78.097656 284.53125 77.601562 C 282.476562 75.714844 280.128906 74.324219 277.484375 73.445312 C 269.667969 69.890625 261.316406 69.433594 256.597656 72.179688 Z M 256.597656 72.179688 " fill-opacity="1" fill-rule="evenodd"/><path fill="rgb(99.609375%, 41.958618%, 1.179504%)" d="M 106.511719 85.847656 C 106.582031 86.523438 106.710938 87.191406 106.902344 87.847656 C 107.09375 88.503906 107.335938 89.132812 107.640625 89.746094 C 107.945312 90.355469 108.296875 90.9375 108.707031 91.484375 C 109.109375 92.03125 109.5625 92.539062 110.0625 93.003906 C 110.558594 93.472656 111.09375 93.890625 111.667969 94.261719 C 112.234375 94.636719 112.835938 94.953125 113.46875 95.214844 C 114.09375 95.480469 114.742188 95.6875 115.410156 95.832031 C 116.078125 95.984375 116.746094 96.074219 117.429688 96.097656 C 120.667969 96.097656 120.953125 96.097656 118.277344 94.796875 C 116.316406 93.960938 114.683594 92.703125 113.378906 91.027344 C 111.40625 88.703125 111.546875 88.703125 114.363281 90.140625 C 116.238281 91.203125 118.242188 91.777344 120.386719 91.871094 C 122.890625 91.871094 123.027344 91.449219 121.796875 88.980469 C 120.566406 86.515625 114.75 82.816406 109.046875 81.230469 C 105.382812 80.457031 105.242188 80.457031 106.511719 85.847656 Z M 106.511719 85.847656 " fill-opacity="1" fill-rule="evenodd"/><path fill="rgb(99.609375%, 41.958618%, 1.179504%)" d="M 130.605469 84.296875 C 129.832031 87.511719 129.515625 90.773438 129.65625 94.082031 C 129.800781 97.382812 130.398438 100.605469 131.449219 103.746094 C 133.421875 107.480469 139.726562 111.492188 141.277344 109.90625 C 141.699219 109.347656 140.433594 107.480469 138.316406 105.613281 C 136.476562 104.230469 135.210938 102.445312 134.511719 100.253906 C 134.511719 98.988281 135.074219 98.988281 136.3125 100.570312 C 138.964844 103.710938 142.191406 106.0625 145.996094 107.617188 C 147.6875 107.617188 147.402344 102.15625 145.570312 98.53125 C 143.203125 95.019531 140.582031 91.707031 137.714844 88.59375 C 132.578125 83.132812 131.304688 82.253906 130.605469 84.296875 Z M 130.605469 84.296875 " fill-opacity="1" fill-rule="evenodd"/><path fill="rgb(99.609375%, 41.958618%, 1.179504%)" d="M 233.914062 83.558594 C 233.914062 86.585938 222.710938 100.570312 217.214844 104.304688 C 207.144531 111.070312 193.972656 134.285156 190.308594 151.40625 C 189.355469 156.023438 188.226562 159.191406 187.664062 158.453125 C 186.246094 153.855469 185.351562 149.160156 184.988281 144.363281 C 184.3125 137.601562 182.585938 131.121094 179.808594 124.914062 C 177.699219 121.042969 176.566406 119.734375 177.132812 121.886719 C 181.503906 141.191406 181.503906 148.976562 177.132812 140.628906 C 173.789062 134.398438 169.441406 128.976562 164.097656 124.355469 C 163.113281 123.753906 163.820312 125.476562 165.792969 128.511719 C 169.21875 133.195312 171.914062 138.273438 173.871094 143.738281 C 175.820312 149.207031 176.960938 154.839844 177.273438 160.636719 C 177.785156 164.535156 177.785156 168.433594 177.273438 172.332031 C 173.730469 171.050781 170.277344 169.5625 166.917969 167.859375 C 161.601562 165.394531 155.578125 162.824219 153.179688 162.082031 C 149.269531 160.921875 149.132812 161.09375 151.773438 162.960938 C 153.507812 164.179688 155.136719 165.515625 156.667969 166.980469 C 158.21875 168.359375 159.90625 169.53125 161.738281 170.5 C 164.3125 172.550781 166.320312 175.046875 167.761719 178.003906 C 170.40625 183.324219 170.121094 185.507812 167.058594 182.339844 C 163.96875 181 160.738281 180.269531 157.375 180.15625 C 152.757812 179.734375 149.941406 179.871094 151.070312 180.472656 C 158.683594 185.078125 165.410156 190.734375 171.25 197.453125 C 173.929688 201.546875 175.886719 205.964844 177.132812 210.699219 C 178.070312 213.394531 178.589844 216.167969 178.683594 219.019531 C 178.78125 221.875 178.453125 224.679688 177.699219 227.429688 C 177.011719 231.488281 175.617188 235.28125 173.503906 238.8125 C 171.109375 241.980469 171.109375 242.332031 173.226562 244.871094 C 175.335938 247.40625 175.617188 247.582031 171.816406 244.871094 C 169.699219 243.425781 167.90625 241.699219 167.90625 241.101562 C 167.90625 240.5 153.039062 231.308594 142.121094 225.84375 C 123.875 216.757812 95.835938 214.183594 75.199219 219.648438 C 65.652344 222.253906 37.613281 234.757812 37.613281 236.523438 C 37.613281 236.945312 38.035156 236.945312 38.742188 236.523438 C 39.445312 236.101562 43.496094 234.054688 48.144531 231.902344 C 73.367188 220.070312 90.164062 216.617188 109.929688 219.503906 C 130.675781 222.53125 154.941406 234.054688 168.398438 247.300781 C 172.449219 251.351562 174.421875 253.640625 172.871094 252.652344 C 171.363281 251.613281 169.96875 250.441406 168.679688 249.132812 C 158.992188 238.5625 135.324219 228.523438 114.4375 226.058594 C 99.570312 224.332031 77.136719 229.371094 48.425781 240.75 C 45.253906 241.726562 42.304688 243.171875 39.585938 245.078125 C 43.316406 244.328125 46.910156 243.15625 50.367188 241.558594 C 73.222656 232.332031 87.523438 229.15625 104.890625 229.15625 C 114.566406 228.5625 123.957031 229.910156 133.070312 233.210938 C 138.578125 234.914062 143.957031 236.964844 149.203125 239.375 C 156.199219 243.558594 162.457031 248.65625 167.976562 254.664062 C 169.101562 256.25 166.425781 254.664062 162.230469 251.144531 C 145.820312 237.4375 128.878906 233.105469 100.699219 235.707031 C 88.933594 236.730469 84.566406 237.859375 69.417969 244.339844 C 63.457031 246.554688 57.714844 249.246094 52.199219 252.410156 C 57.179688 251.039062 61.996094 249.222656 66.636719 246.945312 C 73.453125 243.921875 80.417969 241.277344 87.523438 239.019531 C 97.039062 236.273438 124.789062 236.449219 133.316406 239.019531 C 140.359375 241.207031 156.703125 249.835938 156.703125 251.421875 C 158.308594 253.371094 160.1875 255 162.339844 256.316406 C 169.382812 261.214844 168.925781 262.238281 161.496094 258.609375 C 142.578125 249.269531 133.316406 246.945312 117.464844 247.089844 L 105.558594 247.375 L 117.464844 248.390625 C 128.53125 249.027344 139.097656 251.671875 149.167969 256.316406 C 150.882812 257.296875 152.703125 258.011719 154.625 258.46875 C 156.652344 259.230469 158.472656 260.335938 160.085938 261.78125 L 164.132812 265.300781 L 146.066406 266.148438 C 136.097656 266.710938 104.148438 267.167969 75.160156 267.167969 C 46.175781 267.167969 22.152344 268.261719 21.796875 268.828125 C 21.445312 269.390625 59.769531 270.585938 107.003906 271.007812 C 202.105469 272.136719 362.9375 270.730469 362.9375 268.828125 C 362.9375 268.261719 338.28125 267.558594 307.988281 267.558594 C 277.695312 267.558594 244.585938 266.960938 234.6875 266.394531 L 216.441406 265.515625 L 220.527344 262.660156 C 230.742188 255.613281 247.015625 250.402344 263.394531 248.957031 L 275.40625 247.933594 L 264.171875 247.933594 C 258.246094 247.746094 252.371094 248.199219 246.542969 249.292969 C 240.714844 250.386719 235.074219 252.09375 229.613281 254.417969 C 227.183594 255.804688 224.609375 256.863281 221.902344 257.589844 C 219.632812 258.429688 217.628906 259.6875 215.878906 261.359375 C 213.480469 263.503906 211.226562 264.878906 210.804688 264.527344 C 209.433594 262.941406 230.425781 246.914062 239.40625 242.753906 C 248.390625 238.597656 250.46875 238.28125 266.175781 237.71875 C 284.953125 237.015625 293.792969 238.28125 307.53125 244.0625 C 310.351562 245.417969 313.296875 246.378906 316.375 246.945312 C 312.996094 244.75 309.390625 243.027344 305.558594 241.769531 C 297.421875 238.929688 289.078125 237.023438 280.515625 236.050781 C 271.960938 235.074219 263.398438 235.054688 254.835938 235.992188 C 251.433594 236.265625 248.074219 236.820312 244.765625 237.652344 C 241.453125 238.488281 238.234375 239.589844 235.109375 240.964844 C 231.984375 242.335938 228.992188 243.960938 226.136719 245.835938 C 223.28125 247.707031 220.601562 249.804688 218.097656 252.125 C 216.039062 254.25 213.691406 255.976562 211.054688 257.304688 C 210.066406 256.460938 226.902344 242.617188 232.1875 239.691406 C 234.585938 238.5625 241.730469 235.816406 248.320312 233.527344 C 252.863281 232.191406 257.476562 231.171875 262.164062 230.464844 C 266.84375 229.757812 271.554688 229.375 276.289062 229.3125 C 281.023438 229.25 285.746094 229.507812 290.445312 230.089844 C 295.140625 230.671875 299.785156 231.570312 304.363281 232.789062 C 320.632812 237.824219 323.3125 237.824219 309.433594 232.789062 C 304.269531 230.800781 298.96875 229.277344 293.542969 228.203125 C 288.109375 227.136719 282.632812 226.542969 277.097656 226.417969 C 271.570312 226.292969 266.066406 226.644531 260.59375 227.472656 C 255.125 228.296875 249.765625 229.59375 244.515625 231.34375 C 240.042969 233.066406 234.722656 234.863281 232.753906 235.671875 C 226.164062 237.683594 217.886719 244.027344 206.828125 255.402344 C 200.804688 261.601562 197.140625 264.632812 198.832031 262.445312 C 204.960938 253.078125 219.753906 240.609375 233.140625 233.246094 C 252.617188 222.675781 264.238281 219.578125 284.28125 219.578125 C 298.582031 219.578125 301.894531 220.140625 313.304688 224.191406 C 320.199219 226.519531 326.925781 229.257812 333.488281 232.398438 C 335.835938 234.007812 338.410156 235.0625 341.203125 235.570312 C 342.472656 234.265625 316.546875 222.886719 305.980469 220.140625 C 284.53125 214.535156 255.824219 217.109375 238.140625 226.339844 C 221.902344 234.828125 217.007812 237.859375 210.527344 243.496094 C 206.757812 246.808594 205.066406 247.796875 207 245.644531 L 210.527344 241.769531 L 205.628906 236.558594 L 200.875 231.515625 L 201.433594 216.546875 C 201.863281 193.789062 209.152344 166.558594 217.957031 154.71875 C 224.238281 147.6875 231.648438 142.171875 240.183594 138.160156 C 243.707031 136.714844 243.390625 136.714844 235.992188 137.316406 C 227.152344 138.160156 211.722656 145.664062 206.964844 151.40625 C 204.609375 154.441406 204.609375 154.441406 204.609375 147.394531 C 204.609375 133.96875 214.296875 111.492188 222.710938 105.613281 C 225.574219 102.90625 228.03125 99.878906 230.097656 96.527344 C 232.164062 93.175781 233.765625 89.617188 234.898438 85.847656 C 235.320312 83.695312 235.320312 81.828125 234.898438 81.828125 C 234.476562 81.828125 233.914062 82.535156 233.914062 83.558594 Z M 173.785156 260.121094 C 175.617188 262.410156 175.480469 262.554688 173.363281 260.6875 C 171.25 258.820312 170.265625 257.660156 171.394531 257.660156 C 172.351562 258.320312 173.148438 259.144531 173.785156 260.121094 Z M 183.296875 264 C 182.910156 264.457031 181.78125 263.296875 180.796875 261.566406 C 178.964844 258.539062 179.105469 258.539062 181.503906 260.828125 C 182.910156 262.203125 183.828125 263.648438 183.296875 263.925781 Z M 206.578125 263.433594 C 205.167969 265.019531 203.761719 266.042969 203.339844 265.585938 C 202.914062 265.128906 203.761719 263.578125 205.167969 262.058594 C 206.578125 260.542969 207.988281 259.492188 208.410156 259.914062 C 208.832031 260.335938 207.988281 261.78125 206.578125 263.363281 Z M 206.578125 263.433594 " fill-opacity="1" fill-rule="evenodd"/><path fill="rgb(99.609375%, 41.958618%, 1.179504%)" d="M 156.808594 96.664062 C 156.601562 98.632812 156.722656 100.585938 157.183594 102.507812 C 157.644531 104.4375 158.410156 106.234375 159.484375 107.902344 L 162.023438 111.214844 L 162.972656 108.039062 C 163.472656 105.972656 163.472656 103.90625 162.972656 101.84375 C 162.304688 99.691406 162.445312 99.125 163.539062 99.691406 C 164.699219 101.117188 165.257812 102.75 165.226562 104.589844 C 165.226562 108.324219 165.226562 108.324219 166.496094 105.328125 C 166.6875 104.675781 166.824219 104.007812 166.902344 103.332031 C 166.984375 102.652344 167.007812 101.972656 166.976562 101.292969 C 166.945312 100.609375 166.855469 99.933594 166.714844 99.269531 C 166.566406 98.601562 166.371094 97.953125 166.117188 97.320312 C 165.863281 96.6875 165.5625 96.078125 165.210938 95.496094 C 164.859375 94.90625 164.460938 94.359375 164.015625 93.839844 C 163.570312 93.324219 163.085938 92.84375 162.5625 92.410156 C 162.039062 91.972656 161.484375 91.582031 160.894531 91.234375 L 156.667969 88.769531 Z M 156.808594 96.664062 " fill-opacity="1" fill-rule="evenodd"/><path fill="rgb(99.609375%, 41.958618%, 1.179504%)" d="M 235.601562 99.976562 C 234.195312 102.722656 235.042969 107.757812 236.835938 107.757812 C 240.410156 105.664062 243.167969 102.785156 245.113281 99.125 C 245.113281 96.664062 236.976562 97.542969 235.601562 99.976562 Z M 235.601562 99.976562 " fill-opacity="1" fill-rule="evenodd"/><path fill="rgb(99.609375%, 41.958618%, 1.179504%)" d="M 266.003906 103.601562 C 254.800781 106.316406 254.09375 106.773438 251.417969 112.230469 L 249.199219 116.421875 L 254.660156 116.421875 C 257.570312 116.433594 260.28125 115.703125 262.796875 114.242188 C 267.414062 110.71875 268.539062 111.953125 264.03125 115.683594 C 261.910156 117.613281 259.433594 118.789062 256.597656 119.210938 C 254.800781 119.210938 253.8125 119.804688 254.238281 120.652344 C 255.367188 122.660156 262.371094 122.523438 266.707031 120.371094 C 271.039062 118.222656 276.390625 107.832031 275.691406 103.8125 C 275.40625 101.59375 274.839844 101.59375 266.003906 103.601562 Z M 266.003906 103.601562 " fill-opacity="1" fill-rule="evenodd"/><path fill="rgb(99.609375%, 41.958618%, 1.179504%)" d="M 89.003906 103.003906 C 87.875 104.167969 87.875 115.40625 89.003906 118.574219 C 90.289062 120.511719 91.964844 122.003906 94.042969 123.046875 C 97.953125 125.199219 98.089844 125.199219 96.679688 122.308594 C 95.964844 120.859375 94.992188 119.613281 93.761719 118.574219 C 93.335938 118.308594 92.992188 117.957031 92.742188 117.519531 C 92.492188 117.082031 92.363281 116.609375 92.351562 116.109375 C 92.351562 115.121094 94.183594 116.109375 96.257812 118.292969 C 101.332031 123.332031 102.703125 123.1875 101.617188 117.695312 C 100.207031 110.226562 91.644531 100.253906 89.003906 103.003906 Z M 89.003906 103.003906 " fill-opacity="1" fill-rule="evenodd"/><path fill="rgb(99.609375%, 41.958618%, 1.179504%)" d="M 110.558594 105.117188 C 111.285156 108.039062 112.226562 110.894531 113.378906 113.675781 C 115.492188 118.574219 117.429688 121.007812 119.6875 121.601562 C 125.425781 123.046875 126.726562 121.320312 121.941406 118.71875 C 115.878906 115.542969 116.726562 114.523438 123.453125 116.707031 C 130.179688 118.890625 131.449219 117.273438 126.976562 112.515625 C 123.027344 108.640625 110.558594 102.859375 110.558594 105.117188 Z M 110.558594 105.117188 " fill-opacity="1" fill-rule="evenodd"/><path fill="rgb(99.609375%, 41.958618%, 1.179504%)" d="M 188.652344 109.0625 C 185.832031 114.097656 185.550781 121.144531 188.085938 123.46875 C 189.601562 124.632812 189.882812 124.035156 189.496094 120.300781 L 188.933594 115.683594 L 191.152344 120.585938 C 194.109375 127.207031 195.238281 125.335938 194.109375 116.109375 C 192.84375 105.613281 191.574219 104.023438 188.652344 109.0625 Z M 188.652344 109.0625 " fill-opacity="1" fill-rule="evenodd"/><path fill="rgb(99.609375%, 41.958618%, 1.179504%)" d="M 231.09375 116.851562 C 218.625 121.144531 213.480469 127.664062 224.046875 125.902344 C 230.5 124.914062 231.34375 125.902344 225.882812 128.226562 C 222.359375 129.671875 222.359375 129.953125 224.898438 130.378906 C 231.9375 131.679688 240.464844 123.332031 239.199219 116.707031 C 238.8125 114.382812 238.246094 114.382812 231.09375 116.851562 Z M 231.09375 116.851562 " fill-opacity="1" fill-rule="evenodd"/><path fill="rgb(99.609375%, 41.958618%, 1.179504%)" d="M 295.027344 116.109375 C 293.21875 117.382812 291.207031 118.109375 289.003906 118.292969 C 282.835938 119.417969 276.921875 123.1875 278.1875 125.335938 C 278.753906 126.21875 281.148438 126.359375 283.929688 125.761719 C 287.453125 125.199219 288.582031 125.335938 287.875 126.359375 C 287.4375 126.875 286.910156 127.269531 286.292969 127.550781 C 285.675781 127.824219 285.03125 127.957031 284.355469 127.945312 C 282.980469 127.945312 281.714844 128.511719 281.714844 129.390625 C 281.714844 131.820312 288.160156 130.972656 291.925781 127.945312 C 294.152344 125.9375 295.65625 123.480469 296.4375 120.585938 C 297.246094 116.109375 296.542969 113.675781 295.027344 116.109375 Z M 295.027344 116.109375 " fill-opacity="1" fill-rule="evenodd"/><path fill="rgb(99.609375%, 41.958618%, 1.179504%)" d="M 138.316406 120.441406 L 134.511719 123.046875 L 141.097656 126.21875 C 144.242188 127.8125 147.550781 128.871094 151.035156 129.390625 C 154.273438 129.390625 154.554688 129.390625 151.878906 126.5 C 150.613281 124.988281 149.023438 123.980469 147.121094 123.46875 C 145.714844 123.46875 145.570312 123.046875 146.558594 122.730469 C 147.410156 122.585938 148.261719 122.597656 149.105469 122.769531 C 149.949219 122.949219 150.738281 123.277344 151.457031 123.753906 L 154.699219 125.476562 L 151.171875 121.601562 C 147.300781 117.273438 143.636719 116.851562 138.316406 120.441406 Z M 138.316406 120.441406 " fill-opacity="1" fill-rule="evenodd"/><path fill="rgb(99.609375%, 41.958618%, 1.179504%)" d="M 256.351562 131.820312 C 251.5625 134.148438 251.5625 134.285156 254.945312 134.710938 C 261.984375 135.730469 269.03125 138.230469 269.03125 139.605469 C 269.03125 140.449219 267.765625 140.628906 265.933594 140.027344 C 261.355469 138.808594 256.773438 138.808594 252.195312 140.027344 C 249.835938 140.769531 249.695312 141.332031 251.210938 143.796875 C 253.464844 147.671875 260.894531 150.84375 271.109375 152.289062 C 274.890625 152.660156 278.589844 153.425781 282.207031 154.578125 C 284.425781 155.457031 284.5625 155.175781 283.71875 152.289062 C 282.425781 148.917969 280.828125 145.703125 278.929688 142.636719 C 272.449219 131.398438 264.839844 127.664062 256.351562 131.820312 Z M 256.351562 131.820312 " fill-opacity="1" fill-rule="evenodd"/><path fill="rgb(99.609375%, 41.958618%, 1.179504%)" d="M 100.488281 131.820312 C 96.964844 132.703125 97.246094 133.828125 101.894531 138.160156 C 103.988281 140.300781 105.949219 142.558594 107.777344 144.925781 C 108.804688 146.011719 109.976562 146.898438 111.296875 147.59375 C 112.617188 148.289062 114.019531 148.75 115.492188 148.976562 C 120.953125 149.964844 121.089844 149.820312 118.699219 147.109375 C 117.457031 145.84375 116.609375 144.351562 116.160156 142.636719 C 116.160156 141.757812 114.789062 140.027344 113.097656 138.902344 C 111.40625 137.773438 110.703125 136.578125 111.6875 136.578125 C 114.039062 137.613281 116.003906 139.152344 117.570312 141.191406 L 121.796875 145.949219 L 120.425781 141.613281 C 116.902344 132.242188 110.558594 129.074219 100.488281 131.820312 Z M 100.488281 131.820312 " fill-opacity="1" fill-rule="evenodd"/><path fill="rgb(99.609375%, 41.958618%, 1.179504%)" d="M 125.988281 134.710938 C 125.988281 143.480469 130.746094 150.84375 136.554688 150.84375 C 139.089844 150.84375 138.953125 150.84375 135.882812 148.832031 L 132.363281 146.652344 L 136.976562 147.53125 C 140.21875 148.238281 141.484375 147.953125 141.484375 146.507812 C 141.484375 143.480469 139.796875 141.332031 134.445312 137.738281 C 126.132812 131.960938 125.988281 131.960938 125.988281 134.710938 Z M 125.988281 134.710938 " fill-opacity="1" fill-rule="evenodd"/><path fill="rgb(99.609375%, 41.958618%, 1.179504%)" d="M 148.847656 137.457031 L 145.328125 141.332031 L 152.050781 143.941406 C 158.5 146.371094 165.371094 146.371094 165.371094 143.941406 C 165.371094 143.199219 163.113281 141.894531 160.613281 140.90625 C 158.109375 139.921875 156 138.582031 156.386719 138.019531 C 156.773438 137.457031 158.78125 137.457031 160.894531 138.019531 L 164.664062 139.464844 L 161.144531 136.578125 C 156.808594 132.703125 153.179688 132.980469 148.847656 137.457031 Z M 148.847656 137.457031 " fill-opacity="1" fill-rule="evenodd"/><path fill="rgb(99.609375%, 41.958618%, 1.179504%)" d="M 236.660156 151.128906 C 236.660156 153.875 242.296875 162.367188 245.5 164.691406 C 247.191406 165.816406 247.753906 166.835938 246.628906 166.835938 C 244.007812 165.664062 241.769531 163.984375 239.902344 161.800781 L 235.007812 156.765625 L 235.992188 160.636719 C 236.78125 163.558594 238.226562 166.105469 240.324219 168.28125 C 243.246094 171.3125 244.9375 171.808594 251.523438 171.808594 C 261.355469 171.523438 263.292969 169.796875 258.25 165.605469 C 255.726562 163.382812 253.59375 160.832031 251.839844 157.960938 C 248.496094 152.289062 236.660156 146.96875 236.660156 151.128906 Z M 236.660156 151.128906 " fill-opacity="1" fill-rule="evenodd"/><path fill="rgb(99.609375%, 41.958618%, 1.179504%)" d="M 96.121094 153.589844 C 93.617188 156.445312 89.074219 166.835938 89.957031 167.683594 C 92.773438 167.457031 95.488281 166.785156 98.089844 165.675781 C 99.957031 165.226562 101.6875 164.472656 103.277344 163.40625 C 104.875 162.339844 106.230469 161.027344 107.355469 159.476562 C 108.90625 156.445312 108.765625 155.949219 106.367188 155.601562 C 104.34375 155.433594 102.429688 155.820312 100.628906 156.765625 C 98.234375 158.03125 97.8125 158.03125 98.234375 156.765625 C 98.65625 155.492188 101.050781 154.15625 103.691406 153.238281 L 108.484375 151.515625 L 103.410156 151.515625 C 102.105469 151.324219 100.8125 151.40625 99.539062 151.769531 C 98.269531 152.132812 97.128906 152.738281 96.121094 153.589844 Z M 96.121094 153.589844 " fill-opacity="1" fill-rule="evenodd"/><path fill="rgb(99.609375%, 41.958618%, 1.179504%)" d="M 114.644531 162.644531 C 112.957031 164.285156 111.59375 166.167969 110.558594 168.28125 C 110.558594 169.871094 127.539062 171.59375 130.605469 170.292969 C 134.6875 168.703125 132.578125 166.273438 125.988281 164.511719 C 121.515625 163.382812 120.53125 162.789062 122.464844 162.082031 C 124.523438 161.570312 126.578125 161.570312 128.628906 162.082031 L 132.398438 162.789062 L 128.878906 160.636719 C 123.3125 157.042969 119.121094 157.746094 114.644531 162.644531 Z M 114.644531 162.644531 " fill-opacity="1" fill-rule="evenodd"/><path fill="rgb(99.609375%, 41.958618%, 1.179504%)" d="M 221.300781 165.394531 C 222.046875 167.375 223.222656 169.050781 224.828125 170.429688 C 226.9375 172.4375 227.925781 173.953125 227.222656 173.953125 C 225.878906 173.628906 224.800781 172.914062 223.980469 171.808594 C 223.171875 170.699219 222.105469 169.984375 220.777344 169.65625 C 219.929688 169.65625 221.058594 171.523438 223.273438 173.953125 C 227.503906 178.570312 232.117188 179.449219 236.449219 176.558594 C 238.984375 174.976562 238.703125 174.414062 231.976562 169.511719 C 225.25 164.621094 221.300781 162.644531 221.300781 165.394531 Z M 221.300781 165.394531 " fill-opacity="1" fill-rule="evenodd"/><path fill="rgb(99.609375%, 41.958618%, 1.179504%)" d="M 117.429688 175.046875 C 114.777344 176.574219 112.582031 178.589844 110.84375 181.105469 L 106.511719 186.707031 L 110.28125 187.445312 C 115.492188 188.433594 121.65625 184.839844 121.796875 180.683594 C 121.796875 179.941406 120.53125 180.507812 118.980469 181.953125 C 115.457031 185.121094 115.457031 183.855469 118.414062 178.917969 C 120.953125 175.046875 120.8125 174.339844 117.429688 175.046875 Z M 117.429688 175.046875 " fill-opacity="1" fill-rule="evenodd"/><path fill="rgb(99.609375%, 41.958618%, 1.179504%)" d="M 131.589844 179.800781 L 127.257812 185.40625 L 130.460938 186.285156 C 134.96875 187.445312 141.414062 184.839844 141.414062 181.808594 C 141.414062 179.800781 140.992188 179.800781 139.304688 181.246094 C 137.613281 182.691406 136.769531 182.691406 136.203125 182.09375 C 135.640625 181.492188 135.957031 181.246094 136.769531 181.246094 C 137.578125 181.246094 138.882812 179.664062 139.726562 177.722656 C 142.402344 171.59375 136.769531 173.039062 131.589844 179.800781 Z M 131.589844 179.800781 " fill-opacity="1" fill-rule="evenodd"/><path fill="rgb(99.609375%, 41.958618%, 1.179504%)" d="M 247.511719 182.265625 C 243.707031 183.253906 245.257812 185.792969 250.714844 187.730469 C 253.390625 188.75 254.800781 189.734375 253.957031 190.335938 C 253.09375 190.605469 252.21875 190.703125 251.320312 190.625 C 250.421875 190.542969 249.574219 190.296875 248.777344 189.878906 C 243.285156 187.867188 244.40625 189.878906 250.007812 192.058594 C 251.261719 192.808594 252.613281 193.242188 254.066406 193.367188 C 255.519531 193.492188 256.925781 193.292969 258.285156 192.765625 C 262.515625 191.179688 265.71875 185.722656 263.078125 184.980469 C 262.089844 184.699219 259.136719 183.675781 256.492188 182.832031 C 254.65625 182.191406 252.773438 181.710938 250.855469 181.386719 C 250.429688 181.527344 248.921875 181.808594 247.511719 182.265625 Z M 247.511719 182.265625 " fill-opacity="1" fill-rule="evenodd"/><path fill="rgb(99.609375%, 41.958618%, 1.179504%)" d="M 222.996094 188.011719 C 221.585938 188.574219 221.585938 189.175781 222.996094 190.757812 C 224.402344 192.34375 224.085938 192.765625 223.523438 192.765625 C 222.960938 192.765625 223.238281 193.789062 224.226562 194.914062 C 225.011719 195.539062 225.875 196.039062 226.8125 196.402344 C 227.75 196.769531 228.726562 196.980469 229.730469 197.046875 C 230.734375 197.113281 231.726562 197.027344 232.703125 196.789062 C 233.679688 196.554688 234.601562 196.171875 235.464844 195.65625 C 236.589844 194.914062 237.117188 194.070312 236.835938 193.789062 C 233.222656 191.296875 229.445312 189.085938 225.492188 187.164062 C 224.632812 187.351562 223.796875 187.632812 222.996094 188.011719 Z M 222.996094 188.011719 " fill-opacity="1" fill-rule="evenodd"/><path fill="rgb(99.609375%, 41.958618%, 1.179504%)" d="M 350.785156 239.585938 C 353.613281 240.941406 356.558594 241.949219 359.625 242.617188 C 360.328125 241.910156 346.59375 235.992188 344.339844 235.992188 C 343.386719 235.992188 346.3125 237.574219 350.785156 239.585938 Z M 350.785156 239.585938 " fill-opacity="1" fill-rule="evenodd"/><path fill="rgb(99.609375%, 41.958618%, 1.179504%)" d="M 322.359375 237.996094 C 329.8125 241.664062 337.515625 244.695312 345.46875 247.089844 C 342.273438 245.003906 338.878906 243.324219 335.289062 242.050781 C 325 237.859375 320.808594 236.414062 322.359375 237.996094 Z M 322.359375 237.996094 " fill-opacity="1" fill-rule="evenodd"/><path fill="rgb(99.609375%, 41.958618%, 1.179504%)" d="M 26.480469 240.328125 C 25.214844 241.171875 25.070312 241.769531 26.058594 241.769531 C 27.125 241.675781 27.96875 241.191406 28.597656 240.328125 C 29.6875 238.597656 29.125 238.597656 26.480469 240.328125 Z M 26.480469 240.328125 " fill-opacity="1" fill-rule="evenodd"/><path fill="rgb(99.609375%, 41.958618%, 1.179504%)" d="M 20.175781 243.175781 C 19.753906 244.0625 20.175781 244.199219 21.445312 243.777344 C 23.949219 242.753906 24.371094 241.769531 22.394531 241.769531 C 21.929688 241.792969 21.496094 241.933594 21.101562 242.179688 C 20.707031 242.433594 20.398438 242.769531 20.175781 243.175781 Z M 20.175781 243.175781 " fill-opacity="1" fill-rule="evenodd"/><path fill="rgb(99.609375%, 41.958618%, 1.179504%)" d="M 320.808594 249.554688 C 322.328125 250.5 323.960938 251.167969 325.703125 251.566406 C 326.554688 251.566406 325.703125 250.679688 323.59375 249.554688 C 322.089844 248.558594 320.457031 247.878906 318.699219 247.511719 C 317.992188 247.652344 318.835938 248.535156 320.808594 249.554688 Z M 320.808594 249.554688 " fill-opacity="1" fill-rule="evenodd"/><path fill="rgb(99.609375%, 41.958618%, 1.179504%)" d="M 99.785156 249.976562 C 101.179688 250.261719 102.574219 250.261719 103.976562 249.976562 C 104.820312 249.519531 103.976562 249.238281 101.472656 249.238281 C 98.972656 249.238281 98.375 249.554688 99.785156 249.976562 Z M 99.785156 249.976562 " fill-opacity="1" fill-rule="evenodd"/><path fill="rgb(99.609375%, 41.958618%, 1.179504%)" d="M 277.0625 249.976562 C 278.238281 250.261719 279.410156 250.261719 280.585938 249.976562 C 281.429688 249.519531 280.585938 249.238281 278.753906 249.238281 C 276.921875 249.238281 276.113281 249.554688 277.0625 249.976562 Z M 277.0625 249.976562 " fill-opacity="1" fill-rule="evenodd"/><g clip-path="url(#id2)"><path fill="rgb(99.609375%, 41.958618%, 1.179504%)" d="M 70.691406 274.214844 L -6.378906 275.199219 L 37.082031 276.472656 C 88.652344 278.234375 325.210938 277.773438 364.347656 276.1875 C 390.695312 275.0625 389.707031 274.886719 338.949219 274.742188 C 309.957031 274.742188 255.152344 274.179688 217.042969 274.039062 C 178.929688 273.898438 113.167969 273.898438 70.691406 274.214844 Z M 70.691406 274.214844 " fill-opacity="1" fill-rule="evenodd"/></g></svg>