<svg xmlns="http://www.w3.org/2000/svg" xmlns:xlink="http://www.w3.org/1999/xlink" width="500" zoomAndPan="magnify" viewBox="0 0 375 374.999991" height="500" preserveAspectRatio="xMidYMid meet" version="1.0"><defs><clipPath id="id1"><path d="M 67.160156 1 L 307.910156 1 L 307.910156 374 L 67.160156 374 Z M 67.160156 1 " clip-rule="nonzero"/></clipPath></defs><g clip-path="url(#id1)"><path fill="rgb(97.648621%, 38.819885%, 1.179504%)" d="M 219.429688 4.980469 C 239.78125 10.589844 258.011719 21.476562 272.542969 36.003906 C 294.351562 57.804688 307.878906 87.886719 307.878906 121 L 307.878906 253.484375 C 307.878906 286.597656 294.351562 316.679688 272.542969 338.480469 C 250.730469 360.285156 220.640625 373.808594 187.519531 373.808594 C 154.394531 373.808594 124.304688 360.285156 102.496094 338.480469 C 80.6875 316.679688 67.160156 286.566406 67.160156 253.484375 L 67.160156 121 C 67.160156 87.886719 80.6875 57.804688 102.496094 36.003906 C 119.453125 19.082031 141.414062 7.132812 165.890625 2.644531 C 180.664062 -0.0820312 205.777344 1.222656 219.429688 4.980469 Z M 186.152344 94.648438 C 198.742188 94.648438 209.054688 104.957031 209.054688 117.542969 L 209.054688 141.136719 C 209.054688 153.71875 198.742188 164.03125 186.152344 164.03125 C 173.566406 164.03125 163.253906 153.71875 163.253906 141.136719 L 163.253906 117.542969 C 163.253906 104.957031 173.535156 94.648438 186.152344 94.648438 Z M 252.429688 56.105469 C 235.777344 39.460938 212.785156 29.089844 187.519531 29.089844 C 162.25 29.089844 139.289062 39.429688 122.605469 56.105469 C 105.953125 72.753906 95.582031 95.742188 95.582031 121 L 95.582031 253.484375 C 95.582031 278.746094 105.925781 301.699219 122.605469 318.378906 C 139.257812 335.023438 162.25 345.394531 187.519531 345.394531 C 212.785156 345.394531 235.746094 335.054688 252.429688 318.378906 C 269.082031 301.730469 279.457031 278.746094 279.457031 253.484375 L 279.457031 121 C 279.457031 95.742188 269.113281 72.785156 252.429688 56.105469 Z M 252.429688 56.105469 " fill-opacity="1" fill-rule="nonzero"/></g></svg>