<svg xmlns="http://www.w3.org/2000/svg" xmlns:xlink="http://www.w3.org/1999/xlink" width="500" zoomAndPan="magnify" viewBox="0 0 375 374.999991" height="500" preserveAspectRatio="xMidYMid meet" version="1.0"><defs><clipPath id="id1"><path d="M 101 6 L 240 6 L 240 368 L 101 368 Z M 101 6 " clip-rule="nonzero"/></clipPath><clipPath id="id2"><path d="M 214.953125 -95.695312 L 403.738281 151.769531 L 110.957031 375.125 L -77.824219 127.660156 Z M 214.953125 -95.695312 " clip-rule="nonzero"/></clipPath><clipPath id="id3"><path d="M 214.953125 -95.695312 L 403.738281 151.769531 L 110.957031 375.125 L -77.824219 127.660156 Z M 214.953125 -95.695312 " clip-rule="nonzero"/></clipPath><clipPath id="id4"><path d="M 234.242188 2.714844 L 366.527344 176.117188 L 108.527344 372.941406 L -23.757812 199.539062 Z M 234.242188 2.714844 " clip-rule="nonzero"/></clipPath><clipPath id="id5"><path d="M 234.242188 2.714844 L 366.527344 176.117188 L 109.058594 372.535156 L -23.226562 199.132812 Z M 234.242188 2.714844 " clip-rule="nonzero"/></clipPath><clipPath id="id6"><path d="M 101 169 L 184 169 L 184 359 L 101 359 Z M 101 169 " clip-rule="nonzero"/></clipPath><clipPath id="id7"><path d="M 214.953125 -95.695312 L 403.738281 151.769531 L 110.957031 375.125 L -77.824219 127.660156 Z M 214.953125 -95.695312 " clip-rule="nonzero"/></clipPath><clipPath id="id8"><path d="M 214.953125 -95.695312 L 403.738281 151.769531 L 110.957031 375.125 L -77.824219 127.660156 Z M 214.953125 -95.695312 " clip-rule="nonzero"/></clipPath><clipPath id="id9"><path d="M 28 13 L 232 13 L 232 96 L 28 96 Z M 28 13 " clip-rule="nonzero"/></clipPath><clipPath id="id10"><path d="M 214.953125 -95.695312 L 403.738281 151.769531 L 110.957031 375.125 L -77.824219 127.660156 Z M 214.953125 -95.695312 " clip-rule="nonzero"/></clipPath><clipPath id="id11"><path d="M 214.953125 -95.695312 L 403.738281 151.769531 L 110.957031 375.125 L -77.824219 127.660156 Z M 214.953125 -95.695312 " clip-rule="nonzero"/></clipPath><clipPath id="id12"><path d="M 231 18 L 357 18 L 357 198 L 231 198 Z M 231 18 " clip-rule="nonzero"/></clipPath><clipPath id="id13"><path d="M 214.953125 -95.695312 L 403.738281 151.769531 L 110.957031 375.125 L -77.824219 127.660156 Z M 214.953125 -95.695312 " clip-rule="nonzero"/></clipPath><clipPath id="id14"><path d="M 214.953125 -95.695312 L 403.738281 151.769531 L 110.957031 375.125 L -77.824219 127.660156 Z M 214.953125 -95.695312 " clip-rule="nonzero"/></clipPath><clipPath id="id15"><path d="M 43 18 L 232 18 L 232 140 L 43 140 Z M 43 18 " clip-rule="nonzero"/></clipPath><clipPath id="id16"><path d="M 214.953125 -95.695312 L 403.738281 151.769531 L 110.957031 375.125 L -77.824219 127.660156 Z M 214.953125 -95.695312 " clip-rule="nonzero"/></clipPath><clipPath id="id17"><path d="M 214.953125 -95.695312 L 403.738281 151.769531 L 110.957031 375.125 L -77.824219 127.660156 Z M 214.953125 -95.695312 " clip-rule="nonzero"/></clipPath><clipPath id="id18"><path d="M 230 18 L 328 18 L 328 198 L 230 198 Z M 230 18 " clip-rule="nonzero"/></clipPath><clipPath id="id19"><path d="M 214.953125 -95.695312 L 403.738281 151.769531 L 110.957031 375.125 L -77.824219 127.660156 Z M 214.953125 -95.695312 " clip-rule="nonzero"/></clipPath><clipPath id="id20"><path d="M 214.953125 -95.695312 L 403.738281 151.769531 L 110.957031 375.125 L -77.824219 127.660156 Z M 214.953125 -95.695312 " clip-rule="nonzero"/></clipPath><clipPath id="id21"><path d="M 100 18 L 232 18 L 232 175 L 100 175 Z M 100 18 " clip-rule="nonzero"/></clipPath><clipPath id="id22"><path d="M 214.953125 -95.695312 L 403.738281 151.769531 L 110.957031 375.125 L -77.824219 127.660156 Z M 214.953125 -95.695312 " clip-rule="nonzero"/></clipPath><clipPath id="id23"><path d="M 214.953125 -95.695312 L 403.738281 151.769531 L 110.957031 375.125 L -77.824219 127.660156 Z M 214.953125 -95.695312 " clip-rule="nonzero"/></clipPath><clipPath id="id24"><path d="M 175 18 L 265 18 L 265 195 L 175 195 Z M 175 18 " clip-rule="nonzero"/></clipPath><clipPath id="id25"><path d="M 214.953125 -95.695312 L 403.738281 151.769531 L 110.957031 375.125 L -77.824219 127.660156 Z M 214.953125 -95.695312 " clip-rule="nonzero"/></clipPath><clipPath id="id26"><path d="M 214.953125 -95.695312 L 403.738281 151.769531 L 110.957031 375.125 L -77.824219 127.660156 Z M 214.953125 -95.695312 " clip-rule="nonzero"/></clipPath><clipPath id="id27"><path d="M 36 13 L 232 13 L 232 96 L 36 96 Z M 36 13 " clip-rule="nonzero"/></clipPath><clipPath id="id28"><path d="M 214.953125 -95.695312 L 403.738281 151.769531 L 110.957031 375.125 L -77.824219 127.660156 Z M 214.953125 -95.695312 " clip-rule="nonzero"/></clipPath><clipPath id="id29"><path d="M 214.953125 -95.695312 L 403.738281 151.769531 L 110.957031 375.125 L -77.824219 127.660156 Z M 214.953125 -95.695312 " clip-rule="nonzero"/></clipPath><clipPath id="id30"><path d="M 28 13 L 178 13 L 178 96 L 28 96 Z M 28 13 " clip-rule="nonzero"/></clipPath><clipPath id="id31"><path d="M 214.953125 -95.695312 L 403.738281 151.769531 L 110.957031 375.125 L -77.824219 127.660156 Z M 214.953125 -95.695312 " clip-rule="nonzero"/></clipPath><clipPath id="id32"><path d="M 214.953125 -95.695312 L 403.738281 151.769531 L 110.957031 375.125 L -77.824219 127.660156 Z M 214.953125 -95.695312 " clip-rule="nonzero"/></clipPath><clipPath id="id33"><path d="M 127 18 L 232 18 L 232 175 L 127 175 Z M 127 18 " clip-rule="nonzero"/></clipPath><clipPath id="id34"><path d="M 214.953125 -95.695312 L 403.738281 151.769531 L 110.957031 375.125 L -77.824219 127.660156 Z M 214.953125 -95.695312 " clip-rule="nonzero"/></clipPath><clipPath id="id35"><path d="M 214.953125 -95.695312 L 403.738281 151.769531 L 110.957031 375.125 L -77.824219 127.660156 Z M 214.953125 -95.695312 " clip-rule="nonzero"/></clipPath><clipPath id="id36"><path d="M 100 19 L 227 19 L 227 174 L 100 174 Z M 100 19 " clip-rule="nonzero"/></clipPath><clipPath id="id37"><path d="M 214.953125 -95.695312 L 403.738281 151.769531 L 110.957031 375.125 L -77.824219 127.660156 Z M 214.953125 -95.695312 " clip-rule="nonzero"/></clipPath><clipPath id="id38"><path d="M 214.953125 -95.695312 L 403.738281 151.769531 L 110.957031 375.125 L -77.824219 127.660156 Z M 214.953125 -95.695312 " clip-rule="nonzero"/></clipPath><clipPath id="id39"><path d="M 147 117 L 285 117 L 285 224 L 147 224 Z M 147 117 " clip-rule="nonzero"/></clipPath><clipPath id="id40"><path d="M 214.953125 -95.695312 L 403.738281 151.769531 L 110.957031 375.125 L -77.824219 127.660156 Z M 214.953125 -95.695312 " clip-rule="nonzero"/></clipPath><clipPath id="id41"><path d="M 214.953125 -95.695312 L 403.738281 151.769531 L 110.957031 375.125 L -77.824219 127.660156 Z M 214.953125 -95.695312 " clip-rule="nonzero"/></clipPath><clipPath id="id42"><path d="M 158 99 L 221 99 L 221 169 L 158 169 Z M 158 99 " clip-rule="nonzero"/></clipPath><clipPath id="id43"><path d="M 214.953125 -95.695312 L 403.738281 151.769531 L 110.957031 375.125 L -77.824219 127.660156 Z M 214.953125 -95.695312 " clip-rule="nonzero"/></clipPath><clipPath id="id44"><path d="M 214.953125 -95.695312 L 403.738281 151.769531 L 110.957031 375.125 L -77.824219 127.660156 Z M 214.953125 -95.695312 " clip-rule="nonzero"/></clipPath><clipPath id="id45"><path d="M 164 90 L 224 90 L 224 153 L 164 153 Z M 164 90 " clip-rule="nonzero"/></clipPath><clipPath id="id46"><path d="M 214.953125 -95.695312 L 403.738281 151.769531 L 110.957031 375.125 L -77.824219 127.660156 Z M 214.953125 -95.695312 " clip-rule="nonzero"/></clipPath><clipPath id="id47"><path d="M 214.953125 -95.695312 L 403.738281 151.769531 L 110.957031 375.125 L -77.824219 127.660156 Z M 214.953125 -95.695312 " clip-rule="nonzero"/></clipPath><clipPath id="id48"><path d="M 15 41 L 130 41 L 130 168 L 15 168 Z M 15 41 " clip-rule="nonzero"/></clipPath><clipPath id="id49"><path d="M 214.953125 -95.695312 L 403.738281 151.769531 L 110.957031 375.125 L -77.824219 127.660156 Z M 214.953125 -95.695312 " clip-rule="nonzero"/></clipPath><clipPath id="id50"><path d="M 214.953125 -95.695312 L 403.738281 151.769531 L 110.957031 375.125 L -77.824219 127.660156 Z M 214.953125 -95.695312 " clip-rule="nonzero"/></clipPath><clipPath id="id51"><path d="M 49 34 L 113 34 L 113 96 L 49 96 Z M 49 34 " clip-rule="nonzero"/></clipPath><clipPath id="id52"><path d="M 214.953125 -95.695312 L 403.738281 151.769531 L 110.957031 375.125 L -77.824219 127.660156 Z M 214.953125 -95.695312 " clip-rule="nonzero"/></clipPath><clipPath id="id53"><path d="M 214.953125 -95.695312 L 403.738281 151.769531 L 110.957031 375.125 L -77.824219 127.660156 Z M 214.953125 -95.695312 " clip-rule="nonzero"/></clipPath><clipPath id="id54"><path d="M 295 131 L 375 131 L 375 223 L 295 223 Z M 295 131 " clip-rule="nonzero"/></clipPath><clipPath id="id55"><path d="M 214.953125 -95.695312 L 403.738281 151.769531 L 110.957031 375.125 L -77.824219 127.660156 Z M 214.953125 -95.695312 " clip-rule="nonzero"/></clipPath><clipPath id="id56"><path d="M 214.953125 -95.695312 L 403.738281 151.769531 L 110.957031 375.125 L -77.824219 127.660156 Z M 214.953125 -95.695312 " clip-rule="nonzero"/></clipPath><clipPath id="id57"><path d="M 335.4375 115.234375 L 378.089844 171.144531 L 310.960938 222.355469 L 268.304688 166.445312 Z M 335.4375 115.234375 " clip-rule="nonzero"/></clipPath><clipPath id="id58"><path d="M 335.4375 115.234375 L 377.996094 171.027344 L 310.867188 222.238281 L 268.304688 166.445312 Z M 335.4375 115.234375 " clip-rule="nonzero"/></clipPath><clipPath id="id59"><path d="M 225 6 L 240 6 L 240 22 L 225 22 Z M 225 6 " clip-rule="nonzero"/></clipPath><clipPath id="id60"><path d="M 214.953125 -95.695312 L 403.738281 151.769531 L 110.957031 375.125 L -77.824219 127.660156 Z M 214.953125 -95.695312 " clip-rule="nonzero"/></clipPath><clipPath id="id61"><path d="M 214.953125 -95.695312 L 403.738281 151.769531 L 110.957031 375.125 L -77.824219 127.660156 Z M 214.953125 -95.695312 " clip-rule="nonzero"/></clipPath><clipPath id="id62"><path d="M 225 6 L 240 6 L 240 18 L 225 18 Z M 225 6 " clip-rule="nonzero"/></clipPath><clipPath id="id63"><path d="M 214.953125 -95.695312 L 403.738281 151.769531 L 110.957031 375.125 L -77.824219 127.660156 Z M 214.953125 -95.695312 " clip-rule="nonzero"/></clipPath><clipPath id="id64"><path d="M 214.953125 -95.695312 L 403.738281 151.769531 L 110.957031 375.125 L -77.824219 127.660156 Z M 214.953125 -95.695312 " clip-rule="nonzero"/></clipPath><clipPath id="id65"><path d="M 196 0 L 269 0 L 269 51 L 196 51 Z M 196 0 " clip-rule="nonzero"/></clipPath><clipPath id="id66"><path d="M 214.953125 -95.695312 L 403.738281 151.769531 L 110.957031 375.125 L -77.824219 127.660156 Z M 214.953125 -95.695312 " clip-rule="nonzero"/></clipPath><clipPath id="id67"><path d="M 214.953125 -95.695312 L 403.738281 151.769531 L 110.957031 375.125 L -77.824219 127.660156 Z M 214.953125 -95.695312 " clip-rule="nonzero"/></clipPath><clipPath id="id68"><path d="M 72 141 L 199 141 L 199 375 L 72 375 Z M 72 141 " clip-rule="nonzero"/></clipPath><clipPath id="id69"><path d="M 214.953125 -95.695312 L 403.738281 151.769531 L 110.957031 375.125 L -77.824219 127.660156 Z M 214.953125 -95.695312 " clip-rule="nonzero"/></clipPath><clipPath id="id70"><path d="M 214.953125 -95.695312 L 403.738281 151.769531 L 110.957031 375.125 L -77.824219 127.660156 Z M 214.953125 -95.695312 " clip-rule="nonzero"/></clipPath><clipPath id="id71"><path d="M 175.324219 128.421875 L 270.519531 253.207031 L 110.378906 375.375 L 15.183594 250.589844 Z M 175.324219 128.421875 " clip-rule="nonzero"/></clipPath><clipPath id="id72"><path d="M 175.324219 128.421875 L 270.429688 253.085938 L 110.824219 374.847656 L 15.71875 250.179688 Z M 175.324219 128.421875 " clip-rule="nonzero"/></clipPath></defs><g clip-path="url(#id1)"><g clip-path="url(#id2)"><g clip-path="url(#id3)"><g clip-path="url(#id4)"><g clip-path="url(#id5)"><path fill="rgb(97.648621%, 38.819885%, 1.179504%)" d="M 110.28125 367.644531 L 105.085938 365.773438 C 102.03125 364.679688 100.449219 361.308594 101.558594 358.257812 L 229.367188 6.851562 L 239.769531 10.585938 L 117.773438 364.054688 C 116.714844 367.132812 113.347656 368.738281 110.28125 367.644531 " fill-opacity="1" fill-rule="nonzero"/></g></g></g></g></g><g clip-path="url(#id6)"><g clip-path="url(#id7)"><g clip-path="url(#id8)"><path fill="rgb(97.648621%, 38.819885%, 1.179504%)" d="M 183.277344 174.269531 L 101.558594 358.257812 L 170.183594 169.566406 L 183.277344 174.269531 " fill-opacity="1" fill-rule="nonzero"/></g></g></g><g clip-path="url(#id9)"><g clip-path="url(#id10)"><g clip-path="url(#id11)"><path fill="rgb(96.469116%, 96.469116%, 96.469116%)" d="M 231.007812 18.863281 C 231.007812 18.863281 102.394531 -9.339844 28.261719 68.742188 C 28.261719 68.742188 37.71875 73.269531 43.066406 95.527344 C 43.066406 95.527344 119.984375 14.734375 231.007812 18.863281 " fill-opacity="1" fill-rule="nonzero"/></g></g></g><g clip-path="url(#id12)"><g clip-path="url(#id13)"><g clip-path="url(#id14)"><path fill="rgb(97.648621%, 38.819885%, 1.179504%)" d="M 231.007812 18.863281 C 231.007812 18.863281 348.230469 78.960938 356.050781 186.480469 C 356.050781 186.480469 345.882812 183.957031 327.65625 197.746094 C 327.65625 197.746094 319.394531 86.359375 231.007812 18.863281 " fill-opacity="1" fill-rule="nonzero"/></g></g></g><g clip-path="url(#id15)"><g clip-path="url(#id16)"><g clip-path="url(#id17)"><path fill="rgb(97.648621%, 38.819885%, 1.179504%)" d="M 43.792969 95.789062 C 43.792969 95.789062 101.484375 13.953125 231.007812 18.863281 C 231.007812 18.863281 159.082031 28.28125 101.03125 139.074219 C 101.03125 139.074219 84.90625 102.730469 43.792969 95.789062 " fill-opacity="1" fill-rule="nonzero"/></g></g></g><g clip-path="url(#id18)"><g clip-path="url(#id19)"><g clip-path="url(#id20)"><path fill="rgb(96.469116%, 96.469116%, 96.469116%)" d="M 327.492188 197.6875 C 327.492188 197.6875 335.472656 97.742188 230.847656 18.804688 C 230.847656 18.804688 282.175781 72.59375 255.53125 194.574219 C 255.53125 194.574219 291.136719 176.808594 327.492188 197.6875 " fill-opacity="1" fill-rule="nonzero"/></g></g></g><g clip-path="url(#id21)"><g clip-path="url(#id22)"><g clip-path="url(#id23)"><path fill="rgb(96.469116%, 96.469116%, 96.469116%)" d="M 231.007812 18.863281 L 175.324219 174.734375 C 175.324219 174.734375 143.683594 142.894531 100.632812 138.933594 C 100.632812 138.933594 143.183594 36.40625 231.007812 18.863281 " fill-opacity="1" fill-rule="nonzero"/></g></g></g><g clip-path="url(#id24)"><g clip-path="url(#id25)"><g clip-path="url(#id26)"><path fill="rgb(97.648621%, 38.819885%, 1.179504%)" d="M 231.007812 18.863281 L 175.324219 174.734375 C 175.324219 174.734375 219.925781 170.28125 255.695312 194.628906 C 255.695312 194.628906 287.75 88.335938 231.007812 18.863281 " fill-opacity="1" fill-rule="nonzero"/></g></g></g><g clip-path="url(#id27)"><g clip-path="url(#id28)"><g clip-path="url(#id29)"><path fill="rgb(96.469116%, 96.469116%, 96.469116%)" d="M 231.007812 18.863281 C 231.007812 18.863281 208.820312 14.003906 177.570312 13.910156 C 126.019531 17.472656 76.375 32.835938 36.113281 68.695312 C 41.6875 76.570312 43.679688 85.75 43.460938 95.121094 C 49.425781 89.046875 124.523438 14.902344 231.007812 18.863281 " fill-opacity="1" fill-rule="nonzero"/></g></g></g><g clip-path="url(#id30)"><g clip-path="url(#id31)"><g clip-path="url(#id32)"><path fill="rgb(96.469116%, 96.469116%, 96.469116%)" d="M 36.113281 68.695312 C 76.375 32.835938 126.019531 17.472656 177.570312 13.910156 C 133.574219 13.773438 71.609375 23.085938 28.261719 68.742188 C 28.261719 68.742188 37.71875 73.269531 43.066406 95.527344 C 43.066406 95.527344 43.210938 95.378906 43.460938 95.121094 C 43.679688 85.75 41.6875 76.570312 36.113281 68.695312 " fill-opacity="1" fill-rule="nonzero"/></g></g></g><g clip-path="url(#id33)"><g clip-path="url(#id34)"><g clip-path="url(#id35)"><path fill="rgb(96.469116%, 96.469116%, 96.469116%)" d="M 174.355469 173.796875 C 174.980469 174.390625 175.324219 174.734375 175.324219 174.734375 L 231.035156 18.792969 C 229.605469 19.082031 228.191406 19.390625 226.785156 19.722656 C 184.34375 45.40625 149.578125 83.398438 127.410156 128.632812 C 147.460938 138.453125 163.980469 154.589844 174.355469 173.796875 " fill-opacity="1" fill-rule="nonzero"/></g></g></g><g clip-path="url(#id36)"><g clip-path="url(#id37)"><g clip-path="url(#id38)"><path fill="rgb(96.469116%, 96.469116%, 96.469116%)" d="M 100.636719 138.929688 C 139.324219 142.484375 168.78125 168.550781 174.355469 173.796875 C 163.980469 154.589844 147.460938 138.453125 127.410156 128.632812 C 149.578125 83.398438 184.34375 45.40625 226.785156 19.722656 C 141.828125 39.667969 100.636719 138.929688 100.636719 138.929688 " fill-opacity="1" fill-rule="nonzero"/></g></g></g><g clip-path="url(#id39)"><g clip-path="url(#id40)"><g clip-path="url(#id41)"><path stroke-linecap="round" transform="matrix(0.0618157, 0.0810298, 0.0808786, -0.0617003, -68.351211, 139.980137)" fill="none" stroke-linejoin="miter" d="M 1561.846418 1943.256273 L 1708.362991 1717.194266 C 1714.403892 1707.844022 1728.004175 1707.978195 1734.105892 1717.320969 C 1984.179529 2098.854837 2354.800348 2206.799886 2354.800348 2206.799886 " stroke="rgb(16.079712%, 22.349548%, 50.979614%)" stroke-width="20" stroke-opacity="1" stroke-miterlimit="10"/></g></g></g><g clip-path="url(#id42)"><g clip-path="url(#id43)"><g clip-path="url(#id44)"><path stroke-linecap="round" transform="matrix(0.0618157, 0.0810298, 0.0808786, -0.0617003, -68.351211, 139.980137)" fill="none" stroke-linejoin="miter" d="M 1521.297104 2002.695521 L 1456.494633 2102.646947 " stroke="rgb(16.079712%, 22.349548%, 50.979614%)" stroke-width="20" stroke-opacity="1" stroke-miterlimit="10"/></g></g></g><g clip-path="url(#id45)"><g clip-path="url(#id46)"><g clip-path="url(#id47)"><path stroke-linecap="round" transform="matrix(0.0618157, 0.0810298, 0.0808786, -0.0617003, -68.351211, 139.980137)" fill="none" stroke-linejoin="miter" d="M 1432.185892 2140.110555 L 1408.210784 2177.125977 " stroke="rgb(16.079712%, 22.349548%, 50.979614%)" stroke-width="20" stroke-opacity="1" stroke-miterlimit="10"/></g></g></g><g clip-path="url(#id48)"><g clip-path="url(#id49)"><g clip-path="url(#id50)"><path stroke-linecap="round" transform="matrix(0.0618157, 0.0810298, 0.0808786, -0.0617003, -68.351211, 139.980137)" fill="none" stroke-linejoin="miter" d="M 299.53299 1520.790433 C 291.565583 1366.676529 308.421622 1202.428495 313.867154 1154.943445 C 314.495184 1149.247291 321.189161 1146.642552 325.474173 1150.370673 C 377.828292 1195.891518 631.953871 1395.095784 997.501721 1326.960953 " stroke="rgb(16.079712%, 22.349548%, 50.979614%)" stroke-width="20" stroke-opacity="1" stroke-miterlimit="10"/></g></g></g><g clip-path="url(#id51)"><g clip-path="url(#id52)"><g clip-path="url(#id53)"><path stroke-linecap="round" transform="matrix(0.0618157, 0.0810298, 0.0808786, -0.0617003, -68.351211, 139.980137)" fill="none" stroke-linejoin="miter" d="M 302.437863 1579.811693 L 305.211689 1645.308406 " stroke="rgb(16.079712%, 22.349548%, 50.979614%)" stroke-width="20" stroke-opacity="1" stroke-miterlimit="10"/></g></g></g><g clip-path="url(#id54)"><g clip-path="url(#id55)"><g clip-path="url(#id56)"><g clip-path="url(#id57)"><g clip-path="url(#id58)"><path stroke-linecap="round" transform="matrix(0.0618157, 0.0810298, 0.0808786, -0.0617003, -68.351197, 139.980123)" fill="none" stroke-linejoin="miter" d="M 2494.901071 2943.867602 C 2595.780727 2899.462623 2745.696213 2794.734662 2792.727566 2761.155096 C 2798.771573 2756.873734 2806.994167 2761.214681 2806.962387 2768.580218 C 2806.443339 2824.181182 2811.52171 2992.481021 2888.474264 3039.727756 " stroke="rgb(16.079712%, 22.349548%, 50.979614%)" stroke-width="20" stroke-opacity="1" stroke-miterlimit="10"/></g></g></g></g></g><g clip-path="url(#id59)"><g clip-path="url(#id60)"><g clip-path="url(#id61)"><path fill="rgb(97.648621%, 38.819885%, 1.179504%)" d="M 229.367188 6.851562 C 229.367188 6.851562 235.667969 6.457031 239.769531 10.585938 L 235.964844 21.601562 C 235.964844 21.601562 229.503906 22.574219 225.445312 17.824219 L 229.367188 6.851562 " fill-opacity="1" fill-rule="nonzero"/></g></g></g><g clip-path="url(#id62)"><g clip-path="url(#id63)"><g clip-path="url(#id64)"><path fill="rgb(97.648621%, 38.819885%, 1.179504%)" d="M 239.769531 10.585938 L 225.445312 17.824219 L 229.367188 6.851562 C 229.367188 6.851562 234.972656 6.019531 239.769531 10.585938 " fill-opacity="1" fill-rule="nonzero"/></g></g></g><g clip-path="url(#id65)"><g clip-path="url(#id66)"><g clip-path="url(#id67)"><path stroke-linecap="round" transform="matrix(0.0618157, 0.0810298, 0.0808786, -0.0617003, -68.351211, 139.980137)" fill="none" stroke-linejoin="miter" d="M 824.289471 3179.662493 C 824.289471 3179.662493 765.130864 3171.991563 733.25041 3120.627089 L 795.508848 3024.551979 C 795.508848 3024.551979 851.594134 3027.616987 887.580524 3084.247085 " stroke="rgb(16.079712%, 22.349548%, 50.979614%)" stroke-width="20" stroke-opacity="1" stroke-miterlimit="10"/></g></g></g><g clip-path="url(#id68)"><g clip-path="url(#id69)"><g clip-path="url(#id70)"><g clip-path="url(#id71)"><g clip-path="url(#id72)"><path stroke-linecap="round" transform="matrix(0.0618157, 0.0810298, 0.0808786, -0.0617003, -68.351197, 139.980123)" fill="none" stroke-linejoin="miter" d="M 2713.975501 26.50329 L 1652.693634 1684.349749 " stroke="rgb(16.079712%, 22.349548%, 50.979614%)" stroke-width="20" stroke-opacity="1" stroke-miterlimit="10"/></g></g></g></g></g></svg>